%TF.GenerationSoftware,KiCad,Pcbnew,10.0.4*%
%TF.CreationDate,2026-07-25T17:27:06-04:00*%
%TF.ProjectId,WalkieTalkie_Front,57616c6b-6965-4546-916c-6b69655f4672,rev?*%
%TF.SameCoordinates,Original*%
%TF.FileFunction,Legend,Top*%
%TF.FilePolarity,Positive*%
%FSLAX46Y46*%
G04 Gerber Fmt 4.6, Leading zero omitted, Abs format (unit mm)*
G04 Created by KiCad (PCBNEW 10.0.4) date 2026-07-25 17:27:06*
%MOMM*%
%LPD*%
G01*
G04 APERTURE LIST*
%ADD10C,0.150000*%
%ADD11C,0.250000*%
%ADD12C,0.060000*%
%ADD13C,0.120000*%
%ADD14C,0.300000*%
%ADD15C,0.200000*%
G04 APERTURE END LIST*
D10*
X87685714Y-68194819D02*
X87685714Y-69004342D01*
X87685714Y-69004342D02*
X87733333Y-69099580D01*
X87733333Y-69099580D02*
X87780952Y-69147200D01*
X87780952Y-69147200D02*
X87876190Y-69194819D01*
X87876190Y-69194819D02*
X88066666Y-69194819D01*
X88066666Y-69194819D02*
X88161904Y-69147200D01*
X88161904Y-69147200D02*
X88209523Y-69099580D01*
X88209523Y-69099580D02*
X88257142Y-69004342D01*
X88257142Y-69004342D02*
X88257142Y-68194819D01*
X88685714Y-68290057D02*
X88733333Y-68242438D01*
X88733333Y-68242438D02*
X88828571Y-68194819D01*
X88828571Y-68194819D02*
X89066666Y-68194819D01*
X89066666Y-68194819D02*
X89161904Y-68242438D01*
X89161904Y-68242438D02*
X89209523Y-68290057D01*
X89209523Y-68290057D02*
X89257142Y-68385295D01*
X89257142Y-68385295D02*
X89257142Y-68480533D01*
X89257142Y-68480533D02*
X89209523Y-68623390D01*
X89209523Y-68623390D02*
X88638095Y-69194819D01*
X88638095Y-69194819D02*
X89257142Y-69194819D01*
X89876190Y-68194819D02*
X89971428Y-68194819D01*
X89971428Y-68194819D02*
X90066666Y-68242438D01*
X90066666Y-68242438D02*
X90114285Y-68290057D01*
X90114285Y-68290057D02*
X90161904Y-68385295D01*
X90161904Y-68385295D02*
X90209523Y-68575771D01*
X90209523Y-68575771D02*
X90209523Y-68813866D01*
X90209523Y-68813866D02*
X90161904Y-69004342D01*
X90161904Y-69004342D02*
X90114285Y-69099580D01*
X90114285Y-69099580D02*
X90066666Y-69147200D01*
X90066666Y-69147200D02*
X89971428Y-69194819D01*
X89971428Y-69194819D02*
X89876190Y-69194819D01*
X89876190Y-69194819D02*
X89780952Y-69147200D01*
X89780952Y-69147200D02*
X89733333Y-69099580D01*
X89733333Y-69099580D02*
X89685714Y-69004342D01*
X89685714Y-69004342D02*
X89638095Y-68813866D01*
X89638095Y-68813866D02*
X89638095Y-68575771D01*
X89638095Y-68575771D02*
X89685714Y-68385295D01*
X89685714Y-68385295D02*
X89733333Y-68290057D01*
X89733333Y-68290057D02*
X89780952Y-68242438D01*
X89780952Y-68242438D02*
X89876190Y-68194819D01*
X91161904Y-69194819D02*
X90590476Y-69194819D01*
X90876190Y-69194819D02*
X90876190Y-68194819D01*
X90876190Y-68194819D02*
X90780952Y-68337676D01*
X90780952Y-68337676D02*
X90685714Y-68432914D01*
X90685714Y-68432914D02*
X90590476Y-68480533D01*
X95530952Y-103239580D02*
X95483333Y-103287200D01*
X95483333Y-103287200D02*
X95340476Y-103334819D01*
X95340476Y-103334819D02*
X95245238Y-103334819D01*
X95245238Y-103334819D02*
X95102381Y-103287200D01*
X95102381Y-103287200D02*
X95007143Y-103191961D01*
X95007143Y-103191961D02*
X94959524Y-103096723D01*
X94959524Y-103096723D02*
X94911905Y-102906247D01*
X94911905Y-102906247D02*
X94911905Y-102763390D01*
X94911905Y-102763390D02*
X94959524Y-102572914D01*
X94959524Y-102572914D02*
X95007143Y-102477676D01*
X95007143Y-102477676D02*
X95102381Y-102382438D01*
X95102381Y-102382438D02*
X95245238Y-102334819D01*
X95245238Y-102334819D02*
X95340476Y-102334819D01*
X95340476Y-102334819D02*
X95483333Y-102382438D01*
X95483333Y-102382438D02*
X95530952Y-102430057D01*
X95911905Y-102430057D02*
X95959524Y-102382438D01*
X95959524Y-102382438D02*
X96054762Y-102334819D01*
X96054762Y-102334819D02*
X96292857Y-102334819D01*
X96292857Y-102334819D02*
X96388095Y-102382438D01*
X96388095Y-102382438D02*
X96435714Y-102430057D01*
X96435714Y-102430057D02*
X96483333Y-102525295D01*
X96483333Y-102525295D02*
X96483333Y-102620533D01*
X96483333Y-102620533D02*
X96435714Y-102763390D01*
X96435714Y-102763390D02*
X95864286Y-103334819D01*
X95864286Y-103334819D02*
X96483333Y-103334819D01*
X97102381Y-102334819D02*
X97197619Y-102334819D01*
X97197619Y-102334819D02*
X97292857Y-102382438D01*
X97292857Y-102382438D02*
X97340476Y-102430057D01*
X97340476Y-102430057D02*
X97388095Y-102525295D01*
X97388095Y-102525295D02*
X97435714Y-102715771D01*
X97435714Y-102715771D02*
X97435714Y-102953866D01*
X97435714Y-102953866D02*
X97388095Y-103144342D01*
X97388095Y-103144342D02*
X97340476Y-103239580D01*
X97340476Y-103239580D02*
X97292857Y-103287200D01*
X97292857Y-103287200D02*
X97197619Y-103334819D01*
X97197619Y-103334819D02*
X97102381Y-103334819D01*
X97102381Y-103334819D02*
X97007143Y-103287200D01*
X97007143Y-103287200D02*
X96959524Y-103239580D01*
X96959524Y-103239580D02*
X96911905Y-103144342D01*
X96911905Y-103144342D02*
X96864286Y-102953866D01*
X96864286Y-102953866D02*
X96864286Y-102715771D01*
X96864286Y-102715771D02*
X96911905Y-102525295D01*
X96911905Y-102525295D02*
X96959524Y-102430057D01*
X96959524Y-102430057D02*
X97007143Y-102382438D01*
X97007143Y-102382438D02*
X97102381Y-102334819D01*
X97816667Y-102430057D02*
X97864286Y-102382438D01*
X97864286Y-102382438D02*
X97959524Y-102334819D01*
X97959524Y-102334819D02*
X98197619Y-102334819D01*
X98197619Y-102334819D02*
X98292857Y-102382438D01*
X98292857Y-102382438D02*
X98340476Y-102430057D01*
X98340476Y-102430057D02*
X98388095Y-102525295D01*
X98388095Y-102525295D02*
X98388095Y-102620533D01*
X98388095Y-102620533D02*
X98340476Y-102763390D01*
X98340476Y-102763390D02*
X97769048Y-103334819D01*
X97769048Y-103334819D02*
X98388095Y-103334819D01*
X74354286Y-109637200D02*
X74497143Y-109684819D01*
X74497143Y-109684819D02*
X74735238Y-109684819D01*
X74735238Y-109684819D02*
X74830476Y-109637200D01*
X74830476Y-109637200D02*
X74878095Y-109589580D01*
X74878095Y-109589580D02*
X74925714Y-109494342D01*
X74925714Y-109494342D02*
X74925714Y-109399104D01*
X74925714Y-109399104D02*
X74878095Y-109303866D01*
X74878095Y-109303866D02*
X74830476Y-109256247D01*
X74830476Y-109256247D02*
X74735238Y-109208628D01*
X74735238Y-109208628D02*
X74544762Y-109161009D01*
X74544762Y-109161009D02*
X74449524Y-109113390D01*
X74449524Y-109113390D02*
X74401905Y-109065771D01*
X74401905Y-109065771D02*
X74354286Y-108970533D01*
X74354286Y-108970533D02*
X74354286Y-108875295D01*
X74354286Y-108875295D02*
X74401905Y-108780057D01*
X74401905Y-108780057D02*
X74449524Y-108732438D01*
X74449524Y-108732438D02*
X74544762Y-108684819D01*
X74544762Y-108684819D02*
X74782857Y-108684819D01*
X74782857Y-108684819D02*
X74925714Y-108732438D01*
X75259048Y-108684819D02*
X75497143Y-109684819D01*
X75497143Y-109684819D02*
X75687619Y-108970533D01*
X75687619Y-108970533D02*
X75878095Y-109684819D01*
X75878095Y-109684819D02*
X76116191Y-108684819D01*
X76449524Y-108780057D02*
X76497143Y-108732438D01*
X76497143Y-108732438D02*
X76592381Y-108684819D01*
X76592381Y-108684819D02*
X76830476Y-108684819D01*
X76830476Y-108684819D02*
X76925714Y-108732438D01*
X76925714Y-108732438D02*
X76973333Y-108780057D01*
X76973333Y-108780057D02*
X77020952Y-108875295D01*
X77020952Y-108875295D02*
X77020952Y-108970533D01*
X77020952Y-108970533D02*
X76973333Y-109113390D01*
X76973333Y-109113390D02*
X76401905Y-109684819D01*
X76401905Y-109684819D02*
X77020952Y-109684819D01*
X77640000Y-108684819D02*
X77735238Y-108684819D01*
X77735238Y-108684819D02*
X77830476Y-108732438D01*
X77830476Y-108732438D02*
X77878095Y-108780057D01*
X77878095Y-108780057D02*
X77925714Y-108875295D01*
X77925714Y-108875295D02*
X77973333Y-109065771D01*
X77973333Y-109065771D02*
X77973333Y-109303866D01*
X77973333Y-109303866D02*
X77925714Y-109494342D01*
X77925714Y-109494342D02*
X77878095Y-109589580D01*
X77878095Y-109589580D02*
X77830476Y-109637200D01*
X77830476Y-109637200D02*
X77735238Y-109684819D01*
X77735238Y-109684819D02*
X77640000Y-109684819D01*
X77640000Y-109684819D02*
X77544762Y-109637200D01*
X77544762Y-109637200D02*
X77497143Y-109589580D01*
X77497143Y-109589580D02*
X77449524Y-109494342D01*
X77449524Y-109494342D02*
X77401905Y-109303866D01*
X77401905Y-109303866D02*
X77401905Y-109065771D01*
X77401905Y-109065771D02*
X77449524Y-108875295D01*
X77449524Y-108875295D02*
X77497143Y-108780057D01*
X77497143Y-108780057D02*
X77544762Y-108732438D01*
X77544762Y-108732438D02*
X77640000Y-108684819D01*
X78306667Y-108684819D02*
X78925714Y-108684819D01*
X78925714Y-108684819D02*
X78592381Y-109065771D01*
X78592381Y-109065771D02*
X78735238Y-109065771D01*
X78735238Y-109065771D02*
X78830476Y-109113390D01*
X78830476Y-109113390D02*
X78878095Y-109161009D01*
X78878095Y-109161009D02*
X78925714Y-109256247D01*
X78925714Y-109256247D02*
X78925714Y-109494342D01*
X78925714Y-109494342D02*
X78878095Y-109589580D01*
X78878095Y-109589580D02*
X78830476Y-109637200D01*
X78830476Y-109637200D02*
X78735238Y-109684819D01*
X78735238Y-109684819D02*
X78449524Y-109684819D01*
X78449524Y-109684819D02*
X78354286Y-109637200D01*
X78354286Y-109637200D02*
X78306667Y-109589580D01*
X86284286Y-97607200D02*
X86427143Y-97654819D01*
X86427143Y-97654819D02*
X86665238Y-97654819D01*
X86665238Y-97654819D02*
X86760476Y-97607200D01*
X86760476Y-97607200D02*
X86808095Y-97559580D01*
X86808095Y-97559580D02*
X86855714Y-97464342D01*
X86855714Y-97464342D02*
X86855714Y-97369104D01*
X86855714Y-97369104D02*
X86808095Y-97273866D01*
X86808095Y-97273866D02*
X86760476Y-97226247D01*
X86760476Y-97226247D02*
X86665238Y-97178628D01*
X86665238Y-97178628D02*
X86474762Y-97131009D01*
X86474762Y-97131009D02*
X86379524Y-97083390D01*
X86379524Y-97083390D02*
X86331905Y-97035771D01*
X86331905Y-97035771D02*
X86284286Y-96940533D01*
X86284286Y-96940533D02*
X86284286Y-96845295D01*
X86284286Y-96845295D02*
X86331905Y-96750057D01*
X86331905Y-96750057D02*
X86379524Y-96702438D01*
X86379524Y-96702438D02*
X86474762Y-96654819D01*
X86474762Y-96654819D02*
X86712857Y-96654819D01*
X86712857Y-96654819D02*
X86855714Y-96702438D01*
X87189048Y-96654819D02*
X87427143Y-97654819D01*
X87427143Y-97654819D02*
X87617619Y-96940533D01*
X87617619Y-96940533D02*
X87808095Y-97654819D01*
X87808095Y-97654819D02*
X88046191Y-96654819D01*
X88379524Y-96750057D02*
X88427143Y-96702438D01*
X88427143Y-96702438D02*
X88522381Y-96654819D01*
X88522381Y-96654819D02*
X88760476Y-96654819D01*
X88760476Y-96654819D02*
X88855714Y-96702438D01*
X88855714Y-96702438D02*
X88903333Y-96750057D01*
X88903333Y-96750057D02*
X88950952Y-96845295D01*
X88950952Y-96845295D02*
X88950952Y-96940533D01*
X88950952Y-96940533D02*
X88903333Y-97083390D01*
X88903333Y-97083390D02*
X88331905Y-97654819D01*
X88331905Y-97654819D02*
X88950952Y-97654819D01*
X89570000Y-96654819D02*
X89665238Y-96654819D01*
X89665238Y-96654819D02*
X89760476Y-96702438D01*
X89760476Y-96702438D02*
X89808095Y-96750057D01*
X89808095Y-96750057D02*
X89855714Y-96845295D01*
X89855714Y-96845295D02*
X89903333Y-97035771D01*
X89903333Y-97035771D02*
X89903333Y-97273866D01*
X89903333Y-97273866D02*
X89855714Y-97464342D01*
X89855714Y-97464342D02*
X89808095Y-97559580D01*
X89808095Y-97559580D02*
X89760476Y-97607200D01*
X89760476Y-97607200D02*
X89665238Y-97654819D01*
X89665238Y-97654819D02*
X89570000Y-97654819D01*
X89570000Y-97654819D02*
X89474762Y-97607200D01*
X89474762Y-97607200D02*
X89427143Y-97559580D01*
X89427143Y-97559580D02*
X89379524Y-97464342D01*
X89379524Y-97464342D02*
X89331905Y-97273866D01*
X89331905Y-97273866D02*
X89331905Y-97035771D01*
X89331905Y-97035771D02*
X89379524Y-96845295D01*
X89379524Y-96845295D02*
X89427143Y-96750057D01*
X89427143Y-96750057D02*
X89474762Y-96702438D01*
X89474762Y-96702438D02*
X89570000Y-96654819D01*
X90855714Y-97654819D02*
X90284286Y-97654819D01*
X90570000Y-97654819D02*
X90570000Y-96654819D01*
X90570000Y-96654819D02*
X90474762Y-96797676D01*
X90474762Y-96797676D02*
X90379524Y-96892914D01*
X90379524Y-96892914D02*
X90284286Y-96940533D01*
X107755952Y-108999819D02*
X107422619Y-108523628D01*
X107184524Y-108999819D02*
X107184524Y-107999819D01*
X107184524Y-107999819D02*
X107565476Y-107999819D01*
X107565476Y-107999819D02*
X107660714Y-108047438D01*
X107660714Y-108047438D02*
X107708333Y-108095057D01*
X107708333Y-108095057D02*
X107755952Y-108190295D01*
X107755952Y-108190295D02*
X107755952Y-108333152D01*
X107755952Y-108333152D02*
X107708333Y-108428390D01*
X107708333Y-108428390D02*
X107660714Y-108476009D01*
X107660714Y-108476009D02*
X107565476Y-108523628D01*
X107565476Y-108523628D02*
X107184524Y-108523628D01*
X108136905Y-108095057D02*
X108184524Y-108047438D01*
X108184524Y-108047438D02*
X108279762Y-107999819D01*
X108279762Y-107999819D02*
X108517857Y-107999819D01*
X108517857Y-107999819D02*
X108613095Y-108047438D01*
X108613095Y-108047438D02*
X108660714Y-108095057D01*
X108660714Y-108095057D02*
X108708333Y-108190295D01*
X108708333Y-108190295D02*
X108708333Y-108285533D01*
X108708333Y-108285533D02*
X108660714Y-108428390D01*
X108660714Y-108428390D02*
X108089286Y-108999819D01*
X108089286Y-108999819D02*
X108708333Y-108999819D01*
X109327381Y-107999819D02*
X109422619Y-107999819D01*
X109422619Y-107999819D02*
X109517857Y-108047438D01*
X109517857Y-108047438D02*
X109565476Y-108095057D01*
X109565476Y-108095057D02*
X109613095Y-108190295D01*
X109613095Y-108190295D02*
X109660714Y-108380771D01*
X109660714Y-108380771D02*
X109660714Y-108618866D01*
X109660714Y-108618866D02*
X109613095Y-108809342D01*
X109613095Y-108809342D02*
X109565476Y-108904580D01*
X109565476Y-108904580D02*
X109517857Y-108952200D01*
X109517857Y-108952200D02*
X109422619Y-108999819D01*
X109422619Y-108999819D02*
X109327381Y-108999819D01*
X109327381Y-108999819D02*
X109232143Y-108952200D01*
X109232143Y-108952200D02*
X109184524Y-108904580D01*
X109184524Y-108904580D02*
X109136905Y-108809342D01*
X109136905Y-108809342D02*
X109089286Y-108618866D01*
X109089286Y-108618866D02*
X109089286Y-108380771D01*
X109089286Y-108380771D02*
X109136905Y-108190295D01*
X109136905Y-108190295D02*
X109184524Y-108095057D01*
X109184524Y-108095057D02*
X109232143Y-108047438D01*
X109232143Y-108047438D02*
X109327381Y-107999819D01*
X110041667Y-108095057D02*
X110089286Y-108047438D01*
X110089286Y-108047438D02*
X110184524Y-107999819D01*
X110184524Y-107999819D02*
X110422619Y-107999819D01*
X110422619Y-107999819D02*
X110517857Y-108047438D01*
X110517857Y-108047438D02*
X110565476Y-108095057D01*
X110565476Y-108095057D02*
X110613095Y-108190295D01*
X110613095Y-108190295D02*
X110613095Y-108285533D01*
X110613095Y-108285533D02*
X110565476Y-108428390D01*
X110565476Y-108428390D02*
X109994048Y-108999819D01*
X109994048Y-108999819D02*
X110613095Y-108999819D01*
X74227319Y-86685714D02*
X74941604Y-86685714D01*
X74941604Y-86685714D02*
X75084461Y-86733333D01*
X75084461Y-86733333D02*
X75179700Y-86828571D01*
X75179700Y-86828571D02*
X75227319Y-86971428D01*
X75227319Y-86971428D02*
X75227319Y-87066666D01*
X74322557Y-86257142D02*
X74274938Y-86209523D01*
X74274938Y-86209523D02*
X74227319Y-86114285D01*
X74227319Y-86114285D02*
X74227319Y-85876190D01*
X74227319Y-85876190D02*
X74274938Y-85780952D01*
X74274938Y-85780952D02*
X74322557Y-85733333D01*
X74322557Y-85733333D02*
X74417795Y-85685714D01*
X74417795Y-85685714D02*
X74513033Y-85685714D01*
X74513033Y-85685714D02*
X74655890Y-85733333D01*
X74655890Y-85733333D02*
X75227319Y-86304761D01*
X75227319Y-86304761D02*
X75227319Y-85685714D01*
X74227319Y-85066666D02*
X74227319Y-84971428D01*
X74227319Y-84971428D02*
X74274938Y-84876190D01*
X74274938Y-84876190D02*
X74322557Y-84828571D01*
X74322557Y-84828571D02*
X74417795Y-84780952D01*
X74417795Y-84780952D02*
X74608271Y-84733333D01*
X74608271Y-84733333D02*
X74846366Y-84733333D01*
X74846366Y-84733333D02*
X75036842Y-84780952D01*
X75036842Y-84780952D02*
X75132080Y-84828571D01*
X75132080Y-84828571D02*
X75179700Y-84876190D01*
X75179700Y-84876190D02*
X75227319Y-84971428D01*
X75227319Y-84971428D02*
X75227319Y-85066666D01*
X75227319Y-85066666D02*
X75179700Y-85161904D01*
X75179700Y-85161904D02*
X75132080Y-85209523D01*
X75132080Y-85209523D02*
X75036842Y-85257142D01*
X75036842Y-85257142D02*
X74846366Y-85304761D01*
X74846366Y-85304761D02*
X74608271Y-85304761D01*
X74608271Y-85304761D02*
X74417795Y-85257142D01*
X74417795Y-85257142D02*
X74322557Y-85209523D01*
X74322557Y-85209523D02*
X74274938Y-85161904D01*
X74274938Y-85161904D02*
X74227319Y-85066666D01*
X75227319Y-83780952D02*
X75227319Y-84352380D01*
X75227319Y-84066666D02*
X74227319Y-84066666D01*
X74227319Y-84066666D02*
X74370176Y-84161904D01*
X74370176Y-84161904D02*
X74465414Y-84257142D01*
X74465414Y-84257142D02*
X74513033Y-84352380D01*
X107285952Y-102909580D02*
X107238333Y-102957200D01*
X107238333Y-102957200D02*
X107095476Y-103004819D01*
X107095476Y-103004819D02*
X107000238Y-103004819D01*
X107000238Y-103004819D02*
X106857381Y-102957200D01*
X106857381Y-102957200D02*
X106762143Y-102861961D01*
X106762143Y-102861961D02*
X106714524Y-102766723D01*
X106714524Y-102766723D02*
X106666905Y-102576247D01*
X106666905Y-102576247D02*
X106666905Y-102433390D01*
X106666905Y-102433390D02*
X106714524Y-102242914D01*
X106714524Y-102242914D02*
X106762143Y-102147676D01*
X106762143Y-102147676D02*
X106857381Y-102052438D01*
X106857381Y-102052438D02*
X107000238Y-102004819D01*
X107000238Y-102004819D02*
X107095476Y-102004819D01*
X107095476Y-102004819D02*
X107238333Y-102052438D01*
X107238333Y-102052438D02*
X107285952Y-102100057D01*
X107666905Y-102100057D02*
X107714524Y-102052438D01*
X107714524Y-102052438D02*
X107809762Y-102004819D01*
X107809762Y-102004819D02*
X108047857Y-102004819D01*
X108047857Y-102004819D02*
X108143095Y-102052438D01*
X108143095Y-102052438D02*
X108190714Y-102100057D01*
X108190714Y-102100057D02*
X108238333Y-102195295D01*
X108238333Y-102195295D02*
X108238333Y-102290533D01*
X108238333Y-102290533D02*
X108190714Y-102433390D01*
X108190714Y-102433390D02*
X107619286Y-103004819D01*
X107619286Y-103004819D02*
X108238333Y-103004819D01*
X108857381Y-102004819D02*
X108952619Y-102004819D01*
X108952619Y-102004819D02*
X109047857Y-102052438D01*
X109047857Y-102052438D02*
X109095476Y-102100057D01*
X109095476Y-102100057D02*
X109143095Y-102195295D01*
X109143095Y-102195295D02*
X109190714Y-102385771D01*
X109190714Y-102385771D02*
X109190714Y-102623866D01*
X109190714Y-102623866D02*
X109143095Y-102814342D01*
X109143095Y-102814342D02*
X109095476Y-102909580D01*
X109095476Y-102909580D02*
X109047857Y-102957200D01*
X109047857Y-102957200D02*
X108952619Y-103004819D01*
X108952619Y-103004819D02*
X108857381Y-103004819D01*
X108857381Y-103004819D02*
X108762143Y-102957200D01*
X108762143Y-102957200D02*
X108714524Y-102909580D01*
X108714524Y-102909580D02*
X108666905Y-102814342D01*
X108666905Y-102814342D02*
X108619286Y-102623866D01*
X108619286Y-102623866D02*
X108619286Y-102385771D01*
X108619286Y-102385771D02*
X108666905Y-102195295D01*
X108666905Y-102195295D02*
X108714524Y-102100057D01*
X108714524Y-102100057D02*
X108762143Y-102052438D01*
X108762143Y-102052438D02*
X108857381Y-102004819D01*
X110047857Y-102338152D02*
X110047857Y-103004819D01*
X109809762Y-101957200D02*
X109571667Y-102671485D01*
X109571667Y-102671485D02*
X110190714Y-102671485D01*
X170050714Y-93904819D02*
X170050714Y-94714342D01*
X170050714Y-94714342D02*
X170098333Y-94809580D01*
X170098333Y-94809580D02*
X170145952Y-94857200D01*
X170145952Y-94857200D02*
X170241190Y-94904819D01*
X170241190Y-94904819D02*
X170431666Y-94904819D01*
X170431666Y-94904819D02*
X170526904Y-94857200D01*
X170526904Y-94857200D02*
X170574523Y-94809580D01*
X170574523Y-94809580D02*
X170622142Y-94714342D01*
X170622142Y-94714342D02*
X170622142Y-93904819D01*
X171050714Y-94000057D02*
X171098333Y-93952438D01*
X171098333Y-93952438D02*
X171193571Y-93904819D01*
X171193571Y-93904819D02*
X171431666Y-93904819D01*
X171431666Y-93904819D02*
X171526904Y-93952438D01*
X171526904Y-93952438D02*
X171574523Y-94000057D01*
X171574523Y-94000057D02*
X171622142Y-94095295D01*
X171622142Y-94095295D02*
X171622142Y-94190533D01*
X171622142Y-94190533D02*
X171574523Y-94333390D01*
X171574523Y-94333390D02*
X171003095Y-94904819D01*
X171003095Y-94904819D02*
X171622142Y-94904819D01*
X172241190Y-93904819D02*
X172336428Y-93904819D01*
X172336428Y-93904819D02*
X172431666Y-93952438D01*
X172431666Y-93952438D02*
X172479285Y-94000057D01*
X172479285Y-94000057D02*
X172526904Y-94095295D01*
X172526904Y-94095295D02*
X172574523Y-94285771D01*
X172574523Y-94285771D02*
X172574523Y-94523866D01*
X172574523Y-94523866D02*
X172526904Y-94714342D01*
X172526904Y-94714342D02*
X172479285Y-94809580D01*
X172479285Y-94809580D02*
X172431666Y-94857200D01*
X172431666Y-94857200D02*
X172336428Y-94904819D01*
X172336428Y-94904819D02*
X172241190Y-94904819D01*
X172241190Y-94904819D02*
X172145952Y-94857200D01*
X172145952Y-94857200D02*
X172098333Y-94809580D01*
X172098333Y-94809580D02*
X172050714Y-94714342D01*
X172050714Y-94714342D02*
X172003095Y-94523866D01*
X172003095Y-94523866D02*
X172003095Y-94285771D01*
X172003095Y-94285771D02*
X172050714Y-94095295D01*
X172050714Y-94095295D02*
X172098333Y-94000057D01*
X172098333Y-94000057D02*
X172145952Y-93952438D01*
X172145952Y-93952438D02*
X172241190Y-93904819D01*
X172955476Y-94000057D02*
X173003095Y-93952438D01*
X173003095Y-93952438D02*
X173098333Y-93904819D01*
X173098333Y-93904819D02*
X173336428Y-93904819D01*
X173336428Y-93904819D02*
X173431666Y-93952438D01*
X173431666Y-93952438D02*
X173479285Y-94000057D01*
X173479285Y-94000057D02*
X173526904Y-94095295D01*
X173526904Y-94095295D02*
X173526904Y-94190533D01*
X173526904Y-94190533D02*
X173479285Y-94333390D01*
X173479285Y-94333390D02*
X172907857Y-94904819D01*
X172907857Y-94904819D02*
X173526904Y-94904819D01*
X95395952Y-109109580D02*
X95348333Y-109157200D01*
X95348333Y-109157200D02*
X95205476Y-109204819D01*
X95205476Y-109204819D02*
X95110238Y-109204819D01*
X95110238Y-109204819D02*
X94967381Y-109157200D01*
X94967381Y-109157200D02*
X94872143Y-109061961D01*
X94872143Y-109061961D02*
X94824524Y-108966723D01*
X94824524Y-108966723D02*
X94776905Y-108776247D01*
X94776905Y-108776247D02*
X94776905Y-108633390D01*
X94776905Y-108633390D02*
X94824524Y-108442914D01*
X94824524Y-108442914D02*
X94872143Y-108347676D01*
X94872143Y-108347676D02*
X94967381Y-108252438D01*
X94967381Y-108252438D02*
X95110238Y-108204819D01*
X95110238Y-108204819D02*
X95205476Y-108204819D01*
X95205476Y-108204819D02*
X95348333Y-108252438D01*
X95348333Y-108252438D02*
X95395952Y-108300057D01*
X95776905Y-108300057D02*
X95824524Y-108252438D01*
X95824524Y-108252438D02*
X95919762Y-108204819D01*
X95919762Y-108204819D02*
X96157857Y-108204819D01*
X96157857Y-108204819D02*
X96253095Y-108252438D01*
X96253095Y-108252438D02*
X96300714Y-108300057D01*
X96300714Y-108300057D02*
X96348333Y-108395295D01*
X96348333Y-108395295D02*
X96348333Y-108490533D01*
X96348333Y-108490533D02*
X96300714Y-108633390D01*
X96300714Y-108633390D02*
X95729286Y-109204819D01*
X95729286Y-109204819D02*
X96348333Y-109204819D01*
X96967381Y-108204819D02*
X97062619Y-108204819D01*
X97062619Y-108204819D02*
X97157857Y-108252438D01*
X97157857Y-108252438D02*
X97205476Y-108300057D01*
X97205476Y-108300057D02*
X97253095Y-108395295D01*
X97253095Y-108395295D02*
X97300714Y-108585771D01*
X97300714Y-108585771D02*
X97300714Y-108823866D01*
X97300714Y-108823866D02*
X97253095Y-109014342D01*
X97253095Y-109014342D02*
X97205476Y-109109580D01*
X97205476Y-109109580D02*
X97157857Y-109157200D01*
X97157857Y-109157200D02*
X97062619Y-109204819D01*
X97062619Y-109204819D02*
X96967381Y-109204819D01*
X96967381Y-109204819D02*
X96872143Y-109157200D01*
X96872143Y-109157200D02*
X96824524Y-109109580D01*
X96824524Y-109109580D02*
X96776905Y-109014342D01*
X96776905Y-109014342D02*
X96729286Y-108823866D01*
X96729286Y-108823866D02*
X96729286Y-108585771D01*
X96729286Y-108585771D02*
X96776905Y-108395295D01*
X96776905Y-108395295D02*
X96824524Y-108300057D01*
X96824524Y-108300057D02*
X96872143Y-108252438D01*
X96872143Y-108252438D02*
X96967381Y-108204819D01*
X98253095Y-109204819D02*
X97681667Y-109204819D01*
X97967381Y-109204819D02*
X97967381Y-108204819D01*
X97967381Y-108204819D02*
X97872143Y-108347676D01*
X97872143Y-108347676D02*
X97776905Y-108442914D01*
X97776905Y-108442914D02*
X97681667Y-108490533D01*
X74464286Y-97177200D02*
X74607143Y-97224819D01*
X74607143Y-97224819D02*
X74845238Y-97224819D01*
X74845238Y-97224819D02*
X74940476Y-97177200D01*
X74940476Y-97177200D02*
X74988095Y-97129580D01*
X74988095Y-97129580D02*
X75035714Y-97034342D01*
X75035714Y-97034342D02*
X75035714Y-96939104D01*
X75035714Y-96939104D02*
X74988095Y-96843866D01*
X74988095Y-96843866D02*
X74940476Y-96796247D01*
X74940476Y-96796247D02*
X74845238Y-96748628D01*
X74845238Y-96748628D02*
X74654762Y-96701009D01*
X74654762Y-96701009D02*
X74559524Y-96653390D01*
X74559524Y-96653390D02*
X74511905Y-96605771D01*
X74511905Y-96605771D02*
X74464286Y-96510533D01*
X74464286Y-96510533D02*
X74464286Y-96415295D01*
X74464286Y-96415295D02*
X74511905Y-96320057D01*
X74511905Y-96320057D02*
X74559524Y-96272438D01*
X74559524Y-96272438D02*
X74654762Y-96224819D01*
X74654762Y-96224819D02*
X74892857Y-96224819D01*
X74892857Y-96224819D02*
X75035714Y-96272438D01*
X75369048Y-96224819D02*
X75607143Y-97224819D01*
X75607143Y-97224819D02*
X75797619Y-96510533D01*
X75797619Y-96510533D02*
X75988095Y-97224819D01*
X75988095Y-97224819D02*
X76226191Y-96224819D01*
X76559524Y-96320057D02*
X76607143Y-96272438D01*
X76607143Y-96272438D02*
X76702381Y-96224819D01*
X76702381Y-96224819D02*
X76940476Y-96224819D01*
X76940476Y-96224819D02*
X77035714Y-96272438D01*
X77035714Y-96272438D02*
X77083333Y-96320057D01*
X77083333Y-96320057D02*
X77130952Y-96415295D01*
X77130952Y-96415295D02*
X77130952Y-96510533D01*
X77130952Y-96510533D02*
X77083333Y-96653390D01*
X77083333Y-96653390D02*
X76511905Y-97224819D01*
X76511905Y-97224819D02*
X77130952Y-97224819D01*
X77750000Y-96224819D02*
X77845238Y-96224819D01*
X77845238Y-96224819D02*
X77940476Y-96272438D01*
X77940476Y-96272438D02*
X77988095Y-96320057D01*
X77988095Y-96320057D02*
X78035714Y-96415295D01*
X78035714Y-96415295D02*
X78083333Y-96605771D01*
X78083333Y-96605771D02*
X78083333Y-96843866D01*
X78083333Y-96843866D02*
X78035714Y-97034342D01*
X78035714Y-97034342D02*
X77988095Y-97129580D01*
X77988095Y-97129580D02*
X77940476Y-97177200D01*
X77940476Y-97177200D02*
X77845238Y-97224819D01*
X77845238Y-97224819D02*
X77750000Y-97224819D01*
X77750000Y-97224819D02*
X77654762Y-97177200D01*
X77654762Y-97177200D02*
X77607143Y-97129580D01*
X77607143Y-97129580D02*
X77559524Y-97034342D01*
X77559524Y-97034342D02*
X77511905Y-96843866D01*
X77511905Y-96843866D02*
X77511905Y-96605771D01*
X77511905Y-96605771D02*
X77559524Y-96415295D01*
X77559524Y-96415295D02*
X77607143Y-96320057D01*
X77607143Y-96320057D02*
X77654762Y-96272438D01*
X77654762Y-96272438D02*
X77750000Y-96224819D01*
X78464286Y-96320057D02*
X78511905Y-96272438D01*
X78511905Y-96272438D02*
X78607143Y-96224819D01*
X78607143Y-96224819D02*
X78845238Y-96224819D01*
X78845238Y-96224819D02*
X78940476Y-96272438D01*
X78940476Y-96272438D02*
X78988095Y-96320057D01*
X78988095Y-96320057D02*
X79035714Y-96415295D01*
X79035714Y-96415295D02*
X79035714Y-96510533D01*
X79035714Y-96510533D02*
X78988095Y-96653390D01*
X78988095Y-96653390D02*
X78416667Y-97224819D01*
X78416667Y-97224819D02*
X79035714Y-97224819D01*
X120134286Y-109787200D02*
X120277143Y-109834819D01*
X120277143Y-109834819D02*
X120515238Y-109834819D01*
X120515238Y-109834819D02*
X120610476Y-109787200D01*
X120610476Y-109787200D02*
X120658095Y-109739580D01*
X120658095Y-109739580D02*
X120705714Y-109644342D01*
X120705714Y-109644342D02*
X120705714Y-109549104D01*
X120705714Y-109549104D02*
X120658095Y-109453866D01*
X120658095Y-109453866D02*
X120610476Y-109406247D01*
X120610476Y-109406247D02*
X120515238Y-109358628D01*
X120515238Y-109358628D02*
X120324762Y-109311009D01*
X120324762Y-109311009D02*
X120229524Y-109263390D01*
X120229524Y-109263390D02*
X120181905Y-109215771D01*
X120181905Y-109215771D02*
X120134286Y-109120533D01*
X120134286Y-109120533D02*
X120134286Y-109025295D01*
X120134286Y-109025295D02*
X120181905Y-108930057D01*
X120181905Y-108930057D02*
X120229524Y-108882438D01*
X120229524Y-108882438D02*
X120324762Y-108834819D01*
X120324762Y-108834819D02*
X120562857Y-108834819D01*
X120562857Y-108834819D02*
X120705714Y-108882438D01*
X121039048Y-108834819D02*
X121277143Y-109834819D01*
X121277143Y-109834819D02*
X121467619Y-109120533D01*
X121467619Y-109120533D02*
X121658095Y-109834819D01*
X121658095Y-109834819D02*
X121896191Y-108834819D01*
X122229524Y-108930057D02*
X122277143Y-108882438D01*
X122277143Y-108882438D02*
X122372381Y-108834819D01*
X122372381Y-108834819D02*
X122610476Y-108834819D01*
X122610476Y-108834819D02*
X122705714Y-108882438D01*
X122705714Y-108882438D02*
X122753333Y-108930057D01*
X122753333Y-108930057D02*
X122800952Y-109025295D01*
X122800952Y-109025295D02*
X122800952Y-109120533D01*
X122800952Y-109120533D02*
X122753333Y-109263390D01*
X122753333Y-109263390D02*
X122181905Y-109834819D01*
X122181905Y-109834819D02*
X122800952Y-109834819D01*
X123420000Y-108834819D02*
X123515238Y-108834819D01*
X123515238Y-108834819D02*
X123610476Y-108882438D01*
X123610476Y-108882438D02*
X123658095Y-108930057D01*
X123658095Y-108930057D02*
X123705714Y-109025295D01*
X123705714Y-109025295D02*
X123753333Y-109215771D01*
X123753333Y-109215771D02*
X123753333Y-109453866D01*
X123753333Y-109453866D02*
X123705714Y-109644342D01*
X123705714Y-109644342D02*
X123658095Y-109739580D01*
X123658095Y-109739580D02*
X123610476Y-109787200D01*
X123610476Y-109787200D02*
X123515238Y-109834819D01*
X123515238Y-109834819D02*
X123420000Y-109834819D01*
X123420000Y-109834819D02*
X123324762Y-109787200D01*
X123324762Y-109787200D02*
X123277143Y-109739580D01*
X123277143Y-109739580D02*
X123229524Y-109644342D01*
X123229524Y-109644342D02*
X123181905Y-109453866D01*
X123181905Y-109453866D02*
X123181905Y-109215771D01*
X123181905Y-109215771D02*
X123229524Y-109025295D01*
X123229524Y-109025295D02*
X123277143Y-108930057D01*
X123277143Y-108930057D02*
X123324762Y-108882438D01*
X123324762Y-108882438D02*
X123420000Y-108834819D01*
X124658095Y-108834819D02*
X124181905Y-108834819D01*
X124181905Y-108834819D02*
X124134286Y-109311009D01*
X124134286Y-109311009D02*
X124181905Y-109263390D01*
X124181905Y-109263390D02*
X124277143Y-109215771D01*
X124277143Y-109215771D02*
X124515238Y-109215771D01*
X124515238Y-109215771D02*
X124610476Y-109263390D01*
X124610476Y-109263390D02*
X124658095Y-109311009D01*
X124658095Y-109311009D02*
X124705714Y-109406247D01*
X124705714Y-109406247D02*
X124705714Y-109644342D01*
X124705714Y-109644342D02*
X124658095Y-109739580D01*
X124658095Y-109739580D02*
X124610476Y-109787200D01*
X124610476Y-109787200D02*
X124515238Y-109834819D01*
X124515238Y-109834819D02*
X124277143Y-109834819D01*
X124277143Y-109834819D02*
X124181905Y-109787200D01*
X124181905Y-109787200D02*
X124134286Y-109739580D01*
X100160952Y-108804819D02*
X99827619Y-108328628D01*
X99589524Y-108804819D02*
X99589524Y-107804819D01*
X99589524Y-107804819D02*
X99970476Y-107804819D01*
X99970476Y-107804819D02*
X100065714Y-107852438D01*
X100065714Y-107852438D02*
X100113333Y-107900057D01*
X100113333Y-107900057D02*
X100160952Y-107995295D01*
X100160952Y-107995295D02*
X100160952Y-108138152D01*
X100160952Y-108138152D02*
X100113333Y-108233390D01*
X100113333Y-108233390D02*
X100065714Y-108281009D01*
X100065714Y-108281009D02*
X99970476Y-108328628D01*
X99970476Y-108328628D02*
X99589524Y-108328628D01*
X100541905Y-107900057D02*
X100589524Y-107852438D01*
X100589524Y-107852438D02*
X100684762Y-107804819D01*
X100684762Y-107804819D02*
X100922857Y-107804819D01*
X100922857Y-107804819D02*
X101018095Y-107852438D01*
X101018095Y-107852438D02*
X101065714Y-107900057D01*
X101065714Y-107900057D02*
X101113333Y-107995295D01*
X101113333Y-107995295D02*
X101113333Y-108090533D01*
X101113333Y-108090533D02*
X101065714Y-108233390D01*
X101065714Y-108233390D02*
X100494286Y-108804819D01*
X100494286Y-108804819D02*
X101113333Y-108804819D01*
X101732381Y-107804819D02*
X101827619Y-107804819D01*
X101827619Y-107804819D02*
X101922857Y-107852438D01*
X101922857Y-107852438D02*
X101970476Y-107900057D01*
X101970476Y-107900057D02*
X102018095Y-107995295D01*
X102018095Y-107995295D02*
X102065714Y-108185771D01*
X102065714Y-108185771D02*
X102065714Y-108423866D01*
X102065714Y-108423866D02*
X102018095Y-108614342D01*
X102018095Y-108614342D02*
X101970476Y-108709580D01*
X101970476Y-108709580D02*
X101922857Y-108757200D01*
X101922857Y-108757200D02*
X101827619Y-108804819D01*
X101827619Y-108804819D02*
X101732381Y-108804819D01*
X101732381Y-108804819D02*
X101637143Y-108757200D01*
X101637143Y-108757200D02*
X101589524Y-108709580D01*
X101589524Y-108709580D02*
X101541905Y-108614342D01*
X101541905Y-108614342D02*
X101494286Y-108423866D01*
X101494286Y-108423866D02*
X101494286Y-108185771D01*
X101494286Y-108185771D02*
X101541905Y-107995295D01*
X101541905Y-107995295D02*
X101589524Y-107900057D01*
X101589524Y-107900057D02*
X101637143Y-107852438D01*
X101637143Y-107852438D02*
X101732381Y-107804819D01*
X103018095Y-108804819D02*
X102446667Y-108804819D01*
X102732381Y-108804819D02*
X102732381Y-107804819D01*
X102732381Y-107804819D02*
X102637143Y-107947676D01*
X102637143Y-107947676D02*
X102541905Y-108042914D01*
X102541905Y-108042914D02*
X102446667Y-108090533D01*
X85964286Y-109847200D02*
X86107143Y-109894819D01*
X86107143Y-109894819D02*
X86345238Y-109894819D01*
X86345238Y-109894819D02*
X86440476Y-109847200D01*
X86440476Y-109847200D02*
X86488095Y-109799580D01*
X86488095Y-109799580D02*
X86535714Y-109704342D01*
X86535714Y-109704342D02*
X86535714Y-109609104D01*
X86535714Y-109609104D02*
X86488095Y-109513866D01*
X86488095Y-109513866D02*
X86440476Y-109466247D01*
X86440476Y-109466247D02*
X86345238Y-109418628D01*
X86345238Y-109418628D02*
X86154762Y-109371009D01*
X86154762Y-109371009D02*
X86059524Y-109323390D01*
X86059524Y-109323390D02*
X86011905Y-109275771D01*
X86011905Y-109275771D02*
X85964286Y-109180533D01*
X85964286Y-109180533D02*
X85964286Y-109085295D01*
X85964286Y-109085295D02*
X86011905Y-108990057D01*
X86011905Y-108990057D02*
X86059524Y-108942438D01*
X86059524Y-108942438D02*
X86154762Y-108894819D01*
X86154762Y-108894819D02*
X86392857Y-108894819D01*
X86392857Y-108894819D02*
X86535714Y-108942438D01*
X86869048Y-108894819D02*
X87107143Y-109894819D01*
X87107143Y-109894819D02*
X87297619Y-109180533D01*
X87297619Y-109180533D02*
X87488095Y-109894819D01*
X87488095Y-109894819D02*
X87726191Y-108894819D01*
X88059524Y-108990057D02*
X88107143Y-108942438D01*
X88107143Y-108942438D02*
X88202381Y-108894819D01*
X88202381Y-108894819D02*
X88440476Y-108894819D01*
X88440476Y-108894819D02*
X88535714Y-108942438D01*
X88535714Y-108942438D02*
X88583333Y-108990057D01*
X88583333Y-108990057D02*
X88630952Y-109085295D01*
X88630952Y-109085295D02*
X88630952Y-109180533D01*
X88630952Y-109180533D02*
X88583333Y-109323390D01*
X88583333Y-109323390D02*
X88011905Y-109894819D01*
X88011905Y-109894819D02*
X88630952Y-109894819D01*
X89250000Y-108894819D02*
X89345238Y-108894819D01*
X89345238Y-108894819D02*
X89440476Y-108942438D01*
X89440476Y-108942438D02*
X89488095Y-108990057D01*
X89488095Y-108990057D02*
X89535714Y-109085295D01*
X89535714Y-109085295D02*
X89583333Y-109275771D01*
X89583333Y-109275771D02*
X89583333Y-109513866D01*
X89583333Y-109513866D02*
X89535714Y-109704342D01*
X89535714Y-109704342D02*
X89488095Y-109799580D01*
X89488095Y-109799580D02*
X89440476Y-109847200D01*
X89440476Y-109847200D02*
X89345238Y-109894819D01*
X89345238Y-109894819D02*
X89250000Y-109894819D01*
X89250000Y-109894819D02*
X89154762Y-109847200D01*
X89154762Y-109847200D02*
X89107143Y-109799580D01*
X89107143Y-109799580D02*
X89059524Y-109704342D01*
X89059524Y-109704342D02*
X89011905Y-109513866D01*
X89011905Y-109513866D02*
X89011905Y-109275771D01*
X89011905Y-109275771D02*
X89059524Y-109085295D01*
X89059524Y-109085295D02*
X89107143Y-108990057D01*
X89107143Y-108990057D02*
X89154762Y-108942438D01*
X89154762Y-108942438D02*
X89250000Y-108894819D01*
X90440476Y-109228152D02*
X90440476Y-109894819D01*
X90202381Y-108847200D02*
X89964286Y-109561485D01*
X89964286Y-109561485D02*
X90583333Y-109561485D01*
X101595952Y-105629580D02*
X101548333Y-105677200D01*
X101548333Y-105677200D02*
X101405476Y-105724819D01*
X101405476Y-105724819D02*
X101310238Y-105724819D01*
X101310238Y-105724819D02*
X101167381Y-105677200D01*
X101167381Y-105677200D02*
X101072143Y-105581961D01*
X101072143Y-105581961D02*
X101024524Y-105486723D01*
X101024524Y-105486723D02*
X100976905Y-105296247D01*
X100976905Y-105296247D02*
X100976905Y-105153390D01*
X100976905Y-105153390D02*
X101024524Y-104962914D01*
X101024524Y-104962914D02*
X101072143Y-104867676D01*
X101072143Y-104867676D02*
X101167381Y-104772438D01*
X101167381Y-104772438D02*
X101310238Y-104724819D01*
X101310238Y-104724819D02*
X101405476Y-104724819D01*
X101405476Y-104724819D02*
X101548333Y-104772438D01*
X101548333Y-104772438D02*
X101595952Y-104820057D01*
X101976905Y-104820057D02*
X102024524Y-104772438D01*
X102024524Y-104772438D02*
X102119762Y-104724819D01*
X102119762Y-104724819D02*
X102357857Y-104724819D01*
X102357857Y-104724819D02*
X102453095Y-104772438D01*
X102453095Y-104772438D02*
X102500714Y-104820057D01*
X102500714Y-104820057D02*
X102548333Y-104915295D01*
X102548333Y-104915295D02*
X102548333Y-105010533D01*
X102548333Y-105010533D02*
X102500714Y-105153390D01*
X102500714Y-105153390D02*
X101929286Y-105724819D01*
X101929286Y-105724819D02*
X102548333Y-105724819D01*
X103167381Y-104724819D02*
X103262619Y-104724819D01*
X103262619Y-104724819D02*
X103357857Y-104772438D01*
X103357857Y-104772438D02*
X103405476Y-104820057D01*
X103405476Y-104820057D02*
X103453095Y-104915295D01*
X103453095Y-104915295D02*
X103500714Y-105105771D01*
X103500714Y-105105771D02*
X103500714Y-105343866D01*
X103500714Y-105343866D02*
X103453095Y-105534342D01*
X103453095Y-105534342D02*
X103405476Y-105629580D01*
X103405476Y-105629580D02*
X103357857Y-105677200D01*
X103357857Y-105677200D02*
X103262619Y-105724819D01*
X103262619Y-105724819D02*
X103167381Y-105724819D01*
X103167381Y-105724819D02*
X103072143Y-105677200D01*
X103072143Y-105677200D02*
X103024524Y-105629580D01*
X103024524Y-105629580D02*
X102976905Y-105534342D01*
X102976905Y-105534342D02*
X102929286Y-105343866D01*
X102929286Y-105343866D02*
X102929286Y-105105771D01*
X102929286Y-105105771D02*
X102976905Y-104915295D01*
X102976905Y-104915295D02*
X103024524Y-104820057D01*
X103024524Y-104820057D02*
X103072143Y-104772438D01*
X103072143Y-104772438D02*
X103167381Y-104724819D01*
X103834048Y-104724819D02*
X104453095Y-104724819D01*
X104453095Y-104724819D02*
X104119762Y-105105771D01*
X104119762Y-105105771D02*
X104262619Y-105105771D01*
X104262619Y-105105771D02*
X104357857Y-105153390D01*
X104357857Y-105153390D02*
X104405476Y-105201009D01*
X104405476Y-105201009D02*
X104453095Y-105296247D01*
X104453095Y-105296247D02*
X104453095Y-105534342D01*
X104453095Y-105534342D02*
X104405476Y-105629580D01*
X104405476Y-105629580D02*
X104357857Y-105677200D01*
X104357857Y-105677200D02*
X104262619Y-105724819D01*
X104262619Y-105724819D02*
X103976905Y-105724819D01*
X103976905Y-105724819D02*
X103881667Y-105677200D01*
X103881667Y-105677200D02*
X103834048Y-105629580D01*
%TO.C,U201*%
D11*
X75800000Y-71300000D02*
X103000000Y-71300000D01*
X75800000Y-99100000D02*
X75800000Y-71300000D01*
X83050000Y-95350000D02*
X83050000Y-99100000D01*
X83050000Y-99100000D02*
X75800000Y-99100000D01*
X95900000Y-95350000D02*
X83050000Y-95350000D01*
X95900000Y-99100000D02*
X95900000Y-95350000D01*
X103000000Y-71300000D02*
X103000000Y-99100000D01*
X103000000Y-99100000D02*
X95900000Y-99100000D01*
D12*
X75830000Y-98340000D02*
G75*
G02*
X75770000Y-98340000I-30000J0D01*
G01*
X75770000Y-98340000D02*
G75*
G02*
X75830000Y-98340000I30000J0D01*
G01*
%TO.C,C202*%
D13*
X96388748Y-103825000D02*
X96911252Y-103825000D01*
X96388748Y-105295000D02*
X96911252Y-105295000D01*
%TO.C,SW203*%
D10*
X74610000Y-111690000D02*
X74610000Y-112120000D01*
X74610000Y-114770000D02*
X74610000Y-114340000D01*
X78670000Y-111690000D02*
X74610000Y-111690000D01*
X78670000Y-111690000D02*
X78670000Y-112120000D01*
X78670000Y-114340000D02*
X78670000Y-114770000D01*
X78670000Y-114770000D02*
X74610000Y-114770000D01*
D11*
X77540000Y-113230000D02*
G75*
G02*
X75740000Y-113230000I-900000J0D01*
G01*
X75740000Y-113230000D02*
G75*
G02*
X77540000Y-113230000I900000J0D01*
G01*
D12*
X79170000Y-111760000D02*
G75*
G02*
X79110000Y-111760000I-30000J0D01*
G01*
X79110000Y-111760000D02*
G75*
G02*
X79170000Y-111760000I30000J0D01*
G01*
%TO.C,SW201*%
D10*
X86540000Y-99660000D02*
X86540000Y-100090000D01*
X86540000Y-102740000D02*
X86540000Y-102310000D01*
X90600000Y-99660000D02*
X86540000Y-99660000D01*
X90600000Y-99660000D02*
X90600000Y-100090000D01*
X90600000Y-102310000D02*
X90600000Y-102740000D01*
X90600000Y-102740000D02*
X86540000Y-102740000D01*
D11*
X89470000Y-101200000D02*
G75*
G02*
X87670000Y-101200000I-900000J0D01*
G01*
X87670000Y-101200000D02*
G75*
G02*
X89470000Y-101200000I900000J0D01*
G01*
D12*
X91100000Y-99730000D02*
G75*
G02*
X91040000Y-99730000I-30000J0D01*
G01*
X91040000Y-99730000D02*
G75*
G02*
X91100000Y-99730000I30000J0D01*
G01*
%TO.C,R202*%
D13*
X108637742Y-109452500D02*
X109112258Y-109452500D01*
X108637742Y-110497500D02*
X109112258Y-110497500D01*
%TO.C,J201*%
D11*
X68432500Y-79150000D02*
X68432500Y-81150000D01*
X68432500Y-91650000D02*
X68432500Y-89650000D01*
X69682500Y-79150000D02*
X68432500Y-79150000D01*
X69682500Y-91650000D02*
X68432500Y-91650000D01*
X71802500Y-79200000D02*
X74192500Y-79200000D01*
X71802500Y-91600000D02*
X74042500Y-91600000D01*
X74192500Y-79200000D02*
X74192500Y-91600000D01*
D14*
X67332500Y-80650000D02*
G75*
G02*
X67032500Y-80650000I-150000J0D01*
G01*
X67032500Y-80650000D02*
G75*
G02*
X67332500Y-80650000I150000J0D01*
G01*
D15*
X67582500Y-79200000D02*
G75*
G02*
X67382500Y-79200000I-100000J0D01*
G01*
X67382500Y-79200000D02*
G75*
G02*
X67582500Y-79200000I100000J0D01*
G01*
%TO.C,C204*%
D13*
X108663748Y-103615000D02*
X109186252Y-103615000D01*
X108663748Y-105085000D02*
X109186252Y-105085000D01*
%TO.C,U202*%
D11*
X103000000Y-97540000D02*
X107720000Y-97540000D01*
X103000000Y-101300000D02*
X103000000Y-97540000D01*
X107720000Y-97540000D02*
X107720000Y-101300000D01*
X107720000Y-101300000D02*
X103000000Y-101300000D01*
D12*
X107760000Y-97540000D02*
G75*
G02*
X107700000Y-97540000I-30000J0D01*
G01*
X107700000Y-97540000D02*
G75*
G02*
X107760000Y-97540000I30000J0D01*
G01*
%TO.C,C201*%
D13*
X96374420Y-109670000D02*
X96655580Y-109670000D01*
X96374420Y-110690000D02*
X96655580Y-110690000D01*
%TO.C,SW202*%
D10*
X74720000Y-99230000D02*
X74720000Y-99660000D01*
X74720000Y-102310000D02*
X74720000Y-101880000D01*
X78780000Y-99230000D02*
X74720000Y-99230000D01*
X78780000Y-99230000D02*
X78780000Y-99660000D01*
X78780000Y-101880000D02*
X78780000Y-102310000D01*
X78780000Y-102310000D02*
X74720000Y-102310000D01*
D11*
X77650000Y-100770000D02*
G75*
G02*
X75850000Y-100770000I-900000J0D01*
G01*
X75850000Y-100770000D02*
G75*
G02*
X77650000Y-100770000I900000J0D01*
G01*
D12*
X79280000Y-99300000D02*
G75*
G02*
X79220000Y-99300000I-30000J0D01*
G01*
X79220000Y-99300000D02*
G75*
G02*
X79280000Y-99300000I30000J0D01*
G01*
%TO.C,SW205*%
D10*
X103070000Y-112380000D02*
X103070000Y-112810000D01*
X103070000Y-115460000D02*
X103070000Y-115030000D01*
X107130000Y-112380000D02*
X103070000Y-112380000D01*
X107130000Y-112380000D02*
X107130000Y-112810000D01*
X107130000Y-115030000D02*
X107130000Y-115460000D01*
X107130000Y-115460000D02*
X103070000Y-115460000D01*
D11*
X106000000Y-113920000D02*
G75*
G02*
X104200000Y-113920000I-900000J0D01*
G01*
X104200000Y-113920000D02*
G75*
G02*
X106000000Y-113920000I900000J0D01*
G01*
D12*
X107630000Y-112450000D02*
G75*
G02*
X107570000Y-112450000I-30000J0D01*
G01*
X107570000Y-112450000D02*
G75*
G02*
X107630000Y-112450000I30000J0D01*
G01*
%TO.C,R201*%
D13*
X101042742Y-109257500D02*
X101517258Y-109257500D01*
X101042742Y-110302500D02*
X101517258Y-110302500D01*
%TO.C,SW204*%
D10*
X86220000Y-111900000D02*
X86220000Y-112330000D01*
X86220000Y-114980000D02*
X86220000Y-114550000D01*
X90280000Y-111900000D02*
X86220000Y-111900000D01*
X90280000Y-111900000D02*
X90280000Y-112330000D01*
X90280000Y-114550000D02*
X90280000Y-114980000D01*
X90280000Y-114980000D02*
X86220000Y-114980000D01*
D11*
X89150000Y-113440000D02*
G75*
G02*
X87350000Y-113440000I-900000J0D01*
G01*
X87350000Y-113440000D02*
G75*
G02*
X89150000Y-113440000I900000J0D01*
G01*
D12*
X90780000Y-111970000D02*
G75*
G02*
X90720000Y-111970000I-30000J0D01*
G01*
X90720000Y-111970000D02*
G75*
G02*
X90780000Y-111970000I30000J0D01*
G01*
%TO.C,C203*%
D13*
X102574420Y-106190000D02*
X102855580Y-106190000D01*
X102574420Y-107210000D02*
X102855580Y-107210000D01*
%TD*%
M02*
