#VRML V2.0 utf8
# 3D model generated by easyeda2kicad.py (https://github.com/uPesy/easyeda2kicad.py)

Shape{
    appearance Appearance {
        material  Material 	{
            diffuseColor 0.2 0.4627450980392157 0.23137254901960785
            specularColor 0.01568627450980392 0.03137254901960784 0.01568627450980392
            ambientIntensity 0.5122
            transparency 0.0
            shininess 0.5
        }
    }
    geometry IndexedFaceSet {
        ccw TRUE
        solid FALSE
        coord DEF co Coordinate {
            point [
                -0.3116 0.1986 0.0039, -0.346 0.1986 0.0039, -0.346 0.3612 0.0039, -0.5571 -0.4154 0.0039, -0.6949 -0.4154 0.0039, -0.7589 -0.0302 0.0039, 0.2697 -0.4154 0.0039, 0.1319 -0.4154 0.0039, 0.0766 -0.0302 0.0039, -0.7589 -0.7402 0.0039, -0.8228 -0.7402 0.0039, -0.8228 -0.686 0.0039, 0.0766 -0.7402 0.0039, -0.0443 -0.7402 0.0039, -0.0443 -0.686 0.0039, -0.0977 -0.0302 0.0039, -0.0443 -0.0302 0.0039, -0.1437 -0.4154 0.0039, -0.1404 -0.0302 0.0039, -0.1404 -0.686 0.0039, -0.2351 -0.0302 0.0039, -0.2351 -0.4154 0.0039, -0.2815 -0.4154 0.0039, -0.3116 -0.0302 0.0039, -0.3116 -0.686 0.0039, -0.2815 -0.6319 0.0039, -0.2351 -0.686 0.0039, -0.2351 -0.6319 0.0039, -0.1437 -0.6319 0.0039, -0.2351 0.4154 0.0039, -0.1437 0.4154 0.0039, -0.1404 0.3612 0.0039, -0.1404 0.7402 0.0039, -0.1437 0.6319 0.0039, -0.2351 0.7402 0.0039, -0.2351 0.6319 0.0039, -0.3116 0.7402 0.0039, 1.0354 -0.0302 0.0039, 0.9213 -0.0 0.0039, 1.0354 0.1986 0.0039, 0.9154 0.0599 0.0039, 0.8979 0.1175 0.0039, 0.5453 -0.4154 0.0039, 0.5453 -0.6319 0.0039, 0.4262 -0.686 0.0039, 0.6831 -0.6319 0.0039, 0.6831 -0.4154 0.0039, 1.0354 -0.686 0.0039, 0.8979 -0.1175 0.0039, 0.9154 -0.0599 0.0039, 0.9183 -0.0302 0.0039, 0.4967 -0.2837 0.0039, 0.5543 -0.3012 0.0039, 0.6142 -0.3071 0.0039, 0.6741 -0.3012 0.0039, 0.7317 -0.2837 0.0039, 0.7848 -0.2553 0.0039, 0.8313 -0.2171 0.0039, 0.8695 -0.1706 0.0039, 0.2884 -0.686 0.0039, 0.397 -0.2171 0.0039, 0.4262 -0.2411 0.0039, 0.4436 -0.2553 0.0039, 0.313 -0.0599 0.0039, 0.3305 -0.1175 0.0039, 0.3588 -0.1706 0.0039, 0.3588 0.1706 0.0039, 0.3305 0.1175 0.0039, 0.2884 0.1986 0.0039, 0.313 0.0599 0.0039, 0.2884 -0.0302 0.0039, 0.3071 -0.0 0.0039, 0.3101 -0.0302 0.0039, 0.8695 0.1706 0.0039, 0.8465 0.1986 0.0039, 1.0354 0.3612 0.0039, 0.8313 0.2171 0.0039, 0.7848 0.2553 0.0039, 0.7317 0.2837 0.0039, 0.6741 0.3012 0.0039, 0.6142 0.3071 0.0039, 0.4967 0.2837 0.0039, 0.4262 0.3612 0.0039, 0.5543 0.3012 0.0039, 0.4436 0.2553 0.0039, 0.4262 0.2411 0.0039, 0.2884 0.3612 0.0039, 0.397 0.2171 0.0039, 0.3818 0.1986 0.0039, -0.3193 -0.017 0.0039, -0.3116 -0.0215 0.0039, -0.307 -0.0241 0.0039, -0.2934 -0.0282 0.0039, -0.28 0.0886 0.0039, -0.297 0.0868 0.0039, -0.2788 -0.0295 0.0039, -0.2467 0.0886 0.0039, -0.3238 0.0732 0.0039, -0.3322 0.064 0.0039, -0.3109 0.082 0.0039, -0.3116 0.0815 0.0039, -0.3237 0.0733 0.0039, -0.3417 0.0311 0.0039, -0.3401 0.0153 0.0039, -0.346 -0.0302 0.0039, -0.3358 0.0029 0.0039, -0.329 -0.0077 0.0039, -0.3377 0.0538 0.0039, -0.3409 0.0422 0.0039, -0.1095 0.0771 0.0039, -0.0979 0.0758 0.0039, -0.1351 -0.0116 0.0039, -0.1372 -0.0234 0.0039, -0.1372 -0.0104 0.0039, -0.1404 0.1986 0.0039, -0.1239 0.0752 0.0039, -0.1372 0.0696 0.0039, -0.1372 0.0854 0.0039, -0.0901 -0.0294 0.0039, -0.0787 -0.0255 0.0039, -0.0692 -0.0194 0.0039, -0.0625 0.0686 0.0039, -0.0731 0.0788 0.0039, -0.0443 0.1986 0.0039, -0.0844 0.0853 0.0039, -0.0493 0.0274 0.0039, -0.051 0.0441 0.0039, -0.0556 0.0575 0.0039, -0.0891 0.0726 0.0039, -0.0809 0.0671 0.0039, -0.0737 0.0593 0.0039, -0.0652 0.0283 0.0039, -0.0664 0.0155 0.0039, -0.0696 0.0054 0.0039, -0.0959 -0.0167 0.0039, -0.1069 -0.018 0.0039, -0.0872 -0.0135 0.0039, -0.08 -0.0087 0.0039, -0.0745 -0.0028 0.0039, -0.1225 -0.0162 0.0039, -0.0603 -0.0101 0.0039, -0.054 0.0012 0.0039, -0.0505 0.0137 0.0039, -0.0689 0.0502 0.0039, -0.0657 0.0375 0.0039, -0.0975 0.0891 0.0039, -0.1094 0.0901 0.0039, -0.1235 0.0891 0.0039, -0.1246 -0.0285 0.0039, -0.1127 -0.0302 0.0039, -0.1079 -0.0309 0.0039, -0.1047 -0.0309 0.0039, 0.0766 -0.686 0.0039, 0.2884 -0.7402 0.0039, 0.4262 -0.7402 0.0039, 1.0354 -0.7402 0.0039, -0.1404 -0.7402 0.0039, -0.2351 -0.7402 0.0039, -0.7589 -0.686 0.0039, -0.507 -0.7402 0.0039, -0.507 -0.686 0.0039, -0.346 -0.7402 0.0039, 0.1319 -0.6319 0.0039, 0.2697 -0.6319 0.0039, -0.3116 -0.7402 0.0039, -0.346 -0.686 0.0039, -0.507 -0.0302 0.0039, -0.6949 -0.6319 0.0039, -0.5571 -0.6319 0.0039, -0.0392 -0.0165 0.0039, -0.0392 -0.0295 0.0039, 0.0213 -0.0295 0.0039, 0.0766 0.1986 0.0039, 0.0213 0.0886 0.0039, 0.0054 0.0886 0.0039, 0.0054 -0.0165 0.0039, -0.1602 0.0886 0.0039, -0.2207 0.0886 0.0039, -0.2351 0.1986 0.0039, -0.2207 0.0757 0.0039, -0.2236 -0.0165 0.0039, -0.1761 0.0238 0.0039, -0.1761 -0.0165 0.0039, -0.2178 0.0238 0.0039, -0.2178 0.0368 0.0039, -0.1761 0.0368 0.0039, -0.1761 0.0757 0.0039, -0.3676 -0.0295 0.0039, -0.3504 -0.0295 0.0039, -0.395 0.0886 0.0039, -0.4277 0.0037 0.0039, -0.3789 0.0037 0.0039, -0.4397 -0.0295 0.0039, -0.507 0.1986 0.0039, -0.4109 0.0886 0.0039, -0.4569 -0.0295 0.0039, -0.0443 0.3612 0.0039, 0.0766 0.3612 0.0039, -0.2351 0.3612 0.0039, -0.2815 0.4154 0.0039, -0.2236 -0.0295 0.0039, -0.1602 -0.0295 0.0039, -0.3116 0.3612 0.0039, -0.2815 0.6319 0.0039, -0.507 0.7402 0.0039, -0.507 0.3612 0.0039, -0.7589 0.1986 0.0039, -0.7589 0.3612 0.0039, 0.5453 0.6319 0.0039, 0.5453 0.4154 0.0039, 0.6831 0.4154 0.0039, 1.0354 0.7402 0.0039, 0.6831 0.6319 0.0039, 0.4262 0.7402 0.0039, 0.0766 0.7402 0.0039, 0.2884 0.7402 0.0039, 0.2697 0.6319 0.0039, 0.1319 0.6319 0.0039, 0.1319 0.4154 0.0039, 0.2697 0.4154 0.0039, -0.0443 0.7402 0.0039, -0.346 0.7402 0.0039, -0.2467 -0.0295 0.0039, -0.5571 0.4154 0.0039, -0.6949 0.4154 0.0039, -0.6949 0.6319 0.0039, -0.7589 0.7402 0.0039, -0.5571 0.6319 0.0039, -0.8228 -0.0302 0.0039, -0.8228 0.1986 0.0039, -0.8228 0.3612 0.0039, -0.8228 0.7402 0.0039
            ]
        }
        coordIndex [
            0,1,2,-1,3,4,5,-1,6,7,8,-1,9,10,11,-1,12,13,14,-1,15,16,14,-1,17,18,19,-1,18,17,20,-1,21,22,23,-1,24,25,26,-1,26,25,27,-1,26,27,19,-1,19,27,28,-1,19,28,17,-1,29,30,31,-1,32,33,34,-1,34,33,35,-1,34,35,36,-1,37,38,39,-1,39,38,40,-1,39,40,41,-1,42,43,44,-1,44,43,45,-1,46,37,45,-1,45,37,47,-1,45,47,44,-1,48,49,37,-1,37,49,50,-1,37,50,38,-1,51,52,42,-1,42,52,53,-1,42,53,46,-1,46,53,54,-1,46,54,55,-1,55,56,46,-1,46,56,57,-1,46,57,37,-1,37,57,58,-1,37,58,48,-1,59,60,44,-1,44,60,61,-1,44,61,42,-1,42,61,62,-1,42,62,51,-1,63,64,59,-1,59,64,65,-1,59,65,60,-1,66,67,68,-1,68,67,69,-1,68,69,70,-1,70,69,71,-1,70,71,72,-1,41,73,39,-1,39,73,74,-1,39,74,75,-1,75,74,76,-1,75,76,77,-1,77,78,75,-1,75,78,79,-1,75,79,80,-1,81,82,83,-1,83,82,80,-1,81,84,82,-1,82,84,85,-1,82,85,86,-1,86,85,87,-1,86,87,68,-1,68,87,88,-1,68,88,66,-1,89,90,23,-1,23,90,91,-1,23,91,92,-1,93,94,0,-1,92,95,23,-1,23,95,20,-1,23,20,21,-1,21,20,17,-1,93,0,96,-1,97,98,1,-1,94,99,0,-1,0,99,100,-1,0,100,1,-1,1,100,101,-1,1,101,97,-1,102,103,104,-1,104,103,105,-1,104,105,106,-1,98,107,1,-1,1,107,108,-1,1,108,102,-1,109,110,111,-1,112,18,113,-1,113,18,114,-1,109,111,115,-1,115,111,113,-1,115,113,116,-1,116,113,114,-1,116,114,117,-1,15,118,16,-1,16,118,119,-1,16,119,120,-1,121,122,123,-1,123,122,124,-1,125,126,123,-1,123,126,127,-1,123,127,121,-1,110,128,111,-1,111,128,129,-1,111,129,130,-1,131,132,111,-1,111,132,133,-1,134,135,136,-1,136,135,137,-1,133,138,111,-1,111,138,137,-1,111,137,139,-1,139,137,135,-1,120,140,16,-1,16,140,141,-1,16,141,142,-1,130,143,111,-1,111,143,144,-1,111,144,131,-1,145,146,114,-1,114,146,147,-1,114,147,117,-1,112,148,18,-1,18,148,149,-1,18,149,19,-1,19,149,150,-1,19,150,14,-1,14,150,151,-1,14,151,15,-1,12,152,153,-1,153,152,59,-1,153,59,154,-1,154,59,44,-1,154,44,155,-1,155,44,47,-1,14,13,19,-1,19,13,156,-1,19,156,26,-1,26,156,157,-1,26,157,24,-1,9,158,159,-1,159,158,160,-1,159,160,161,-1,72,63,70,-1,70,63,59,-1,70,59,6,-1,8,7,152,-1,152,7,162,-1,152,162,59,-1,59,162,163,-1,59,163,6,-1,106,89,104,-1,104,89,23,-1,104,23,24,-1,24,23,22,-1,24,22,25,-1,164,161,165,-1,165,161,160,-1,165,160,166,-1,166,160,3,-1,5,4,158,-1,158,4,167,-1,158,167,160,-1,160,167,168,-1,160,168,3,-1,169,170,16,-1,16,170,171,-1,12,14,152,-1,152,14,16,-1,152,16,8,-1,8,16,171,-1,8,171,172,-1,173,174,123,-1,142,125,16,-1,16,125,123,-1,16,123,169,-1,169,123,174,-1,169,174,175,-1,176,177,178,-1,177,179,178,-1,178,179,180,-1,178,180,20,-1,181,182,183,-1,183,182,180,-1,183,180,184,-1,184,180,179,-1,184,179,185,-1,185,179,186,-1,187,188,104,-1,102,104,1,-1,1,104,188,-1,1,188,189,-1,190,191,192,-1,192,191,187,-1,192,187,166,-1,166,187,104,-1,166,104,165,-1,165,104,24,-1,165,24,164,-1,164,24,157,-1,193,194,166,-1,166,194,195,-1,166,195,192,-1,196,197,172,-1,171,173,172,-1,172,173,123,-1,172,123,196,-1,196,123,31,-1,124,145,123,-1,123,145,114,-1,123,114,31,-1,31,114,198,-1,31,198,29,-1,29,198,199,-1,180,200,20,-1,20,200,201,-1,20,201,18,-1,18,201,176,-1,18,176,114,-1,114,176,178,-1,114,178,198,-1,198,178,202,-1,198,202,199,-1,199,202,203,-1,204,2,205,-1,205,2,1,-1,205,1,193,-1,193,1,189,-1,193,189,194,-1,3,5,166,-1,166,5,206,-1,166,206,193,-1,193,206,207,-1,193,207,205,-1,208,209,82,-1,82,209,210,-1,80,82,75,-1,75,82,210,-1,75,210,211,-1,211,210,212,-1,211,212,213,-1,214,215,216,-1,217,218,197,-1,6,8,70,-1,70,8,172,-1,70,172,68,-1,68,172,197,-1,68,197,86,-1,86,197,218,-1,86,218,219,-1,212,208,213,-1,213,208,82,-1,213,82,215,-1,215,82,86,-1,215,86,216,-1,216,86,219,-1,30,33,31,-1,31,33,32,-1,31,32,196,-1,196,32,220,-1,196,220,197,-1,197,220,214,-1,197,214,217,-1,217,214,216,-1,35,203,36,-1,36,203,202,-1,36,202,221,-1,95,222,20,-1,20,222,96,-1,20,96,178,-1,178,96,0,-1,178,0,202,-1,202,0,2,-1,202,2,221,-1,221,2,204,-1,223,205,224,-1,224,205,207,-1,224,207,225,-1,225,207,226,-1,225,226,227,-1,227,226,204,-1,227,204,223,-1,223,204,205,-1,9,11,158,-1,158,11,228,-1,158,228,5,-1,5,228,229,-1,5,229,206,-1,206,229,230,-1,206,230,207,-1,207,230,231,-1,207,231,226,-1,
        ]
    }
}
Shape{
    appearance Appearance {
        material  Material 	{
            diffuseColor 0.6666666666666666 0.6980392156862745 0.7686274509803922
            specularColor 0.3333333333333333 0.34901960784313724 0.3843137254901961
            ambientIntensity 0.6967
            transparency 0.0
            shininess 0.5
        }
    }
    geometry IndexedFaceSet {
        ccw TRUE
        solid FALSE
        coord DEF co Coordinate {
            point [
                0.8937 -0.3228 0.1378, 0.8909 -0.3621 0.1378, 0.9134 -0.6142 0.1378, 0.8825 -0.4005 0.1378, 0.8937 0.3228 0.1378, 0.9134 0.6142 0.1378, 0.8909 0.3621 0.1378, 0.8688 -0.4373 0.1378, 0.85 -0.4718 0.1378, 0.8264 -0.5033 0.1378, 0.7986 -0.5311 0.1378, 0.7671 -0.5547 0.1378, 0.9094 -0.6181 0.1378, 0.7326 -0.5735 0.1378, 0.6958 -0.5873 0.1378, -0.4447 -0.5956 0.1378, -0.4832 -0.5873 0.1378, -0.6968 -0.6181 0.1378, -0.52 -0.5735 0.1378, -0.7008 -0.6142 0.1378, -0.6138 -0.5033 0.1378, -0.6374 -0.4718 0.1378, -0.6996 -0.617 0.1378, -0.6988 -0.6176 0.1378, -0.586 -0.5311 0.1378, -0.6562 -0.4373 0.1378, -0.6699 -0.4005 0.1378, -0.6783 -0.3621 0.1378, 0.9114 -0.6176 0.1378, 0.9122 -0.617 0.1378, -0.7003 -0.6161 0.1378, -0.5545 -0.5547 0.1378, -0.6979 -0.618 0.1378, -0.6699 0.4005 0.1378, -0.6562 0.4373 0.1378, -0.7008 0.6142 0.1378, -0.5545 0.5547 0.1378, -0.52 0.5735 0.1378, -0.6968 0.6181 0.1378, -0.4832 0.5873 0.1378, -0.4447 0.5956 0.1378, 0.9094 0.6181 0.1378, 0.6958 0.5873 0.1378, 0.7326 0.5735 0.1378, 0.85 0.4718 0.1378, 0.8688 0.4373 0.1378, 0.8825 0.4005 0.1378, 0.9105 -0.618 0.1378, 0.9129 -0.6161 0.1378, 0.9133 -0.6152 0.1378, -0.7007 -0.6152 0.1378, 0.6573 -0.5956 0.1378, 0.6181 -0.5984 0.1378, -0.4055 -0.5984 0.1378, -0.6811 -0.3228 0.1378, -0.6811 0.3228 0.1378, -0.6783 0.3621 0.1378, -0.6988 0.6176 0.1378, -0.6996 0.617 0.1378, -0.586 0.5311 0.1378, -0.6374 0.4718 0.1378, -0.6138 0.5033 0.1378, -0.7007 0.6152 0.1378, -0.7003 0.6161 0.1378, -0.4055 0.5984 0.1378, 0.6181 0.5984 0.1378, 0.6573 0.5956 0.1378, 0.9129 0.6161 0.1378, 0.9122 0.617 0.1378, 0.8264 0.5033 0.1378, -0.6979 0.618 0.1378, 0.9133 0.6152 0.1378, 0.7671 0.5547 0.1378, 0.7986 0.5311 0.1378, 0.9105 0.618 0.1378, 0.9114 0.6176 0.1378
            ]
        }
        coordIndex [
            0,1,2,-1,2,1,3,-1,0,2,4,-1,4,2,5,-1,4,5,6,-1,3,7,2,-1,2,7,8,-1,2,8,9,-1,10,11,12,-1,12,11,13,-1,12,13,14,-1,15,16,17,-1,17,16,18,-1,19,20,21,-1,22,23,24,-1,21,25,19,-1,19,25,26,-1,19,26,27,-1,28,29,9,-1,22,24,30,-1,18,31,17,-1,17,31,24,-1,17,24,32,-1,32,24,23,-1,33,34,35,-1,36,37,38,-1,38,37,39,-1,38,39,40,-1,41,42,43,-1,44,45,5,-1,5,45,46,-1,5,46,6,-1,10,12,9,-1,9,12,47,-1,9,47,28,-1,29,48,9,-1,9,48,49,-1,9,49,2,-1,20,19,24,-1,24,19,50,-1,24,50,30,-1,14,51,12,-1,12,51,52,-1,12,52,17,-1,17,52,53,-1,17,53,15,-1,27,54,19,-1,19,54,55,-1,19,55,35,-1,35,55,56,-1,35,56,33,-1,57,58,59,-1,34,60,35,-1,35,60,61,-1,35,61,62,-1,62,61,59,-1,62,59,63,-1,63,59,58,-1,40,64,38,-1,38,64,65,-1,38,65,41,-1,41,65,66,-1,41,66,42,-1,67,68,69,-1,36,38,59,-1,59,38,70,-1,59,70,57,-1,44,5,69,-1,69,5,71,-1,69,71,67,-1,43,72,41,-1,41,72,73,-1,41,73,74,-1,74,73,69,-1,74,69,75,-1,75,69,68,-1,
        ]
    }
}
Shape{
    appearance Appearance {
        material  Material 	{
            diffuseColor 0.2 0.4627450980392157 0.23137254901960785
            specularColor 0.01568627450980392 0.03137254901960784 0.01568627450980392
            ambientIntensity 0.5122
            transparency 0.0
            shininess 0.5
        }
    }
    geometry IndexedFaceSet {
        ccw TRUE
        solid FALSE
        coord DEF co Coordinate {
            point [
                1.0354 0.3612 0.0039, 1.0354 0.7402 0.0039, 1.0354 0.7402 0.0984, 1.0354 -0.7402 0.0039, 1.0354 -0.686 0.0039, 1.0354 -0.7402 0.0984, 1.0354 -0.0302 0.0039, 1.0354 0.1986 0.0039, 0.4262 0.7402 0.0039, 0.2884 0.7402 0.0039, 0.0766 0.7402 0.0039, -0.8228 0.7402 0.0984, -0.0443 0.7402 0.0039, -0.1404 0.7402 0.0039, -0.2351 0.7402 0.0039, -0.3116 0.7402 0.0039, -0.346 0.7402 0.0039, -0.507 0.7402 0.0039, -0.7589 0.7402 0.0039, -0.8228 0.7402 0.0039, -0.8228 0.3612 0.0039, -0.8228 0.1986 0.0039, -0.8228 -0.0302 0.0039, -0.8228 -0.7402 0.0984, -0.8228 -0.686 0.0039, -0.8228 -0.7402 0.0039, 0.4262 -0.7402 0.0039, -0.7589 -0.7402 0.0039, -0.507 -0.7402 0.0039, -0.346 -0.7402 0.0039, -0.3116 -0.7402 0.0039, -0.2351 -0.7402 0.0039, -0.1404 -0.7402 0.0039, -0.0443 -0.7402 0.0039, 0.0766 -0.7402 0.0039, 0.2884 -0.7402 0.0039, 0.9133 -0.6152 0.0984, 0.9129 -0.6161 0.0984, 0.9122 -0.617 0.0984, 0.9114 -0.6176 0.0984, -0.6979 -0.618 0.0984, -0.6988 -0.6176 0.0984, -0.6996 -0.617 0.0984, -0.7003 -0.6161 0.0984, -0.7007 0.6152 0.0984, -0.7003 0.6161 0.0984, -0.6996 0.617 0.0984, -0.6988 0.6176 0.0984, 0.9105 0.618 0.0984, 0.9114 0.6176 0.0984, 0.9122 0.617 0.0984, 0.9129 0.6161 0.0984, 0.9133 0.6152 0.0984, 0.9134 0.6142 0.0984, 0.9134 -0.6142 0.0984, 0.9105 -0.618 0.0984, 0.9094 -0.6181 0.0984, -0.6968 -0.6181 0.0984, -0.7007 -0.6152 0.0984, -0.7008 -0.6142 0.0984, -0.7008 0.6142 0.0984, -0.6979 0.618 0.0984, -0.6968 0.6181 0.0984, 0.9094 0.6181 0.0984
            ]
        }
        coordIndex [
            0,1,2,-1,3,4,5,-1,5,4,6,-1,5,6,2,-1,2,6,7,-1,2,7,0,-1,2,1,8,-1,8,9,2,-1,2,9,10,-1,2,10,11,-1,11,10,12,-1,11,12,13,-1,13,14,11,-1,11,14,15,-1,11,15,16,-1,16,17,11,-1,11,17,18,-1,11,18,19,-1,11,19,20,-1,20,21,11,-1,11,21,22,-1,11,22,23,-1,23,22,24,-1,23,24,25,-1,26,3,5,-1,25,27,23,-1,23,27,28,-1,23,28,29,-1,29,30,23,-1,23,30,31,-1,23,31,32,-1,32,33,23,-1,23,33,34,-1,23,34,5,-1,5,34,35,-1,5,35,26,-1,36,37,5,-1,5,37,38,-1,5,38,39,-1,40,41,23,-1,23,41,42,-1,23,42,43,-1,44,45,11,-1,11,45,46,-1,11,46,47,-1,48,49,2,-1,2,49,50,-1,2,50,51,-1,51,52,2,-1,2,52,53,-1,2,53,5,-1,5,53,54,-1,5,54,36,-1,39,55,5,-1,5,55,56,-1,5,56,23,-1,23,56,57,-1,23,57,40,-1,43,58,23,-1,23,58,59,-1,23,59,11,-1,11,59,60,-1,11,60,44,-1,47,61,11,-1,11,61,62,-1,11,62,2,-1,2,62,63,-1,2,63,48,-1,
        ]
    }
}
Shape{
    appearance Appearance {
        material  Material 	{
            diffuseColor 0.6666666666666666 0.6980392156862745 0.7686274509803922
            specularColor 0.3333333333333333 0.34901960784313724 0.3843137254901961
            ambientIntensity 0.6967
            transparency 0.0
            shininess 0.5
        }
    }
    geometry IndexedFaceSet {
        ccw TRUE
        solid FALSE
        coord DEF co Coordinate {
            point [
                0.9134 0.6142 0.1378, 0.9134 0.6142 0.0984, 0.9133 0.6152 0.0984, 0.9133 0.6152 0.1378, 0.9129 0.6161 0.0984, 0.9129 0.6161 0.1378, 0.9122 0.617 0.0984, 0.9122 0.617 0.1378, 0.9114 0.6176 0.0984, 0.9114 0.6176 0.1378, 0.9105 0.618 0.0984, 0.9105 0.618 0.1378, 0.9094 0.6181 0.0984, 0.9094 0.6181 0.1378, -0.6968 0.6181 0.1378, -0.6968 0.6181 0.0984, -0.6979 0.618 0.0984, -0.6979 0.618 0.1378, -0.6988 0.6176 0.0984, -0.6988 0.6176 0.1378, -0.6996 0.617 0.0984, -0.6996 0.617 0.1378, -0.7003 0.6161 0.0984, -0.7003 0.6161 0.1378, -0.7007 0.6152 0.0984, -0.7007 0.6152 0.1378, -0.7008 0.6142 0.0984, -0.7008 0.6142 0.1378, -0.7008 -0.6142 0.1378, -0.7008 -0.6142 0.0984, -0.7007 -0.6152 0.0984, -0.7007 -0.6152 0.1378, -0.7003 -0.6161 0.0984, -0.7003 -0.6161 0.1378, -0.6996 -0.617 0.0984, -0.6996 -0.617 0.1378, -0.6988 -0.6176 0.0984, -0.6988 -0.6176 0.1378, -0.6979 -0.618 0.0984, -0.6979 -0.618 0.1378, -0.6968 -0.6181 0.0984, -0.6968 -0.6181 0.1378, 0.9094 -0.6181 0.1378, 0.9094 -0.6181 0.0984, 0.9105 -0.618 0.0984, 0.9105 -0.618 0.1378, 0.9114 -0.6176 0.0984, 0.9114 -0.6176 0.1378, 0.9122 -0.617 0.0984, 0.9122 -0.617 0.1378, 0.9129 -0.6161 0.0984, 0.9129 -0.6161 0.1378, 0.9133 -0.6152 0.0984, 0.9133 -0.6152 0.1378, 0.9134 -0.6142 0.0984, 0.9134 -0.6142 0.1378, 0.8428 0.3958 0.189, 0.833 0.421 0.1772, 0.8306 0.4252 0.189, 0.8307 0.4252 0.1772, 0.8286 0.4301 0.189, 0.8543 0.3228 0.189, 0.8543 0.3228 0.1772, 0.8514 0.3598 0.189, 0.8519 0.3565 0.1772, 0.8477 0.3752 0.189, 0.8478 0.3753 0.1772, 0.8448 0.3894 0.1772, 0.8024 0.4698 0.1772, 0.8023 0.4697 0.189, 0.8092 0.4617 0.189, 0.8168 0.4505 0.1772, 0.7851 0.4899 0.189, 0.7966 0.4775 0.1772, 0.765 0.5071 0.189, 0.7728 0.5014 0.1772, 0.7651 0.5071 0.1772, 0.757 0.5139 0.189, 0.7458 0.5216 0.1772, 0.7254 0.5333 0.189, 0.7205 0.5354 0.1772, 0.7205 0.5353 0.189, 0.7162 0.5377 0.1772, 0.6911 0.5475 0.189, 0.6847 0.5495 0.1772, 0.6705 0.5524 0.189, 0.6705 0.5526 0.1772, 0.6551 0.5561 0.189, 0.6517 0.5567 0.1772, 0.6181 0.5591 0.189, 0.6181 0.5591 0.1772, -0.4055 0.5591 0.1772, -0.4055 0.5591 0.189, -0.4425 0.5561 0.189, -0.4391 0.5567 0.1772, -0.4579 0.5524 0.189, -0.4579 0.5526 0.1772, -0.4785 0.5475 0.189, -0.4721 0.5495 0.1772, -0.5036 0.5377 0.1772, -0.5079 0.5353 0.189, -0.5079 0.5354 0.1772, -0.5128 0.5333 0.189, -0.5444 0.5139 0.189, -0.5332 0.5216 0.1772, -0.5525 0.5071 0.1772, -0.5524 0.5071 0.189, -0.5602 0.5014 0.1772, -0.5725 0.4899 0.189, -0.584 0.4775 0.1772, -0.5897 0.4697 0.189, -0.5898 0.4698 0.1772, -0.5966 0.4617 0.189, -0.6042 0.4505 0.1772, -0.616 0.4301 0.189, -0.6181 0.4252 0.1772, -0.618 0.4252 0.189, -0.6204 0.421 0.1772, -0.6302 0.3958 0.189, -0.6322 0.3894 0.1772, -0.6351 0.3752 0.189, -0.6352 0.3753 0.1772, -0.6388 0.3598 0.189, -0.6393 0.3565 0.1772, -0.6417 0.3228 0.189, -0.6417 0.3228 0.1772, -0.6417 -0.3228 0.1772, -0.6417 -0.3228 0.189, -0.6388 -0.3598 0.189, -0.6393 -0.3565 0.1772, -0.6351 -0.3752 0.189, -0.6352 -0.3753 0.1772, -0.6302 -0.3958 0.189, -0.6322 -0.3894 0.1772, -0.6204 -0.421 0.1772, -0.618 -0.4252 0.189, -0.6181 -0.4252 0.1772, -0.616 -0.4301 0.189, -0.5966 -0.4617 0.189, -0.6042 -0.4505 0.1772, -0.5898 -0.4698 0.1772, -0.5897 -0.4697 0.189, -0.584 -0.4775 0.1772, -0.5725 -0.4899 0.189, -0.5602 -0.5014 0.1772, -0.5524 -0.5071 0.189, -0.5525 -0.5071 0.1772, -0.5444 -0.5139 0.189, -0.5332 -0.5216 0.1772, -0.5128 -0.5333 0.189, -0.5079 -0.5354 0.1772, -0.5079 -0.5353 0.189, -0.5036 -0.5377 0.1772, -0.4785 -0.5475 0.189, -0.4721 -0.5495 0.1772, -0.4579 -0.5524 0.189, -0.4579 -0.5526 0.1772, -0.4425 -0.5561 0.189, -0.4391 -0.5567 0.1772, -0.4055 -0.5591 0.189, -0.4055 -0.5591 0.1772, 0.6181 -0.5591 0.1772, 0.6181 -0.5591 0.189, 0.6911 -0.5475 0.189, 0.7162 -0.5377 0.1772, 0.7205 -0.5353 0.189, 0.7205 -0.5354 0.1772, 0.7254 -0.5333 0.189, 0.6551 -0.5561 0.189, 0.6517 -0.5567 0.1772, 0.6705 -0.5524 0.189, 0.6705 -0.5526 0.1772, 0.6847 -0.5495 0.1772, 0.7651 -0.5071 0.1772, 0.765 -0.5071 0.189, 0.757 -0.5139 0.189, 0.7458 -0.5216 0.1772, 0.7851 -0.4899 0.189, 0.7728 -0.5014 0.1772, 0.8023 -0.4697 0.189, 0.7966 -0.4775 0.1772, 0.8024 -0.4698 0.1772, 0.8092 -0.4617 0.189, 0.8168 -0.4505 0.1772, 0.8286 -0.4301 0.189, 0.8307 -0.4252 0.1772, 0.8306 -0.4252 0.189, 0.833 -0.421 0.1772, 0.8428 -0.3958 0.189, 0.8448 -0.3894 0.1772, 0.8477 -0.3752 0.189, 0.8478 -0.3753 0.1772, 0.8514 -0.3598 0.189, 0.8519 -0.3565 0.1772, 0.8543 -0.3228 0.189, 0.8543 -0.3228 0.1772, -0.4287 -0.3547 0.3858, -0.4234 -0.3579 0.3858, -0.4012 -0.3169 0.3858, 0.6243 0.3617 0.3858, 0.6181 0.3622 0.3858, -0.3578 -0.2604 0.3858, -0.3521 -0.3037 0.3858, 0.6181 -0.3622 0.3858, -0.3485 -0.2951 0.3858, 0.6575 -0.3228 0.3858, -0.3473 -0.2858 0.3858, -0.4179 -0.2951 0.3858, -0.4191 -0.2858 0.3858, -0.4449 -0.3228 0.3858, -0.4179 -0.2765 0.3858, -0.4449 0.3228 0.3858, -0.4143 -0.2678 0.3858, -0.4086 -0.2604 0.3858, -0.4012 -0.2547 0.3858, 0.6243 -0.3617 0.3858, 0.6303 -0.3603 0.3858, 0.636 -0.3579 0.3858, 0.6413 -0.3547 0.3858, 0.6459 -0.3507 0.3858, 0.65 -0.346 0.3858, -0.4444 -0.329 0.3858, -0.4086 -0.3112 0.3858, -0.4143 -0.3037 0.3858, -0.3485 -0.2765 0.3858, 0.6575 0.3228 0.3858, -0.3521 -0.2678 0.3858, 0.657 0.329 0.3858, 0.6556 0.335 0.3858, 0.6532 0.3407 0.3858, 0.6532 -0.3407 0.3858, 0.6556 -0.335 0.3858, 0.657 -0.329 0.3858, -0.3739 -0.3205 0.3858, -0.4055 -0.3622 0.3858, -0.3653 -0.3169 0.3858, -0.3578 -0.3112 0.3858, -0.4334 -0.3507 0.3858, -0.4117 0.3617 0.3858, -0.3832 -0.2499 0.3858, -0.4055 0.3622 0.3858, -0.3739 -0.2511 0.3858, -0.3653 -0.2547 0.3858, -0.443 -0.335 0.3858, -0.4406 -0.3407 0.3858, -0.4374 -0.346 0.3858, -0.4406 0.3407 0.3858, -0.443 0.335 0.3858, 0.65 0.346 0.3858, 0.6459 0.3507 0.3858, 0.6413 0.3547 0.3858, 0.636 0.3579 0.3858, 0.6303 0.3603 0.3858, -0.3832 -0.3217 0.3858, -0.3925 -0.3205 0.3858, -0.4117 -0.3617 0.3858, -0.4177 -0.3603 0.3858, -0.4177 0.3603 0.3858, -0.4234 0.3579 0.3858, -0.4287 0.3547 0.3858, -0.4334 0.3507 0.3858, -0.4374 0.346 0.3858, -0.4444 0.329 0.3858, -0.3925 -0.2511 0.3858, -0.4757 -0.3228 0.3834, -0.4757 0.3228 0.3834, -0.4885 -0.3228 0.3803, -0.4885 0.3228 0.3803, -0.5057 -0.3228 0.3762, -0.5057 0.3228 0.3762, -0.5302 -0.3228 0.3661, -0.5302 0.3228 0.3661, -0.5342 -0.3228 0.3644, -0.5342 0.3228 0.3644, -0.5606 -0.3228 0.3482, -0.5606 0.3228 0.3482, -0.5673 -0.3228 0.3425, -0.5673 0.3228 0.3425, -0.5841 -0.3228 0.3282, -0.5841 0.3228 0.3282, -0.5984 -0.3228 0.3114, -0.5984 0.3228 0.3114, -0.6041 -0.3228 0.3047, -0.6041 0.3228 0.3047, -0.6203 -0.3228 0.2783, -0.6203 0.3228 0.2783, -0.622 -0.3228 0.2743, -0.622 0.3228 0.2743, -0.6321 -0.3228 0.2498, -0.6321 0.3228 0.2498, -0.6362 -0.3228 0.2326, -0.6362 0.3228 0.2326, -0.6393 -0.3228 0.2198, -0.6393 0.3228 0.2198, -0.4748 -0.3338 0.3834, -0.5327 -0.343 0.3644, -0.6017 -0.3539 0.3047, -0.6364 -0.3594 0.2198, -0.6279 -0.3951 0.2198, -0.6138 -0.429 0.2198, -0.5947 -0.4603 0.2198, -0.5708 -0.4882 0.2198, -0.5429 -0.512 0.2198, -0.5117 -0.5311 0.2198, -0.4778 -0.5452 0.2198, -0.4421 -0.5538 0.2198, -0.6293 -0.3583 0.2498, -0.621 -0.3929 0.2498, -0.6074 -0.4257 0.2498, -0.5888 -0.456 0.2498, -0.5657 -0.4831 0.2498, -0.5387 -0.5061 0.2498, -0.5084 -0.5247 0.2498, -0.4755 -0.5383 0.2498, -0.441 -0.5466 0.2498, -0.6176 -0.3564 0.2783, -0.4055 -0.5566 0.2198, -0.4055 -0.5535 0.2326, -0.4055 -0.5494 0.2498, -0.4055 -0.5393 0.2743, -0.6098 -0.3892 0.2783, -0.5969 -0.4203 0.2783, -0.5793 -0.4491 0.2783, -0.5574 -0.4747 0.2783, -0.5317 -0.4966 0.2783, -0.503 -0.5142 0.2783, -0.4719 -0.5271 0.2783, -0.4391 -0.535 0.2783, -0.4055 -0.5376 0.2783, -0.4366 -0.519 0.3047, -0.4669 -0.5117 0.3047, -0.4957 -0.4998 0.3047, -0.5223 -0.4835 0.3047, -0.546 -0.4633 0.3047, -0.5662 -0.4396 0.3047, -0.5825 -0.413 0.3047, -0.5944 -0.3842 0.3047, -0.5819 -0.3508 0.3282, -0.5753 -0.378 0.3282, -0.5646 -0.4039 0.3282, -0.55 -0.4278 0.3282, -0.5318 -0.4491 0.3282, -0.5105 -0.4673 0.3282, -0.4866 -0.4819 0.3282, -0.4607 -0.4927 0.3282, -0.4334 -0.4992 0.3282, -0.5587 -0.3471 0.3482, -0.4055 -0.5215 0.3047, -0.4055 -0.5157 0.3114, -0.4055 -0.5014 0.3282, -0.4055 -0.4846 0.3425, -0.553 -0.3708 0.3482, -0.5437 -0.3932 0.3482, -0.531 -0.414 0.3482, -0.5152 -0.4325 0.3482, -0.4967 -0.4483 0.3482, -0.4759 -0.461 0.3482, -0.4534 -0.4703 0.3482, -0.4298 -0.476 0.3482, -0.4055 -0.4779 0.3482, -0.4257 -0.45 0.3644, -0.4453 -0.4453 0.3644, -0.464 -0.4375 0.3644, -0.4812 -0.427 0.3644, -0.4965 -0.4139 0.3644, -0.5097 -0.3985 0.3644, -0.5202 -0.3813 0.3644, -0.5279 -0.3626 0.3644, -0.5045 -0.3385 0.3762, -0.5008 -0.3538 0.3762, -0.4948 -0.3683 0.3762, -0.4866 -0.3817 0.3762, -0.4764 -0.3937 0.3762, -0.4644 -0.4039 0.3762, -0.451 -0.4121 0.3762, -0.4365 -0.4181 0.3762, -0.4212 -0.4218 0.3762, -0.4055 -0.4516 0.3644, -0.4055 -0.4475 0.3661, -0.4055 -0.423 0.3762, -0.4055 -0.4059 0.3803, -0.4722 -0.3445 0.3834, -0.468 -0.3547 0.3834, -0.4623 -0.3641 0.3834, -0.4551 -0.3724 0.3834, -0.4468 -0.3796 0.3834, -0.4374 -0.3854 0.3834, -0.4272 -0.3896 0.3834, -0.4165 -0.3921 0.3834, -0.4055 -0.393 0.3834, -0.4055 0.393 0.3834, -0.4165 0.3921 0.3834, -0.4055 0.4475 0.3661, -0.4055 0.4516 0.3644, -0.4257 0.45 0.3644, -0.4055 0.5157 0.3114, -0.4055 0.5215 0.3047, -0.4366 0.519 0.3047, -0.4055 0.5535 0.2326, -0.4055 0.5566 0.2198, -0.4421 0.5538 0.2198, -0.4778 0.5452 0.2198, -0.5117 0.5311 0.2198, -0.5429 0.512 0.2198, -0.5708 0.4882 0.2198, -0.5947 0.4603 0.2198, -0.6138 0.429 0.2198, -0.6279 0.3951 0.2198, -0.6364 0.3594 0.2198, -0.4055 0.5393 0.2743, -0.4055 0.5494 0.2498, -0.441 0.5466 0.2498, -0.4755 0.5383 0.2498, -0.5084 0.5247 0.2498, -0.5387 0.5061 0.2498, -0.5657 0.4831 0.2498, -0.5888 0.456 0.2498, -0.6074 0.4257 0.2498, -0.621 0.3929 0.2498, -0.6293 0.3583 0.2498, -0.4391 0.535 0.2783, -0.4055 0.5376 0.2783, -0.4719 0.5271 0.2783, -0.503 0.5142 0.2783, -0.5317 0.4966 0.2783, -0.5574 0.4747 0.2783, -0.5793 0.4491 0.2783, -0.5969 0.4203 0.2783, -0.6098 0.3892 0.2783, -0.6176 0.3564 0.2783, -0.6017 0.3539 0.3047, -0.5944 0.3842 0.3047, -0.5825 0.413 0.3047, -0.5662 0.4396 0.3047, -0.546 0.4633 0.3047, -0.5223 0.4835 0.3047, -0.4957 0.4998 0.3047, -0.4669 0.5117 0.3047, -0.4055 0.4846 0.3425, -0.4055 0.5014 0.3282, -0.4334 0.4992 0.3282, -0.4607 0.4927 0.3282, -0.4866 0.4819 0.3282, -0.5105 0.4673 0.3282, -0.5318 0.4491 0.3282, -0.55 0.4278 0.3282, -0.5646 0.4039 0.3282, -0.5753 0.378 0.3282, -0.5819 0.3508 0.3282, -0.4298 0.476 0.3482, -0.4055 0.4779 0.3482, -0.4534 0.4703 0.3482, -0.4759 0.461 0.3482, -0.4967 0.4483 0.3482, -0.5152 0.4325 0.3482, -0.531 0.414 0.3482, -0.5437 0.3932 0.3482, -0.553 0.3708 0.3482, -0.5587 0.3471 0.3482, -0.5327 0.343 0.3644, -0.5279 0.3626 0.3644, -0.5202 0.3813 0.3644, -0.5097 0.3985 0.3644, -0.4965 0.4139 0.3644, -0.4812 0.427 0.3644, -0.464 0.4375 0.3644, -0.4453 0.4453 0.3644, -0.4212 0.4218 0.3762, -0.4365 0.4181 0.3762, -0.451 0.4121 0.3762, -0.4644 0.4039 0.3762, -0.4764 0.3937 0.3762, -0.4866 0.3817 0.3762, -0.4948 0.3683 0.3762, -0.5008 0.3538 0.3762, -0.5045 0.3385 0.3762, -0.4055 0.4059 0.3803, -0.4055 0.423 0.3762, -0.4272 0.3896 0.3834, -0.4374 0.3854 0.3834, -0.4468 0.3796 0.3834, -0.4551 0.3724 0.3834, -0.4623 0.3641 0.3834, -0.468 0.3547 0.3834, -0.4722 0.3445 0.3834, -0.4748 0.3338 0.3834, 0.6181 -0.393 0.3834, 0.6181 -0.4059 0.3803, 0.6181 -0.423 0.3762, 0.6181 -0.4475 0.3661, 0.6181 -0.4516 0.3644, 0.6181 -0.4779 0.3482, 0.6181 -0.4846 0.3425, 0.6181 -0.5014 0.3282, 0.6181 -0.5157 0.3114, 0.6181 -0.5215 0.3047, 0.6181 -0.5376 0.2783, 0.6181 -0.5393 0.2743, 0.6181 -0.5494 0.2498, 0.6181 -0.5535 0.2326, 0.6181 -0.5566 0.2198, 0.6181 0.5566 0.2198, 0.6181 0.5535 0.2326, 0.6181 0.5494 0.2498, 0.6181 0.5393 0.2743, 0.6181 0.5376 0.2783, 0.6181 0.5215 0.3047, 0.6181 0.5157 0.3114, 0.6181 0.5014 0.3282, 0.6181 0.4846 0.3425, 0.6181 0.4779 0.3482, 0.6181 0.4516 0.3644, 0.6181 0.4475 0.3661, 0.6181 0.423 0.3762, 0.6181 0.4059 0.3803, 0.6181 0.393 0.3834, 0.6291 -0.3921 0.3834, 0.6382 -0.45 0.3644, 0.6492 -0.519 0.3047, 0.6547 -0.5538 0.2198, 0.6904 -0.5452 0.2198, 0.7243 -0.5311 0.2198, 0.7555 -0.512 0.2198, 0.7834 -0.4882 0.2198, 0.8073 -0.4603 0.2198, 0.8264 -0.429 0.2198, 0.8405 -0.3951 0.2198, 0.849 -0.3594 0.2198, 0.6536 -0.5466 0.2498, 0.6881 -0.5383 0.2498, 0.721 -0.5247 0.2498, 0.7513 -0.5061 0.2498, 0.7783 -0.4831 0.2498, 0.8014 -0.456 0.2498, 0.82 -0.4257 0.2498, 0.8336 -0.3929 0.2498, 0.8419 -0.3583 0.2498, 0.6517 -0.535 0.2783, 0.8519 -0.3228 0.2198, 0.8488 -0.3228 0.2326, 0.8447 -0.3228 0.2498, 0.8346 -0.3228 0.2743, 0.6845 -0.5271 0.2783, 0.7156 -0.5142 0.2783, 0.7443 -0.4966 0.2783, 0.77 -0.4747 0.2783, 0.7919 -0.4491 0.2783, 0.8095 -0.4203 0.2783, 0.8224 -0.3892 0.2783, 0.8302 -0.3564 0.2783, 0.8329 -0.3228 0.2783, 0.8143 -0.3539 0.3047, 0.807 -0.3842 0.3047, 0.7951 -0.413 0.3047, 0.7788 -0.4396 0.3047, 0.7586 -0.4633 0.3047, 0.7349 -0.4835 0.3047, 0.7083 -0.4998 0.3047, 0.6795 -0.5117 0.3047, 0.646 -0.4992 0.3282, 0.6733 -0.4927 0.3282, 0.6992 -0.4819 0.3282, 0.7231 -0.4673 0.3282, 0.7444 -0.4491 0.3282, 0.7626 -0.4278 0.3282, 0.7772 -0.4039 0.3282, 0.7879 -0.378 0.3282, 0.7945 -0.3508 0.3282, 0.6424 -0.476 0.3482, 0.8167 -0.3228 0.3047, 0.811 -0.3228 0.3114, 0.7967 -0.3228 0.3282, 0.7799 -0.3228 0.3425, 0.666 -0.4703 0.3482, 0.6885 -0.461 0.3482, 0.7093 -0.4483 0.3482, 0.7278 -0.4325 0.3482, 0.7436 -0.414 0.3482, 0.7563 -0.3932 0.3482, 0.7656 -0.3708 0.3482, 0.7713 -0.3471 0.3482, 0.7732 -0.3228 0.3482, 0.7453 -0.343 0.3644, 0.7405 -0.3626 0.3644, 0.7328 -0.3813 0.3644, 0.7223 -0.3985 0.3644, 0.7091 -0.4139 0.3644, 0.6938 -0.427 0.3644, 0.6766 -0.4375 0.3644, 0.6579 -0.4453 0.3644, 0.6338 -0.4218 0.3762, 0.6491 -0.4181 0.3762, 0.6636 -0.4121 0.3762, 0.677 -0.4039 0.3762, 0.689 -0.3937 0.3762, 0.6992 -0.3817 0.3762, 0.7074 -0.3683 0.3762, 0.7134 -0.3538 0.3762, 0.7171 -0.3385 0.3762, 0.7468 -0.3228 0.3644, 0.7428 -0.3228 0.3661, 0.7183 -0.3228 0.3762, 0.7011 -0.3228 0.3803, 0.6398 -0.3896 0.3834, 0.65 -0.3854 0.3834, 0.6594 -0.3796 0.3834, 0.6677 -0.3724 0.3834, 0.6749 -0.3641 0.3834, 0.6806 -0.3547 0.3834, 0.6848 -0.3445 0.3834, 0.6874 -0.3338 0.3834, 0.6883 -0.3228 0.3834, 0.6883 0.3228 0.3834, 0.6874 0.3338 0.3834, 0.7428 0.3228 0.3661, 0.7468 0.3228 0.3644, 0.7453 0.343 0.3644, 0.811 0.3228 0.3114, 0.8167 0.3228 0.3047, 0.8143 0.3539 0.3047, 0.8488 0.3228 0.2326, 0.8519 0.3228 0.2198, 0.849 0.3594 0.2198, 0.8405 0.3951 0.2198, 0.8264 0.429 0.2198, 0.8073 0.4603 0.2198, 0.7834 0.4882 0.2198, 0.7555 0.512 0.2198, 0.7243 0.5311 0.2198, 0.6904 0.5452 0.2198, 0.6547 0.5538 0.2198, 0.8346 0.3228 0.2743, 0.8447 0.3228 0.2498, 0.8419 0.3583 0.2498, 0.8336 0.3929 0.2498, 0.82 0.4257 0.2498, 0.8014 0.456 0.2498, 0.7783 0.4831 0.2498, 0.7513 0.5061 0.2498, 0.721 0.5247 0.2498, 0.6881 0.5383 0.2498, 0.6536 0.5466 0.2498, 0.8302 0.3564 0.2783, 0.8329 0.3228 0.2783, 0.8224 0.3892 0.2783, 0.8095 0.4203 0.2783, 0.7919 0.4491 0.2783, 0.77 0.4747 0.2783, 0.7443 0.4966 0.2783, 0.7156 0.5142 0.2783, 0.6845 0.5271 0.2783, 0.6517 0.535 0.2783, 0.6492 0.519 0.3047, 0.6795 0.5117 0.3047, 0.7083 0.4998 0.3047, 0.7349 0.4835 0.3047, 0.7586 0.4633 0.3047, 0.7788 0.4396 0.3047, 0.7951 0.413 0.3047, 0.807 0.3842 0.3047, 0.7799 0.3228 0.3425, 0.7967 0.3228 0.3282, 0.7945 0.3508 0.3282, 0.7879 0.378 0.3282, 0.7772 0.4039 0.3282, 0.7626 0.4278 0.3282, 0.7444 0.4491 0.3282, 0.7231 0.4673 0.3282, 0.6992 0.4819 0.3282, 0.6733 0.4927 0.3282, 0.646 0.4992 0.3282, 0.7713 0.3471 0.3482, 0.7732 0.3228 0.3482, 0.7656 0.3708 0.3482, 0.7563 0.3932 0.3482, 0.7436 0.414 0.3482, 0.7278 0.4325 0.3482, 0.7093 0.4483 0.3482, 0.6885 0.461 0.3482, 0.666 0.4703 0.3482, 0.6424 0.476 0.3482, 0.6382 0.45 0.3644, 0.6579 0.4453 0.3644, 0.6766 0.4375 0.3644, 0.6938 0.427 0.3644, 0.7091 0.4139 0.3644, 0.7223 0.3985 0.3644, 0.7328 0.3813 0.3644, 0.7405 0.3626 0.3644, 0.7171 0.3385 0.3762, 0.7134 0.3538 0.3762, 0.7074 0.3683 0.3762, 0.6992 0.3817 0.3762, 0.689 0.3937 0.3762, 0.677 0.4039 0.3762, 0.6636 0.4121 0.3762, 0.6491 0.4181 0.3762, 0.6338 0.4218 0.3762, 0.7011 0.3228 0.3803, 0.7183 0.3228 0.3762, 0.6848 0.3445 0.3834, 0.6806 0.3547 0.3834, 0.6749 0.3641 0.3834, 0.6677 0.3724 0.3834, 0.6594 0.3796 0.3834, 0.65 0.3854 0.3834, 0.6398 0.3896 0.3834, 0.6291 0.3921 0.3834, 0.685 0.5508 0.167, 0.7737 0.5024 0.167, 0.6573 0.5956 0.1378, 0.6181 0.5984 0.1378, 0.6181 0.5882 0.1391, 0.6958 0.5873 0.1378, 0.6559 0.5855 0.1391, 0.7326 0.5735 0.1378, 0.6929 0.5775 0.1391, 0.7671 0.5547 0.1378, 0.7284 0.5643 0.1391, 0.7986 0.5311 0.1378, 0.7616 0.5461 0.1391, 0.8264 0.5033 0.1378, 0.7919 0.5234 0.1391, 0.85 0.4718 0.1378, 0.8187 0.4966 0.1391, 0.8688 0.4373 0.1378, 0.8414 0.4663 0.1391, 0.8825 0.4005 0.1378, 0.8595 0.4331 0.1391, 0.8909 0.3621 0.1378, 0.8728 0.3976 0.1391, 0.8937 0.3228 0.1378, 0.8808 0.3606 0.1391, 0.8835 0.3228 0.1391, 0.8714 0.3593 0.1431, 0.874 0.3228 0.1431, 0.8633 0.3581 0.1493, 0.8659 0.3228 0.1493, 0.8571 0.3572 0.1575, 0.8596 0.3228 0.1575, 0.8533 0.3566 0.167, 0.8557 0.3228 0.167, 0.846 0.3898 0.167, 0.8637 0.3949 0.1431, 0.8558 0.3926 0.1493, 0.8498 0.3909 0.1575, 0.8509 0.4291 0.1431, 0.8435 0.4258 0.1493, 0.8378 0.4232 0.1575, 0.8342 0.4215 0.167, 0.818 0.4513 0.167, 0.8334 0.4612 0.1431, 0.8265 0.4568 0.1493, 0.8213 0.4534 0.1575, 0.7976 0.4784 0.167, 0.8115 0.4904 0.1431, 0.8053 0.4851 0.1493, 0.8006 0.481 0.1575, 0.7857 0.5162 0.1431, 0.7804 0.5101 0.1493, 0.7763 0.5053 0.1575, 0.7565 0.5381 0.1431, 0.7521 0.5313 0.1493, 0.7487 0.526 0.1575, 0.7465 0.5227 0.167, 0.7168 0.5389 0.167, 0.7244 0.5556 0.1431, 0.721 0.5482 0.1493, 0.7184 0.5425 0.1575, 0.6902 0.5684 0.1431, 0.6879 0.5606 0.1493, 0.6861 0.5545 0.1575, 0.6545 0.5761 0.1431, 0.6534 0.5681 0.1493, 0.6525 0.5619 0.1575, 0.6519 0.558 0.167, 0.6181 0.5787 0.1431, 0.6181 0.5706 0.1493, 0.6181 0.5643 0.1575, 0.6181 0.5604 0.167, -0.4055 0.5604 0.167, -0.4055 0.5643 0.1575, -0.4055 0.5706 0.1493, -0.4055 0.5787 0.1431, -0.4055 0.5882 0.1391, -0.4055 0.5984 0.1378, 0.8557 -0.3228 0.167, 0.8596 -0.3228 0.1575, 0.8659 -0.3228 0.1493, 0.874 -0.3228 0.1431, 0.8835 -0.3228 0.1391, 0.8937 -0.3228 0.1378, -0.6335 0.3898 0.167, -0.585 0.4784 0.167, -0.6783 0.3621 0.1378, -0.6811 0.3228 0.1378, -0.6709 0.3228 0.1391, -0.6699 0.4005 0.1378, -0.6682 0.3606 0.1391, -0.6562 0.4373 0.1378, -0.6602 0.3976 0.1391, -0.6374 0.4718 0.1378, -0.6469 0.4331 0.1391, -0.6138 0.5033 0.1378, -0.6288 0.4663 0.1391, -0.586 0.5311 0.1378, -0.6061 0.4966 0.1391, -0.5545 0.5547 0.1378, -0.5793 0.5234 0.1391, -0.52 0.5735 0.1378, -0.549 0.5461 0.1391, -0.4832 0.5873 0.1378, -0.5158 0.5643 0.1391, -0.4447 0.5956 0.1378, -0.4803 0.5775 0.1391, -0.4433 0.5855 0.1391, -0.4419 0.5761 0.1431, -0.4408 0.5681 0.1493, -0.4399 0.5619 0.1575, -0.4393 0.558 0.167, -0.4724 0.5508 0.167, -0.4776 0.5684 0.1431, -0.4753 0.5606 0.1493, -0.4735 0.5545 0.1575, -0.5118 0.5556 0.1431, -0.5084 0.5482 0.1493, -0.5058 0.5425 0.1575, -0.5042 0.5389 0.167, -0.5339 0.5227 0.167, -0.5439 0.5381 0.1431, -0.5395 0.5313 0.1493, -0.5361 0.526 0.1575, -0.5611 0.5024 0.167, -0.5731 0.5162 0.1431, -0.5678 0.5101 0.1493, -0.5637 0.5053 0.1575, -0.5989 0.4904 0.1431, -0.5927 0.4851 0.1493, -0.588 0.481 0.1575, -0.6208 0.4612 0.1431, -0.6139 0.4568 0.1493, -0.6087 0.4534 0.1575, -0.6054 0.4513 0.167, -0.6216 0.4215 0.167, -0.6383 0.4291 0.1431, -0.6309 0.4258 0.1493, -0.6252 0.4232 0.1575, -0.6511 0.3949 0.1431, -0.6432 0.3926 0.1493, -0.6372 0.3909 0.1575, -0.6588 0.3593 0.1431, -0.6507 0.3581 0.1493, -0.6445 0.3572 0.1575, -0.6407 0.3566 0.167, -0.6614 0.3228 0.1431, -0.6533 0.3228 0.1493, -0.647 0.3228 0.1575, -0.6431 0.3228 0.167, 0.846 -0.3898 0.167, 0.7976 -0.4784 0.167, 0.8909 -0.3621 0.1378, 0.8825 -0.4005 0.1378, 0.8808 -0.3606 0.1391, 0.8688 -0.4373 0.1378, 0.8728 -0.3976 0.1391, 0.85 -0.4718 0.1378, 0.8595 -0.4331 0.1391, 0.8264 -0.5033 0.1378, 0.8414 -0.4663 0.1391, 0.7986 -0.5311 0.1378, 0.8187 -0.4966 0.1391, 0.7671 -0.5547 0.1378, 0.7919 -0.5234 0.1391, 0.7326 -0.5735 0.1378, 0.7616 -0.5461 0.1391, 0.6958 -0.5873 0.1378, 0.7284 -0.5643 0.1391, 0.6573 -0.5956 0.1378, 0.6929 -0.5775 0.1391, 0.6181 -0.5984 0.1378, 0.6559 -0.5855 0.1391, 0.6181 -0.5882 0.1391, 0.6545 -0.5761 0.1431, 0.6181 -0.5787 0.1431, 0.6534 -0.5681 0.1493, 0.6181 -0.5706 0.1493, 0.6525 -0.5619 0.1575, 0.6181 -0.5643 0.1575, 0.6519 -0.558 0.167, 0.6181 -0.5604 0.167, 0.685 -0.5508 0.167, 0.6902 -0.5684 0.1431, 0.6879 -0.5606 0.1493, 0.6861 -0.5545 0.1575, 0.7244 -0.5556 0.1431, 0.721 -0.5482 0.1493, 0.7184 -0.5425 0.1575, 0.7168 -0.5389 0.167, 0.7465 -0.5227 0.167, 0.7565 -0.5381 0.1431, 0.7521 -0.5313 0.1493, 0.7487 -0.526 0.1575, 0.7737 -0.5024 0.167, 0.7857 -0.5162 0.1431, 0.7804 -0.5101 0.1493, 0.7763 -0.5053 0.1575, 0.8115 -0.4904 0.1431, 0.8053 -0.4851 0.1493, 0.8006 -0.481 0.1575, 0.8334 -0.4612 0.1431, 0.8265 -0.4568 0.1493, 0.8213 -0.4534 0.1575, 0.818 -0.4513 0.167, 0.8342 -0.4215 0.167, 0.8509 -0.4291 0.1431, 0.8435 -0.4258 0.1493, 0.8378 -0.4232 0.1575, 0.8637 -0.3949 0.1431, 0.8558 -0.3926 0.1493, 0.8498 -0.3909 0.1575, 0.8714 -0.3593 0.1431, 0.8633 -0.3581 0.1493, 0.8571 -0.3572 0.1575, 0.8533 -0.3566 0.167, -0.6431 -0.3228 0.167, -0.647 -0.3228 0.1575, -0.6533 -0.3228 0.1493, -0.6614 -0.3228 0.1431, -0.6709 -0.3228 0.1391, -0.6811 -0.3228 0.1378, -0.4055 -0.5604 0.167, -0.4055 -0.5643 0.1575, -0.4055 -0.5706 0.1493, -0.4055 -0.5787 0.1431, -0.4055 -0.5882 0.1391, -0.4055 -0.5984 0.1378, -0.4724 -0.5508 0.167, -0.5611 -0.5024 0.167, -0.4447 -0.5956 0.1378, -0.4832 -0.5873 0.1378, -0.4433 -0.5855 0.1391, -0.52 -0.5735 0.1378, -0.4803 -0.5775 0.1391, -0.5545 -0.5547 0.1378, -0.5158 -0.5643 0.1391, -0.586 -0.5311 0.1378, -0.549 -0.5461 0.1391, -0.6138 -0.5033 0.1378, -0.5793 -0.5234 0.1391, -0.6374 -0.4718 0.1378, -0.6061 -0.4966 0.1391, -0.6562 -0.4373 0.1378, -0.6288 -0.4663 0.1391, -0.6699 -0.4005 0.1378, -0.6469 -0.4331 0.1391, -0.6783 -0.3621 0.1378, -0.6602 -0.3976 0.1391, -0.6682 -0.3606 0.1391, -0.6588 -0.3593 0.1431, -0.6507 -0.3581 0.1493, -0.6445 -0.3572 0.1575, -0.6407 -0.3566 0.167, -0.6335 -0.3898 0.167, -0.6511 -0.3949 0.1431, -0.6432 -0.3926 0.1493, -0.6372 -0.3909 0.1575, -0.6383 -0.4291 0.1431, -0.6309 -0.4258 0.1493, -0.6252 -0.4232 0.1575, -0.6216 -0.4215 0.167, -0.6054 -0.4513 0.167, -0.6208 -0.4612 0.1431, -0.6139 -0.4568 0.1493, -0.6087 -0.4534 0.1575, -0.585 -0.4784 0.167, -0.5989 -0.4904 0.1431, -0.5927 -0.4851 0.1493, -0.588 -0.481 0.1575, -0.5731 -0.5162 0.1431, -0.5678 -0.5101 0.1493, -0.5637 -0.5053 0.1575, -0.5439 -0.5381 0.1431, -0.5395 -0.5313 0.1493, -0.5361 -0.526 0.1575, -0.5339 -0.5227 0.167, -0.5042 -0.5389 0.167, -0.5118 -0.5556 0.1431, -0.5084 -0.5482 0.1493, -0.5058 -0.5425 0.1575, -0.4776 -0.5684 0.1431, -0.4753 -0.5606 0.1493, -0.4735 -0.5545 0.1575, -0.4419 -0.5761 0.1431, -0.4408 -0.5681 0.1493, -0.4399 -0.5619 0.1575, -0.4393 -0.558 0.167
            ]
        }
        coordIndex [
            0,1,2,-1,0,2,3,-1,3,2,4,-1,3,4,5,-1,5,4,6,-1,5,6,7,-1,7,6,8,-1,7,8,9,-1,9,8,10,-1,9,10,11,-1,11,10,12,-1,11,12,13,-1,14,13,15,-1,15,13,12,-1,14,15,16,-1,14,16,17,-1,17,16,18,-1,17,18,19,-1,19,18,20,-1,19,20,21,-1,21,20,22,-1,21,22,23,-1,23,22,24,-1,23,24,25,-1,25,24,26,-1,25,26,27,-1,28,27,29,-1,29,27,26,-1,28,29,30,-1,28,30,31,-1,31,30,32,-1,31,32,33,-1,33,32,34,-1,33,34,35,-1,35,34,36,-1,35,36,37,-1,37,36,38,-1,37,38,39,-1,39,38,40,-1,39,40,41,-1,42,41,43,-1,43,41,40,-1,42,43,44,-1,42,44,45,-1,45,44,46,-1,45,46,47,-1,47,46,48,-1,47,48,49,-1,49,48,50,-1,49,50,51,-1,51,50,52,-1,51,52,53,-1,53,52,54,-1,53,54,55,-1,0,55,1,-1,1,55,54,-1,56,57,58,-1,58,57,59,-1,58,59,60,-1,61,62,63,-1,63,62,64,-1,63,64,65,-1,65,64,66,-1,65,66,56,-1,56,66,67,-1,56,67,57,-1,68,69,70,-1,60,59,70,-1,70,59,71,-1,70,71,68,-1,69,68,72,-1,72,68,73,-1,72,73,74,-1,73,75,74,-1,74,75,76,-1,74,76,77,-1,77,76,78,-1,77,78,79,-1,79,78,80,-1,79,80,81,-1,81,80,82,-1,81,82,83,-1,83,82,84,-1,83,84,85,-1,85,84,86,-1,85,86,87,-1,87,86,88,-1,87,88,89,-1,89,88,90,-1,91,92,90,-1,90,92,89,-1,92,91,93,-1,93,91,94,-1,93,94,95,-1,95,94,96,-1,95,96,97,-1,96,98,97,-1,97,98,99,-1,97,99,100,-1,100,99,101,-1,100,101,102,-1,102,101,103,-1,101,104,103,-1,103,104,105,-1,103,105,106,-1,106,105,107,-1,106,107,108,-1,108,107,109,-1,108,109,110,-1,110,109,111,-1,110,111,112,-1,112,111,113,-1,112,113,114,-1,114,113,115,-1,114,115,116,-1,116,115,117,-1,116,117,118,-1,118,117,119,-1,118,119,120,-1,120,119,121,-1,120,121,122,-1,122,121,123,-1,122,123,124,-1,124,123,125,-1,126,127,125,-1,125,127,124,-1,127,126,128,-1,128,126,129,-1,128,129,130,-1,130,129,131,-1,130,131,132,-1,131,133,132,-1,132,133,134,-1,132,134,135,-1,135,134,136,-1,135,136,137,-1,137,136,138,-1,136,139,138,-1,138,139,140,-1,138,140,141,-1,141,140,142,-1,141,142,143,-1,143,142,144,-1,143,144,145,-1,145,144,146,-1,145,146,147,-1,147,146,148,-1,147,148,149,-1,149,148,150,-1,149,150,151,-1,151,150,152,-1,151,152,153,-1,153,152,154,-1,153,154,155,-1,155,154,156,-1,155,156,157,-1,157,156,158,-1,157,158,159,-1,159,158,160,-1,161,162,160,-1,160,162,159,-1,163,164,165,-1,165,164,166,-1,165,166,167,-1,162,161,168,-1,168,161,169,-1,168,169,170,-1,170,169,171,-1,170,171,163,-1,163,171,172,-1,163,172,164,-1,173,174,175,-1,167,166,175,-1,175,166,176,-1,175,176,173,-1,174,173,177,-1,177,173,178,-1,177,178,179,-1,178,180,179,-1,179,180,181,-1,179,181,182,-1,182,181,183,-1,182,183,184,-1,184,183,185,-1,184,185,186,-1,186,185,187,-1,186,187,188,-1,188,187,189,-1,188,189,190,-1,190,189,191,-1,190,191,192,-1,192,191,193,-1,192,193,194,-1,194,193,195,-1,62,61,195,-1,195,61,194,-1,196,197,198,-1,199,200,201,-1,202,203,204,-1,204,203,205,-1,204,205,206,-1,207,208,209,-1,209,208,210,-1,209,210,211,-1,210,212,211,-1,211,212,213,-1,211,213,214,-1,203,215,205,-1,205,215,216,-1,205,216,217,-1,217,218,205,-1,205,218,219,-1,205,219,220,-1,221,222,209,-1,209,222,223,-1,209,223,207,-1,206,205,224,-1,224,205,225,-1,224,225,226,-1,226,225,227,-1,226,227,201,-1,201,227,228,-1,201,228,229,-1,220,230,205,-1,205,230,231,-1,205,231,232,-1,233,234,235,-1,235,234,203,-1,235,203,236,-1,236,203,202,-1,196,198,237,-1,238,239,240,-1,240,239,241,-1,240,241,200,-1,200,241,242,-1,200,242,201,-1,221,243,222,-1,222,243,244,-1,222,244,198,-1,198,244,245,-1,198,245,237,-1,239,246,247,-1,229,248,201,-1,201,248,249,-1,201,249,250,-1,250,251,201,-1,201,251,252,-1,201,252,199,-1,233,253,234,-1,234,253,254,-1,234,254,255,-1,255,254,198,-1,255,198,256,-1,256,198,197,-1,238,257,239,-1,239,257,258,-1,239,258,259,-1,259,260,239,-1,239,260,261,-1,239,261,246,-1,247,262,239,-1,239,262,211,-1,239,211,263,-1,263,211,214,-1,209,211,264,-1,264,211,265,-1,264,265,266,-1,266,265,267,-1,266,267,268,-1,268,267,269,-1,268,269,270,-1,270,269,271,-1,270,271,272,-1,272,271,273,-1,272,273,274,-1,274,273,275,-1,274,275,276,-1,276,275,277,-1,276,277,278,-1,278,277,279,-1,278,279,280,-1,280,279,281,-1,280,281,282,-1,282,281,283,-1,282,283,284,-1,284,283,285,-1,284,285,286,-1,286,285,287,-1,286,287,288,-1,288,287,289,-1,288,289,290,-1,290,289,291,-1,290,291,292,-1,292,291,293,-1,292,293,127,-1,127,293,124,-1,209,264,294,-1,270,272,295,-1,280,282,296,-1,290,292,297,-1,292,127,128,-1,292,128,297,-1,297,128,130,-1,297,130,298,-1,130,132,298,-1,298,132,135,-1,298,135,299,-1,135,137,299,-1,299,137,138,-1,299,138,300,-1,300,138,141,-1,300,141,301,-1,141,143,301,-1,301,143,145,-1,301,145,302,-1,145,147,302,-1,302,147,149,-1,302,149,303,-1,303,149,151,-1,303,151,304,-1,151,153,304,-1,304,153,155,-1,304,155,305,-1,305,155,157,-1,305,157,159,-1,286,288,306,-1,306,288,290,-1,290,297,306,-1,306,297,298,-1,306,298,307,-1,307,298,299,-1,307,299,308,-1,308,299,300,-1,308,300,309,-1,309,300,301,-1,309,301,310,-1,310,301,302,-1,310,302,311,-1,311,302,303,-1,311,303,312,-1,312,303,304,-1,312,304,313,-1,313,304,305,-1,313,305,314,-1,315,284,286,-1,159,316,305,-1,305,316,317,-1,305,317,314,-1,314,317,318,-1,314,318,319,-1,286,306,315,-1,315,306,307,-1,315,307,320,-1,320,307,308,-1,320,308,321,-1,321,308,309,-1,321,309,322,-1,322,309,310,-1,322,310,323,-1,323,310,311,-1,323,311,324,-1,324,311,312,-1,324,312,325,-1,325,312,313,-1,325,313,326,-1,326,313,314,-1,326,314,327,-1,327,314,319,-1,327,319,328,-1,328,329,327,-1,327,329,330,-1,327,330,326,-1,326,330,331,-1,326,331,325,-1,325,331,332,-1,325,332,324,-1,324,332,333,-1,324,333,323,-1,323,333,334,-1,323,334,322,-1,322,334,335,-1,322,335,321,-1,321,335,336,-1,321,336,320,-1,320,336,296,-1,320,296,315,-1,315,296,282,-1,315,282,284,-1,276,278,337,-1,337,278,280,-1,280,296,337,-1,337,296,336,-1,337,336,338,-1,338,336,335,-1,338,335,339,-1,339,335,334,-1,339,334,340,-1,340,334,333,-1,340,333,341,-1,341,333,332,-1,341,332,342,-1,342,332,331,-1,342,331,343,-1,343,331,330,-1,343,330,344,-1,344,330,329,-1,344,329,345,-1,346,274,276,-1,328,347,329,-1,329,347,348,-1,329,348,345,-1,345,348,349,-1,345,349,350,-1,276,337,346,-1,346,337,338,-1,346,338,351,-1,351,338,339,-1,351,339,352,-1,352,339,340,-1,352,340,353,-1,353,340,341,-1,353,341,354,-1,354,341,342,-1,354,342,355,-1,355,342,343,-1,355,343,356,-1,356,343,344,-1,356,344,357,-1,357,344,345,-1,357,345,358,-1,358,345,350,-1,358,350,359,-1,359,360,358,-1,358,360,361,-1,358,361,357,-1,357,361,362,-1,357,362,356,-1,356,362,363,-1,356,363,355,-1,355,363,364,-1,355,364,354,-1,354,364,365,-1,354,365,353,-1,353,365,366,-1,353,366,352,-1,352,366,367,-1,352,367,351,-1,351,367,295,-1,351,295,346,-1,346,295,272,-1,346,272,274,-1,270,295,368,-1,368,295,367,-1,368,367,369,-1,369,367,366,-1,369,366,370,-1,370,366,365,-1,370,365,371,-1,371,365,364,-1,371,364,372,-1,372,364,363,-1,372,363,373,-1,373,363,362,-1,373,362,374,-1,374,362,361,-1,374,361,375,-1,375,361,360,-1,375,360,376,-1,264,266,368,-1,368,266,268,-1,368,268,270,-1,359,377,360,-1,360,377,378,-1,360,378,376,-1,376,378,379,-1,376,379,380,-1,264,368,294,-1,294,368,369,-1,294,369,381,-1,381,369,370,-1,381,370,382,-1,382,370,371,-1,382,371,383,-1,383,371,372,-1,383,372,384,-1,384,372,373,-1,384,373,385,-1,385,373,374,-1,385,374,386,-1,386,374,375,-1,386,375,387,-1,387,375,376,-1,387,376,388,-1,388,376,380,-1,388,380,389,-1,209,294,221,-1,221,294,381,-1,221,381,243,-1,243,381,382,-1,243,382,244,-1,244,382,383,-1,244,383,245,-1,245,383,384,-1,245,384,237,-1,237,384,385,-1,237,385,196,-1,196,385,386,-1,196,386,197,-1,197,386,387,-1,197,387,256,-1,256,387,388,-1,256,388,255,-1,255,388,389,-1,255,389,234,-1,240,390,391,-1,392,393,394,-1,395,396,397,-1,398,399,400,-1,399,92,93,-1,399,93,400,-1,400,93,95,-1,400,95,401,-1,95,97,401,-1,401,97,100,-1,401,100,402,-1,100,102,402,-1,402,102,103,-1,402,103,403,-1,403,103,106,-1,403,106,404,-1,106,108,404,-1,404,108,110,-1,404,110,405,-1,110,112,405,-1,405,112,114,-1,405,114,406,-1,406,114,116,-1,406,116,407,-1,116,118,407,-1,407,118,120,-1,407,120,408,-1,408,120,122,-1,408,122,124,-1,409,410,411,-1,411,410,398,-1,398,400,411,-1,411,400,401,-1,411,401,412,-1,412,401,402,-1,412,402,413,-1,413,402,403,-1,413,403,414,-1,414,403,404,-1,414,404,415,-1,415,404,405,-1,415,405,416,-1,416,405,406,-1,416,406,417,-1,417,406,407,-1,417,407,418,-1,418,407,408,-1,418,408,419,-1,420,421,409,-1,124,293,408,-1,408,293,291,-1,408,291,419,-1,419,291,289,-1,419,289,287,-1,409,411,420,-1,420,411,412,-1,420,412,422,-1,422,412,413,-1,422,413,423,-1,423,413,414,-1,423,414,424,-1,424,414,415,-1,424,415,425,-1,425,415,416,-1,425,416,426,-1,426,416,417,-1,426,417,427,-1,427,417,418,-1,427,418,428,-1,428,418,419,-1,428,419,429,-1,429,419,287,-1,429,287,285,-1,285,430,429,-1,429,430,431,-1,429,431,428,-1,428,431,432,-1,428,432,427,-1,427,432,433,-1,427,433,426,-1,426,433,434,-1,426,434,425,-1,425,434,435,-1,425,435,424,-1,424,435,436,-1,424,436,423,-1,423,436,437,-1,423,437,422,-1,422,437,397,-1,422,397,420,-1,420,397,396,-1,420,396,421,-1,438,439,440,-1,440,439,395,-1,395,397,440,-1,440,397,437,-1,440,437,441,-1,441,437,436,-1,441,436,442,-1,442,436,435,-1,442,435,443,-1,443,435,434,-1,443,434,444,-1,444,434,433,-1,444,433,445,-1,445,433,432,-1,445,432,446,-1,446,432,431,-1,446,431,447,-1,447,431,430,-1,447,430,448,-1,449,450,438,-1,285,283,430,-1,430,283,281,-1,430,281,448,-1,448,281,279,-1,448,279,277,-1,438,440,449,-1,449,440,441,-1,449,441,451,-1,451,441,442,-1,451,442,452,-1,452,442,443,-1,452,443,453,-1,453,443,444,-1,453,444,454,-1,454,444,445,-1,454,445,455,-1,455,445,446,-1,455,446,456,-1,456,446,447,-1,456,447,457,-1,457,447,448,-1,457,448,458,-1,458,448,277,-1,458,277,275,-1,275,459,458,-1,458,459,460,-1,458,460,457,-1,457,460,461,-1,457,461,456,-1,456,461,462,-1,456,462,455,-1,455,462,463,-1,455,463,454,-1,454,463,464,-1,454,464,453,-1,453,464,465,-1,453,465,452,-1,452,465,466,-1,452,466,451,-1,451,466,394,-1,451,394,449,-1,449,394,393,-1,449,393,450,-1,392,394,467,-1,467,394,466,-1,467,466,468,-1,468,466,465,-1,468,465,469,-1,469,465,464,-1,469,464,470,-1,470,464,463,-1,470,463,471,-1,471,463,462,-1,471,462,472,-1,472,462,461,-1,472,461,473,-1,473,461,460,-1,473,460,474,-1,474,460,459,-1,474,459,475,-1,390,476,467,-1,467,476,477,-1,467,477,392,-1,275,273,459,-1,459,273,271,-1,459,271,475,-1,475,271,269,-1,475,269,267,-1,390,467,391,-1,391,467,468,-1,391,468,478,-1,478,468,469,-1,478,469,479,-1,479,469,470,-1,479,470,480,-1,480,470,471,-1,480,471,481,-1,481,471,472,-1,481,472,482,-1,482,472,473,-1,482,473,483,-1,483,473,474,-1,483,474,484,-1,484,474,475,-1,484,475,485,-1,485,475,267,-1,485,267,265,-1,240,391,238,-1,238,391,478,-1,238,478,257,-1,257,478,479,-1,257,479,258,-1,258,479,480,-1,258,480,259,-1,259,480,481,-1,259,481,260,-1,260,481,482,-1,260,482,261,-1,261,482,483,-1,261,483,246,-1,246,483,484,-1,246,484,247,-1,247,484,485,-1,247,485,262,-1,262,485,265,-1,262,265,211,-1,203,234,486,-1,486,234,389,-1,486,389,487,-1,487,389,380,-1,487,380,488,-1,488,380,379,-1,488,379,489,-1,489,379,378,-1,489,378,490,-1,490,378,377,-1,490,377,491,-1,491,377,359,-1,491,359,492,-1,492,359,350,-1,492,350,493,-1,493,350,349,-1,493,349,494,-1,494,349,348,-1,494,348,495,-1,495,348,347,-1,495,347,496,-1,496,347,328,-1,496,328,497,-1,497,328,319,-1,497,319,498,-1,498,319,318,-1,498,318,499,-1,499,318,317,-1,499,317,500,-1,500,317,316,-1,500,316,162,-1,162,316,159,-1,89,92,501,-1,501,92,399,-1,501,399,502,-1,502,399,398,-1,502,398,503,-1,503,398,410,-1,503,410,504,-1,504,410,409,-1,504,409,505,-1,505,409,421,-1,505,421,506,-1,506,421,396,-1,506,396,507,-1,507,396,395,-1,507,395,508,-1,508,395,439,-1,508,439,509,-1,509,439,438,-1,509,438,510,-1,510,438,450,-1,510,450,511,-1,511,450,393,-1,511,393,512,-1,512,393,392,-1,512,392,513,-1,513,392,477,-1,513,477,514,-1,514,477,476,-1,514,476,515,-1,515,476,390,-1,515,390,200,-1,200,390,240,-1,203,486,516,-1,489,490,517,-1,494,495,518,-1,499,500,519,-1,500,162,168,-1,500,168,519,-1,519,168,170,-1,519,170,520,-1,170,163,520,-1,520,163,165,-1,520,165,521,-1,165,167,521,-1,521,167,175,-1,521,175,522,-1,522,175,174,-1,522,174,523,-1,174,177,523,-1,523,177,179,-1,523,179,524,-1,179,182,524,-1,524,182,184,-1,524,184,525,-1,525,184,186,-1,525,186,526,-1,186,188,526,-1,526,188,190,-1,526,190,527,-1,527,190,192,-1,527,192,194,-1,497,498,528,-1,528,498,499,-1,499,519,528,-1,528,519,520,-1,528,520,529,-1,529,520,521,-1,529,521,530,-1,530,521,522,-1,530,522,531,-1,531,522,523,-1,531,523,532,-1,532,523,524,-1,532,524,533,-1,533,524,525,-1,533,525,534,-1,534,525,526,-1,534,526,535,-1,535,526,527,-1,535,527,536,-1,537,496,497,-1,194,538,527,-1,527,538,539,-1,527,539,536,-1,536,539,540,-1,536,540,541,-1,497,528,537,-1,537,528,529,-1,537,529,542,-1,542,529,530,-1,542,530,543,-1,543,530,531,-1,543,531,544,-1,544,531,532,-1,544,532,545,-1,545,532,533,-1,545,533,546,-1,546,533,534,-1,546,534,547,-1,547,534,535,-1,547,535,548,-1,548,535,536,-1,548,536,549,-1,549,536,541,-1,549,541,550,-1,550,551,549,-1,549,551,552,-1,549,552,548,-1,548,552,553,-1,548,553,547,-1,547,553,554,-1,547,554,546,-1,546,554,555,-1,546,555,545,-1,545,555,556,-1,545,556,544,-1,544,556,557,-1,544,557,543,-1,543,557,558,-1,543,558,542,-1,542,558,518,-1,542,518,537,-1,537,518,495,-1,537,495,496,-1,492,493,559,-1,559,493,494,-1,494,518,559,-1,559,518,558,-1,559,558,560,-1,560,558,557,-1,560,557,561,-1,561,557,556,-1,561,556,562,-1,562,556,555,-1,562,555,563,-1,563,555,554,-1,563,554,564,-1,564,554,553,-1,564,553,565,-1,565,553,552,-1,565,552,566,-1,566,552,551,-1,566,551,567,-1,568,491,492,-1,550,569,551,-1,551,569,570,-1,551,570,567,-1,567,570,571,-1,567,571,572,-1,492,559,568,-1,568,559,560,-1,568,560,573,-1,573,560,561,-1,573,561,574,-1,574,561,562,-1,574,562,575,-1,575,562,563,-1,575,563,576,-1,576,563,564,-1,576,564,577,-1,577,564,565,-1,577,565,578,-1,578,565,566,-1,578,566,579,-1,579,566,567,-1,579,567,580,-1,580,567,572,-1,580,572,581,-1,581,582,580,-1,580,582,583,-1,580,583,579,-1,579,583,584,-1,579,584,578,-1,578,584,585,-1,578,585,577,-1,577,585,586,-1,577,586,576,-1,576,586,587,-1,576,587,575,-1,575,587,588,-1,575,588,574,-1,574,588,589,-1,574,589,573,-1,573,589,517,-1,573,517,568,-1,568,517,490,-1,568,490,491,-1,489,517,590,-1,590,517,589,-1,590,589,591,-1,591,589,588,-1,591,588,592,-1,592,588,587,-1,592,587,593,-1,593,587,586,-1,593,586,594,-1,594,586,585,-1,594,585,595,-1,595,585,584,-1,595,584,596,-1,596,584,583,-1,596,583,597,-1,597,583,582,-1,597,582,598,-1,486,487,590,-1,590,487,488,-1,590,488,489,-1,581,599,582,-1,582,599,600,-1,582,600,598,-1,598,600,601,-1,598,601,602,-1,486,590,516,-1,516,590,591,-1,516,591,603,-1,603,591,592,-1,603,592,604,-1,604,592,593,-1,604,593,605,-1,605,593,594,-1,605,594,606,-1,606,594,595,-1,606,595,607,-1,607,595,596,-1,607,596,608,-1,608,596,597,-1,608,597,609,-1,609,597,598,-1,609,598,610,-1,610,598,602,-1,610,602,611,-1,203,516,215,-1,215,516,603,-1,215,603,216,-1,216,603,604,-1,216,604,217,-1,217,604,605,-1,217,605,218,-1,218,605,606,-1,218,606,219,-1,219,606,607,-1,219,607,220,-1,220,607,608,-1,220,608,230,-1,230,608,609,-1,230,609,231,-1,231,609,610,-1,231,610,232,-1,232,610,611,-1,232,611,205,-1,225,612,613,-1,614,615,616,-1,617,618,619,-1,620,621,622,-1,621,61,63,-1,621,63,622,-1,622,63,65,-1,622,65,623,-1,65,56,623,-1,623,56,58,-1,623,58,624,-1,58,60,624,-1,624,60,70,-1,624,70,625,-1,625,70,69,-1,625,69,626,-1,69,72,626,-1,626,72,74,-1,626,74,627,-1,74,77,627,-1,627,77,79,-1,627,79,628,-1,628,79,81,-1,628,81,629,-1,81,83,629,-1,629,83,85,-1,629,85,630,-1,630,85,87,-1,630,87,89,-1,631,632,633,-1,633,632,620,-1,620,622,633,-1,633,622,623,-1,633,623,634,-1,634,623,624,-1,634,624,635,-1,635,624,625,-1,635,625,636,-1,636,625,626,-1,636,626,637,-1,637,626,627,-1,637,627,638,-1,638,627,628,-1,638,628,639,-1,639,628,629,-1,639,629,640,-1,640,629,630,-1,640,630,641,-1,642,643,631,-1,89,501,630,-1,630,501,502,-1,630,502,641,-1,641,502,503,-1,641,503,504,-1,631,633,642,-1,642,633,634,-1,642,634,644,-1,644,634,635,-1,644,635,645,-1,645,635,636,-1,645,636,646,-1,646,636,637,-1,646,637,647,-1,647,637,638,-1,647,638,648,-1,648,638,639,-1,648,639,649,-1,649,639,640,-1,649,640,650,-1,650,640,641,-1,650,641,651,-1,651,641,504,-1,651,504,505,-1,505,652,651,-1,651,652,653,-1,651,653,650,-1,650,653,654,-1,650,654,649,-1,649,654,655,-1,649,655,648,-1,648,655,656,-1,648,656,647,-1,647,656,657,-1,647,657,646,-1,646,657,658,-1,646,658,645,-1,645,658,659,-1,645,659,644,-1,644,659,619,-1,644,619,642,-1,642,619,618,-1,642,618,643,-1,660,661,662,-1,662,661,617,-1,617,619,662,-1,662,619,659,-1,662,659,663,-1,663,659,658,-1,663,658,664,-1,664,658,657,-1,664,657,665,-1,665,657,656,-1,665,656,666,-1,666,656,655,-1,666,655,667,-1,667,655,654,-1,667,654,668,-1,668,654,653,-1,668,653,669,-1,669,653,652,-1,669,652,670,-1,671,672,660,-1,505,506,652,-1,652,506,507,-1,652,507,670,-1,670,507,508,-1,670,508,509,-1,660,662,671,-1,671,662,663,-1,671,663,673,-1,673,663,664,-1,673,664,674,-1,674,664,665,-1,674,665,675,-1,675,665,666,-1,675,666,676,-1,676,666,667,-1,676,667,677,-1,677,667,668,-1,677,668,678,-1,678,668,669,-1,678,669,679,-1,679,669,670,-1,679,670,680,-1,680,670,509,-1,680,509,510,-1,510,681,680,-1,680,681,682,-1,680,682,679,-1,679,682,683,-1,679,683,678,-1,678,683,684,-1,678,684,677,-1,677,684,685,-1,677,685,676,-1,676,685,686,-1,676,686,675,-1,675,686,687,-1,675,687,674,-1,674,687,688,-1,674,688,673,-1,673,688,616,-1,673,616,671,-1,671,616,615,-1,671,615,672,-1,614,616,689,-1,689,616,688,-1,689,688,690,-1,690,688,687,-1,690,687,691,-1,691,687,686,-1,691,686,692,-1,692,686,685,-1,692,685,693,-1,693,685,684,-1,693,684,694,-1,694,684,683,-1,694,683,695,-1,695,683,682,-1,695,682,696,-1,696,682,681,-1,696,681,697,-1,612,698,689,-1,689,698,699,-1,689,699,614,-1,510,511,681,-1,681,511,512,-1,681,512,697,-1,697,512,513,-1,697,513,514,-1,612,689,613,-1,613,689,690,-1,613,690,700,-1,700,690,691,-1,700,691,701,-1,701,691,692,-1,701,692,702,-1,702,692,693,-1,702,693,703,-1,703,693,694,-1,703,694,704,-1,704,694,695,-1,704,695,705,-1,705,695,696,-1,705,696,706,-1,706,696,697,-1,706,697,707,-1,707,697,514,-1,707,514,515,-1,225,613,227,-1,227,613,700,-1,227,700,228,-1,228,700,701,-1,228,701,229,-1,229,701,702,-1,229,702,248,-1,248,702,703,-1,248,703,249,-1,249,703,704,-1,249,704,250,-1,250,704,705,-1,250,705,251,-1,251,705,706,-1,251,706,252,-1,252,706,707,-1,252,707,199,-1,199,707,515,-1,199,515,200,-1,194,61,538,-1,538,61,621,-1,538,621,539,-1,539,621,620,-1,539,620,540,-1,540,620,632,-1,540,632,541,-1,541,632,631,-1,541,631,550,-1,550,631,643,-1,550,643,569,-1,569,643,618,-1,569,618,570,-1,570,618,617,-1,570,617,571,-1,571,617,661,-1,571,661,572,-1,572,661,660,-1,572,660,581,-1,581,660,672,-1,581,672,599,-1,599,672,615,-1,599,615,600,-1,600,615,614,-1,600,614,601,-1,601,614,699,-1,601,699,602,-1,602,699,698,-1,602,698,611,-1,611,698,612,-1,611,612,205,-1,205,612,225,-1,86,84,708,-1,76,75,709,-1,710,711,712,-1,713,710,714,-1,715,713,716,-1,717,715,718,-1,719,717,720,-1,721,719,722,-1,723,721,724,-1,725,723,726,-1,727,725,728,-1,729,727,730,-1,731,729,732,-1,731,732,733,-1,733,732,734,-1,733,734,735,-1,735,734,736,-1,735,736,737,-1,737,736,738,-1,737,738,739,-1,739,738,740,-1,739,740,741,-1,741,740,64,-1,741,64,62,-1,742,67,66,-1,729,730,732,-1,732,730,743,-1,732,743,734,-1,734,743,744,-1,734,744,736,-1,736,744,745,-1,736,745,738,-1,738,745,742,-1,738,742,740,-1,740,742,66,-1,740,66,64,-1,727,728,730,-1,730,728,746,-1,730,746,743,-1,743,746,747,-1,743,747,744,-1,744,747,748,-1,744,748,745,-1,745,748,749,-1,745,749,742,-1,742,749,57,-1,742,57,67,-1,750,71,59,-1,725,726,728,-1,728,726,751,-1,728,751,746,-1,746,751,752,-1,746,752,747,-1,747,752,753,-1,747,753,748,-1,748,753,750,-1,748,750,749,-1,749,750,59,-1,749,59,57,-1,754,73,68,-1,723,724,726,-1,726,724,755,-1,726,755,751,-1,751,755,756,-1,751,756,752,-1,752,756,757,-1,752,757,753,-1,753,757,754,-1,753,754,750,-1,750,754,68,-1,750,68,71,-1,721,722,724,-1,724,722,758,-1,724,758,755,-1,755,758,759,-1,755,759,756,-1,756,759,760,-1,756,760,757,-1,757,760,709,-1,757,709,754,-1,754,709,75,-1,754,75,73,-1,719,720,722,-1,722,720,761,-1,722,761,758,-1,758,761,762,-1,758,762,759,-1,759,762,763,-1,759,763,760,-1,760,763,764,-1,760,764,709,-1,709,764,78,-1,709,78,76,-1,765,82,80,-1,717,718,720,-1,720,718,766,-1,720,766,761,-1,761,766,767,-1,761,767,762,-1,762,767,768,-1,762,768,763,-1,763,768,765,-1,763,765,764,-1,764,765,80,-1,764,80,78,-1,715,716,718,-1,718,716,769,-1,718,769,766,-1,766,769,770,-1,766,770,767,-1,767,770,771,-1,767,771,768,-1,768,771,708,-1,768,708,765,-1,765,708,84,-1,765,84,82,-1,713,714,716,-1,716,714,772,-1,716,772,769,-1,769,772,773,-1,769,773,770,-1,770,773,774,-1,770,774,771,-1,771,774,775,-1,771,775,708,-1,708,775,88,-1,708,88,86,-1,710,712,714,-1,714,712,776,-1,714,776,772,-1,772,776,777,-1,772,777,773,-1,773,777,778,-1,773,778,774,-1,774,778,779,-1,774,779,775,-1,775,779,90,-1,775,90,88,-1,91,90,780,-1,780,90,779,-1,780,779,781,-1,781,779,778,-1,781,778,782,-1,782,778,777,-1,782,777,783,-1,783,777,776,-1,783,776,784,-1,784,776,712,-1,784,712,785,-1,785,712,711,-1,62,195,741,-1,741,195,786,-1,741,786,739,-1,739,786,787,-1,739,787,737,-1,737,787,788,-1,737,788,735,-1,735,788,789,-1,735,789,733,-1,733,789,790,-1,733,790,731,-1,731,790,791,-1,121,119,792,-1,111,109,793,-1,794,795,796,-1,797,794,798,-1,799,797,800,-1,801,799,802,-1,803,801,804,-1,805,803,806,-1,807,805,808,-1,809,807,810,-1,811,809,812,-1,813,811,814,-1,785,813,815,-1,785,815,784,-1,784,815,816,-1,784,816,783,-1,783,816,817,-1,783,817,782,-1,782,817,818,-1,782,818,781,-1,781,818,819,-1,781,819,780,-1,780,819,94,-1,780,94,91,-1,820,98,96,-1,813,814,815,-1,815,814,821,-1,815,821,816,-1,816,821,822,-1,816,822,817,-1,817,822,823,-1,817,823,818,-1,818,823,820,-1,818,820,819,-1,819,820,96,-1,819,96,94,-1,811,812,814,-1,814,812,824,-1,814,824,821,-1,821,824,825,-1,821,825,822,-1,822,825,826,-1,822,826,823,-1,823,826,827,-1,823,827,820,-1,820,827,99,-1,820,99,98,-1,828,104,101,-1,809,810,812,-1,812,810,829,-1,812,829,824,-1,824,829,830,-1,824,830,825,-1,825,830,831,-1,825,831,826,-1,826,831,828,-1,826,828,827,-1,827,828,101,-1,827,101,99,-1,832,107,105,-1,807,808,810,-1,810,808,833,-1,810,833,829,-1,829,833,834,-1,829,834,830,-1,830,834,835,-1,830,835,831,-1,831,835,832,-1,831,832,828,-1,828,832,105,-1,828,105,104,-1,805,806,808,-1,808,806,836,-1,808,836,833,-1,833,836,837,-1,833,837,834,-1,834,837,838,-1,834,838,835,-1,835,838,793,-1,835,793,832,-1,832,793,109,-1,832,109,107,-1,803,804,806,-1,806,804,839,-1,806,839,836,-1,836,839,840,-1,836,840,837,-1,837,840,841,-1,837,841,838,-1,838,841,842,-1,838,842,793,-1,793,842,113,-1,793,113,111,-1,843,117,115,-1,801,802,804,-1,804,802,844,-1,804,844,839,-1,839,844,845,-1,839,845,840,-1,840,845,846,-1,840,846,841,-1,841,846,843,-1,841,843,842,-1,842,843,115,-1,842,115,113,-1,799,800,802,-1,802,800,847,-1,802,847,844,-1,844,847,848,-1,844,848,845,-1,845,848,849,-1,845,849,846,-1,846,849,792,-1,846,792,843,-1,843,792,119,-1,843,119,117,-1,797,798,800,-1,800,798,850,-1,800,850,847,-1,847,850,851,-1,847,851,848,-1,848,851,852,-1,848,852,849,-1,849,852,853,-1,849,853,792,-1,792,853,123,-1,792,123,121,-1,794,796,798,-1,798,796,854,-1,798,854,850,-1,850,854,855,-1,850,855,851,-1,851,855,856,-1,851,856,852,-1,852,856,857,-1,852,857,853,-1,853,857,125,-1,853,125,123,-1,191,189,858,-1,181,180,859,-1,860,791,790,-1,861,860,862,-1,863,861,864,-1,865,863,866,-1,867,865,868,-1,869,867,870,-1,871,869,872,-1,873,871,874,-1,875,873,876,-1,877,875,878,-1,879,877,880,-1,879,880,881,-1,881,880,882,-1,881,882,883,-1,883,882,884,-1,883,884,885,-1,885,884,886,-1,885,886,887,-1,887,886,888,-1,887,888,889,-1,889,888,169,-1,889,169,161,-1,890,172,171,-1,877,878,880,-1,880,878,891,-1,880,891,882,-1,882,891,892,-1,882,892,884,-1,884,892,893,-1,884,893,886,-1,886,893,890,-1,886,890,888,-1,888,890,171,-1,888,171,169,-1,875,876,878,-1,878,876,894,-1,878,894,891,-1,891,894,895,-1,891,895,892,-1,892,895,896,-1,892,896,893,-1,893,896,897,-1,893,897,890,-1,890,897,164,-1,890,164,172,-1,898,176,166,-1,873,874,876,-1,876,874,899,-1,876,899,894,-1,894,899,900,-1,894,900,895,-1,895,900,901,-1,895,901,896,-1,896,901,898,-1,896,898,897,-1,897,898,166,-1,897,166,164,-1,902,178,173,-1,871,872,874,-1,874,872,903,-1,874,903,899,-1,899,903,904,-1,899,904,900,-1,900,904,905,-1,900,905,901,-1,901,905,902,-1,901,902,898,-1,898,902,173,-1,898,173,176,-1,869,870,872,-1,872,870,906,-1,872,906,903,-1,903,906,907,-1,903,907,904,-1,904,907,908,-1,904,908,905,-1,905,908,859,-1,905,859,902,-1,902,859,180,-1,902,180,178,-1,867,868,870,-1,870,868,909,-1,870,909,906,-1,906,909,910,-1,906,910,907,-1,907,910,911,-1,907,911,908,-1,908,911,912,-1,908,912,859,-1,859,912,183,-1,859,183,181,-1,913,187,185,-1,865,866,868,-1,868,866,914,-1,868,914,909,-1,909,914,915,-1,909,915,910,-1,910,915,916,-1,910,916,911,-1,911,916,913,-1,911,913,912,-1,912,913,185,-1,912,185,183,-1,863,864,866,-1,866,864,917,-1,866,917,914,-1,914,917,918,-1,914,918,915,-1,915,918,919,-1,915,919,916,-1,916,919,858,-1,916,858,913,-1,913,858,189,-1,913,189,187,-1,861,862,864,-1,864,862,920,-1,864,920,917,-1,917,920,921,-1,917,921,918,-1,918,921,922,-1,918,922,919,-1,919,922,923,-1,919,923,858,-1,858,923,193,-1,858,193,191,-1,860,790,862,-1,862,790,789,-1,862,789,920,-1,920,789,788,-1,920,788,921,-1,921,788,787,-1,921,787,922,-1,922,787,786,-1,922,786,923,-1,923,786,195,-1,923,195,193,-1,126,125,924,-1,924,125,857,-1,924,857,925,-1,925,857,856,-1,925,856,926,-1,926,856,855,-1,926,855,927,-1,927,855,854,-1,927,854,928,-1,928,854,796,-1,928,796,929,-1,929,796,795,-1,161,160,889,-1,889,160,930,-1,889,930,887,-1,887,930,931,-1,887,931,885,-1,885,931,932,-1,885,932,883,-1,883,932,933,-1,883,933,881,-1,881,933,934,-1,881,934,879,-1,879,934,935,-1,156,154,936,-1,146,144,937,-1,938,935,934,-1,939,938,940,-1,941,939,942,-1,943,941,944,-1,945,943,946,-1,947,945,948,-1,949,947,950,-1,951,949,952,-1,953,951,954,-1,955,953,956,-1,929,955,957,-1,929,957,928,-1,928,957,958,-1,928,958,927,-1,927,958,959,-1,927,959,926,-1,926,959,960,-1,926,960,925,-1,925,960,961,-1,925,961,924,-1,924,961,129,-1,924,129,126,-1,962,133,131,-1,955,956,957,-1,957,956,963,-1,957,963,958,-1,958,963,964,-1,958,964,959,-1,959,964,965,-1,959,965,960,-1,960,965,962,-1,960,962,961,-1,961,962,131,-1,961,131,129,-1,953,954,956,-1,956,954,966,-1,956,966,963,-1,963,966,967,-1,963,967,964,-1,964,967,968,-1,964,968,965,-1,965,968,969,-1,965,969,962,-1,962,969,134,-1,962,134,133,-1,970,139,136,-1,951,952,954,-1,954,952,971,-1,954,971,966,-1,966,971,972,-1,966,972,967,-1,967,972,973,-1,967,973,968,-1,968,973,970,-1,968,970,969,-1,969,970,136,-1,969,136,134,-1,974,142,140,-1,949,950,952,-1,952,950,975,-1,952,975,971,-1,971,975,976,-1,971,976,972,-1,972,976,977,-1,972,977,973,-1,973,977,974,-1,973,974,970,-1,970,974,140,-1,970,140,139,-1,947,948,950,-1,950,948,978,-1,950,978,975,-1,975,978,979,-1,975,979,976,-1,976,979,980,-1,976,980,977,-1,977,980,937,-1,977,937,974,-1,974,937,144,-1,974,144,142,-1,945,946,948,-1,948,946,981,-1,948,981,978,-1,978,981,982,-1,978,982,979,-1,979,982,983,-1,979,983,980,-1,980,983,984,-1,980,984,937,-1,937,984,148,-1,937,148,146,-1,985,152,150,-1,943,944,946,-1,946,944,986,-1,946,986,981,-1,981,986,987,-1,981,987,982,-1,982,987,988,-1,982,988,983,-1,983,988,985,-1,983,985,984,-1,984,985,150,-1,984,150,148,-1,941,942,944,-1,944,942,989,-1,944,989,986,-1,986,989,990,-1,986,990,987,-1,987,990,991,-1,987,991,988,-1,988,991,936,-1,988,936,985,-1,985,936,154,-1,985,154,152,-1,939,940,942,-1,942,940,992,-1,942,992,989,-1,989,992,993,-1,989,993,990,-1,990,993,994,-1,990,994,991,-1,991,994,995,-1,991,995,936,-1,936,995,158,-1,936,158,156,-1,938,934,940,-1,940,934,933,-1,940,933,992,-1,992,933,932,-1,992,932,993,-1,993,932,931,-1,993,931,994,-1,994,931,930,-1,994,930,995,-1,995,930,160,-1,995,160,158,-1,
        ]
    }
}
Shape{
    appearance Appearance {
        material  Material 	{
            diffuseColor 0.9686274509803922 0.8784313725490196 0.6
            specularColor 0.6784313725490196 0.615686274509804 0.4196078431372549
            ambientIntensity 0.8737
            transparency 0.0
            shininess 0.5
        }
    }
    geometry IndexedFaceSet {
        ccw TRUE
        solid FALSE
        coord DEF co Coordinate {
            point [
                0.8032 -0.0 0.0, 0.8032 -0.0 0.0039, 0.7977 0.0452 0.0, 0.7977 0.0452 0.0039, 0.7815 0.0878 0.0, 0.7815 0.0878 0.0039, 0.7556 0.1253 0.0, 0.7556 0.1253 0.0039, 0.7215 0.1555 0.0, 0.7215 0.1555 0.0039, 0.6812 0.1767 0.0, 0.6812 0.1767 0.0039, 0.637 0.1876 0.0, 0.637 0.1876 0.0039, 0.5914 0.1876 0.0, 0.5914 0.1876 0.0039, 0.5472 0.1767 0.0, 0.5472 0.1767 0.0039, 0.5068 0.1555 0.0, 0.5068 0.1555 0.0039, 0.4727 0.1253 0.0, 0.4727 0.1253 0.0039, 0.4468 0.0878 0.0, 0.4468 0.0878 0.0039, 0.4307 0.0452 0.0, 0.4307 0.0452 0.0039, 0.4252 -0.0 0.0, 0.4252 -0.0 0.0039, 0.4307 -0.0452 0.0, 0.4307 -0.0452 0.0039, 0.4468 -0.0878 0.0, 0.4468 -0.0878 0.0039, 0.4727 -0.1253 0.0, 0.4727 -0.1253 0.0039, 0.5068 -0.1555 0.0, 0.5068 -0.1555 0.0039, 0.5472 -0.1767 0.0, 0.5472 -0.1767 0.0039, 0.5914 -0.1876 0.0, 0.5914 -0.1876 0.0039, 0.637 -0.1876 0.0, 0.637 -0.1876 0.0039, 0.6812 -0.1767 0.0, 0.6812 -0.1767 0.0039, 0.7215 -0.1555 0.0, 0.7215 -0.1555 0.0039, 0.7556 -0.1253 0.0, 0.7556 -0.1253 0.0039, 0.7815 -0.0878 0.0, 0.7815 -0.0878 0.0039, 0.7977 -0.0452 0.0, 0.7977 -0.0452 0.0039, 0.9154 -0.0599 0.0, 0.8979 -0.1175 0.0039, 0.8979 -0.1175 0.0, 0.8695 -0.1706 0.0039, 0.8695 -0.1706 0.0, 0.8313 -0.2171 0.0039, 0.8313 -0.2171 0.0, 0.7848 -0.2553 0.0039, 0.7848 -0.2553 0.0, 0.7317 -0.2837 0.0039, 0.7317 -0.2837 0.0, 0.6741 -0.3012 0.0039, 0.6741 -0.3012 0.0, 0.6142 -0.3071 0.0039, 0.6142 -0.3071 0.0, 0.5543 -0.3012 0.0039, 0.5543 -0.3012 0.0, 0.4967 -0.2837 0.0039, 0.4967 -0.2837 0.0, 0.4436 -0.2553 0.0039, 0.4436 -0.2553 0.0, 0.4262 -0.2411 0.0039, 0.397 -0.2171 0.0, 0.397 -0.2171 0.0039, 0.3588 -0.1706 0.0039, 0.3588 -0.1706 0.0, 0.3305 -0.1175 0.0039, 0.3305 -0.1175 0.0, 0.313 -0.0599 0.0039, 0.313 -0.0599 0.0, 0.3101 -0.0302 0.0039, 0.3071 -0.0 0.0, 0.4262 0.2411 0.0039, 0.4436 0.2553 0.0, 0.397 0.2171 0.0, 0.3071 -0.0 0.0039, 0.313 0.0599 0.0039, 0.313 0.0599 0.0, 0.3305 0.1175 0.0039, 0.3305 0.1175 0.0, 0.3588 0.1706 0.0039, 0.3588 0.1706 0.0, 0.3818 0.1986 0.0039, 0.397 0.2171 0.0039, 0.4436 0.2553 0.0039, 0.4967 0.2837 0.0039, 0.4967 0.2837 0.0, 0.5543 0.3012 0.0039, 0.5543 0.3012 0.0, 0.6142 0.3071 0.0039, 0.6142 0.3071 0.0, 0.6741 0.3012 0.0039, 0.6741 0.3012 0.0, 0.7317 0.2837 0.0039, 0.7317 0.2837 0.0, 0.7848 0.2553 0.0039, 0.7848 0.2553 0.0, 0.8313 0.2171 0.0039, 0.8313 0.2171 0.0, 0.8465 0.1986 0.0039, 0.8695 0.1706 0.0, 0.8695 0.1706 0.0039, 0.8979 0.1175 0.0039, 0.8979 0.1175 0.0, 0.9154 0.0599 0.0039, 0.9154 0.0599 0.0, 0.9213 -0.0 0.0039, 0.9213 -0.0 0.0, 0.9183 -0.0302 0.0039, 0.9154 -0.0599 0.0039
            ]
        }
        coordIndex [
            0,1,2,-1,2,1,3,-1,2,3,4,-1,4,3,5,-1,4,5,6,-1,6,5,7,-1,6,7,8,-1,8,7,9,-1,8,9,10,-1,10,9,11,-1,10,11,12,-1,12,11,13,-1,12,13,14,-1,14,13,15,-1,14,15,16,-1,16,15,17,-1,16,17,18,-1,18,17,19,-1,18,19,20,-1,20,19,21,-1,20,21,22,-1,22,21,23,-1,22,23,24,-1,24,23,25,-1,24,25,26,-1,26,25,27,-1,26,27,28,-1,28,27,29,-1,28,29,30,-1,30,29,31,-1,30,31,32,-1,32,31,33,-1,32,33,34,-1,34,33,35,-1,34,35,36,-1,36,35,37,-1,36,37,38,-1,38,37,39,-1,38,39,40,-1,40,39,41,-1,40,41,42,-1,42,41,43,-1,42,43,44,-1,44,43,45,-1,44,45,46,-1,46,45,47,-1,46,47,48,-1,48,47,49,-1,48,49,50,-1,50,49,51,-1,50,51,0,-1,0,51,1,-1,52,53,54,-1,54,53,55,-1,54,55,56,-1,56,55,57,-1,56,57,58,-1,58,57,59,-1,58,59,60,-1,60,59,61,-1,60,61,62,-1,62,61,63,-1,62,63,64,-1,64,63,65,-1,64,65,66,-1,66,65,67,-1,66,67,68,-1,68,67,69,-1,68,69,70,-1,70,69,71,-1,70,71,72,-1,72,71,73,-1,72,73,74,-1,73,75,74,-1,74,75,76,-1,74,76,77,-1,77,76,78,-1,77,78,79,-1,79,78,80,-1,79,80,81,-1,81,80,82,-1,81,82,83,-1,84,85,86,-1,82,87,83,-1,83,87,88,-1,83,88,89,-1,89,88,90,-1,89,90,91,-1,91,90,92,-1,91,92,93,-1,93,92,94,-1,93,94,86,-1,86,94,95,-1,86,95,84,-1,84,96,85,-1,85,96,97,-1,85,97,98,-1,98,97,99,-1,98,99,100,-1,100,99,101,-1,100,101,102,-1,102,101,103,-1,102,103,104,-1,104,103,105,-1,104,105,106,-1,106,105,107,-1,106,107,108,-1,108,107,109,-1,108,109,110,-1,110,109,111,-1,110,111,112,-1,111,113,112,-1,112,113,114,-1,112,114,115,-1,115,114,116,-1,115,116,117,-1,117,116,118,-1,117,118,119,-1,119,118,120,-1,119,120,52,-1,52,120,121,-1,52,121,53,-1,32,77,30,-1,30,77,79,-1,30,79,28,-1,28,79,81,-1,28,81,26,-1,26,81,83,-1,26,83,24,-1,24,83,89,-1,24,89,22,-1,6,112,4,-1,4,112,115,-1,4,115,2,-1,2,115,117,-1,2,117,0,-1,0,117,119,-1,0,119,50,-1,50,119,52,-1,50,52,48,-1,40,66,38,-1,38,66,68,-1,38,68,36,-1,36,68,70,-1,36,70,34,-1,34,70,72,-1,34,72,32,-1,32,72,74,-1,32,74,77,-1,52,54,48,-1,48,54,56,-1,48,56,46,-1,46,56,58,-1,46,58,44,-1,44,58,60,-1,44,60,42,-1,42,60,62,-1,42,62,40,-1,40,62,64,-1,40,64,66,-1,14,102,12,-1,12,102,104,-1,12,104,10,-1,10,104,106,-1,10,106,8,-1,8,106,108,-1,8,108,6,-1,6,108,110,-1,6,110,112,-1,89,91,22,-1,22,91,93,-1,22,93,20,-1,20,93,86,-1,20,86,18,-1,18,86,85,-1,18,85,16,-1,16,85,98,-1,16,98,14,-1,14,98,100,-1,14,100,102,-1,
        ]
    }
}
Shape{
    appearance Appearance {
        material  Material 	{
            diffuseColor 0.2 0.4627450980392157 0.23137254901960785
            specularColor 0.01568627450980392 0.03137254901960784 0.01568627450980392
            ambientIntensity 0.5122
            transparency 0.0
            shininess 0.5
        }
    }
    geometry IndexedFaceSet {
        ccw TRUE
        solid FALSE
        coord DEF co Coordinate {
            point [
                0.6142 0.0492 0.0039, 0.637 0.1876 0.0039, 0.6269 0.0475 0.0039, 0.6812 0.1767 0.0039, 0.6388 0.0426 0.0039, 0.7215 0.1555 0.0039, 0.649 0.0348 0.0039, 0.7556 0.1253 0.0039, 0.6568 0.0246 0.0039, 0.7815 0.0878 0.0039, 0.6617 0.0127 0.0039, 0.7977 0.0452 0.0039, 0.6634 -0.0 0.0039, 0.8032 -0.0 0.0039, 0.6617 -0.0127 0.0039, 0.7977 -0.0452 0.0039, 0.6568 -0.0246 0.0039, 0.7815 -0.0878 0.0039, 0.649 -0.0348 0.0039, 0.7556 -0.1253 0.0039, 0.6388 -0.0426 0.0039, 0.7215 -0.1555 0.0039, 0.6269 -0.0475 0.0039, 0.6812 -0.1767 0.0039, 0.6142 -0.0492 0.0039, 0.637 -0.1876 0.0039, 0.5914 -0.1876 0.0039, 0.6014 -0.0475 0.0039, 0.5472 -0.1767 0.0039, 0.5896 -0.0426 0.0039, 0.5068 -0.1555 0.0039, 0.5794 -0.0348 0.0039, 0.4727 -0.1253 0.0039, 0.5716 -0.0246 0.0039, 0.4468 -0.0878 0.0039, 0.5666 -0.0127 0.0039, 0.4307 -0.0452 0.0039, 0.565 -0.0 0.0039, 0.4252 -0.0 0.0039, 0.5666 0.0127 0.0039, 0.4307 0.0452 0.0039, 0.5716 0.0246 0.0039, 0.4468 0.0878 0.0039, 0.5794 0.0348 0.0039, 0.4727 0.1253 0.0039, 0.5896 0.0426 0.0039, 0.5068 0.1555 0.0039, 0.6014 0.0475 0.0039, 0.5472 0.1767 0.0039, 0.5914 0.1876 0.0039
            ]
        }
        coordIndex [
            0,1,2,-1,2,1,3,-1,2,3,4,-1,4,3,5,-1,4,5,6,-1,6,5,7,-1,6,7,8,-1,8,7,9,-1,8,9,10,-1,10,9,11,-1,10,11,12,-1,12,11,13,-1,12,13,14,-1,14,13,15,-1,14,15,16,-1,16,15,17,-1,16,17,18,-1,18,17,19,-1,18,19,20,-1,20,19,21,-1,20,21,22,-1,22,21,23,-1,22,23,24,-1,23,25,24,-1,24,25,26,-1,24,26,27,-1,27,26,28,-1,27,28,29,-1,29,28,30,-1,29,30,31,-1,31,30,32,-1,31,32,33,-1,33,32,34,-1,33,34,35,-1,35,34,36,-1,35,36,37,-1,37,36,38,-1,37,38,39,-1,39,38,40,-1,39,40,41,-1,41,40,42,-1,41,42,43,-1,43,42,44,-1,43,44,45,-1,45,44,46,-1,45,46,47,-1,47,46,48,-1,47,48,0,-1,0,48,49,-1,0,49,1,-1,
        ]
    }
}
Shape{
    appearance Appearance {
        material  Material 	{
            diffuseColor 0.9686274509803922 0.8784313725490196 0.6
            specularColor 0.6784313725490196 0.615686274509804 0.4196078431372549
            ambientIntensity 0.8737
            transparency 0.0
            shininess 0.5
        }
    }
    geometry IndexedFaceSet {
        ccw TRUE
        solid FALSE
        coord DEF co Coordinate {
            point [
                0.5453 0.4154 0.0039, 0.5453 0.6319 0.0039, 0.5453 0.4154 0.0, 0.5453 0.6319 0.0, 0.6831 0.6319 0.0039, 0.6831 0.6319 0.0, 0.6831 0.4154 0.0039, 0.6831 0.4154 0.0, 0.1319 0.6319 0.0039, 0.2697 0.6319 0.0039, 0.1319 0.6319 0.0, 0.2697 0.6319 0.0, 0.2697 0.4154 0.0039, 0.2697 0.4154 0.0, 0.1319 0.4154 0.0039, 0.1319 0.4154 0.0, -0.1437 0.6319 0.0039, -0.1437 0.6319 0.0, -0.2351 0.6319 0.0039, -0.2815 0.6319 0.0, -0.2815 0.6319 0.0039, -0.1437 0.4154 0.0039, -0.1437 0.4154 0.0, -0.2815 0.4154 0.0039, -0.2815 0.4154 0.0, -0.2351 0.4154 0.0039, -0.6949 0.6319 0.0039, -0.5571 0.6319 0.0039, -0.6949 0.6319 0.0, -0.5571 0.6319 0.0, -0.5571 0.4154 0.0039, -0.5571 0.4154 0.0, -0.6949 0.4154 0.0039, -0.6949 0.4154 0.0, 0.6831 -0.4154 0.0039, 0.6831 -0.6319 0.0039, 0.6831 -0.4154 0.0, 0.6831 -0.6319 0.0, 0.5453 -0.6319 0.0039, 0.5453 -0.6319 0.0, 0.5453 -0.4154 0.0039, 0.5453 -0.4154 0.0, -0.5571 -0.4154 0.0039, -0.5571 -0.6319 0.0039, -0.5571 -0.4154 0.0, -0.5571 -0.6319 0.0, -0.6949 -0.6319 0.0039, -0.6949 -0.6319 0.0, -0.6949 -0.4154 0.0039, -0.6949 -0.4154 0.0, -0.1437 -0.4154 0.0039, -0.1437 -0.6319 0.0039, -0.1437 -0.4154 0.0, -0.1437 -0.6319 0.0, -0.2815 -0.6319 0.0039, -0.2815 -0.6319 0.0, -0.2351 -0.6319 0.0039, -0.2815 -0.4154 0.0039, -0.2815 -0.4154 0.0, -0.2351 -0.4154 0.0039, 0.2697 -0.4154 0.0039, 0.2697 -0.6319 0.0039, 0.2697 -0.4154 0.0, 0.2697 -0.6319 0.0, 0.1319 -0.6319 0.0039, 0.1319 -0.6319 0.0, 0.1319 -0.4154 0.0039, 0.1319 -0.4154 0.0
            ]
        }
        coordIndex [
            0,1,2,-1,2,1,3,-1,1,4,3,-1,3,4,5,-1,4,6,5,-1,5,6,7,-1,6,0,7,-1,7,0,2,-1,3,5,2,-1,2,5,7,-1,8,9,10,-1,10,9,11,-1,9,12,11,-1,11,12,13,-1,12,14,13,-1,13,14,15,-1,14,8,15,-1,15,8,10,-1,11,13,10,-1,10,13,15,-1,16,17,18,-1,18,17,19,-1,18,19,20,-1,16,21,17,-1,17,21,22,-1,23,24,25,-1,25,24,22,-1,25,22,21,-1,23,20,24,-1,24,20,19,-1,17,22,19,-1,19,22,24,-1,26,27,28,-1,28,27,29,-1,27,30,29,-1,29,30,31,-1,30,32,31,-1,31,32,33,-1,32,26,33,-1,33,26,28,-1,29,31,28,-1,28,31,33,-1,34,35,36,-1,36,35,37,-1,35,38,37,-1,37,38,39,-1,38,40,39,-1,39,40,41,-1,40,34,41,-1,41,34,36,-1,37,39,36,-1,36,39,41,-1,42,43,44,-1,44,43,45,-1,43,46,45,-1,45,46,47,-1,46,48,47,-1,47,48,49,-1,48,42,49,-1,49,42,44,-1,45,47,44,-1,44,47,49,-1,50,51,52,-1,52,51,53,-1,54,55,56,-1,56,55,53,-1,56,53,51,-1,54,57,55,-1,55,57,58,-1,50,52,59,-1,59,52,58,-1,59,58,57,-1,53,55,52,-1,52,55,58,-1,60,61,62,-1,62,61,63,-1,61,64,63,-1,63,64,65,-1,64,66,65,-1,65,66,67,-1,66,60,67,-1,67,60,62,-1,63,65,62,-1,62,65,67,-1,
        ]
    }
}
Shape{
    appearance Appearance {
        material  Material 	{
            diffuseColor 0.0 0.0 0.0
            specularColor 0.0 0.0 0.0
            ambientIntensity 0.0
            transparency 0.0
            shininess 0.5
        }
    }
    geometry IndexedFaceSet {
        ccw TRUE
        solid FALSE
        coord DEF co Coordinate {
            point [
                -0.4109 0.0886 0.0043, -0.4569 -0.0295 0.0043, -0.4109 0.0886 0.0039, -0.4569 -0.0295 0.0039, -0.4397 -0.0295 0.0043, -0.4397 -0.0295 0.0039, -0.4277 0.0037 0.0043, -0.4277 0.0037 0.0039, -0.3789 0.0037 0.0043, -0.3789 0.0037 0.0039, -0.3676 -0.0295 0.0043, -0.3676 -0.0295 0.0039, -0.3504 -0.0295 0.0043, -0.3504 -0.0295 0.0039, -0.395 0.0886 0.0043, -0.395 0.0886 0.0039, -0.3829 0.0166 0.0043, -0.4224 0.0166 0.0043, -0.4005 0.0659 0.0043, -0.4017 0.07 0.0043, -0.4024 0.0742 0.0043, -0.4028 0.0742 0.0043, -0.4036 0.0701 0.0043, -0.4046 0.0659 0.0043, -0.3829 0.0166 0.0039, -0.4224 0.0166 0.0039, -0.4005 0.0659 0.0039, -0.4017 0.07 0.0039, -0.4024 0.0742 0.0039, -0.4028 0.0742 0.0039, -0.4036 0.0701 0.0039, -0.4046 0.0659 0.0039, -0.2788 -0.0295 0.0043, -0.2467 -0.0295 0.0043, -0.2788 -0.0295 0.0039, -0.2467 -0.0295 0.0039, -0.2467 0.0886 0.0043, -0.2467 0.0886 0.0039, -0.28 0.0886 0.0043, -0.28 0.0886 0.0039, -0.3237 0.0733 0.0039, -0.3238 0.0732 0.0043, -0.3238 0.0732 0.0039, -0.3322 0.064 0.0043, -0.3322 0.064 0.0039, -0.3377 0.0538 0.0043, -0.3377 0.0538 0.0039, -0.3409 0.0422 0.0043, -0.3409 0.0422 0.0039, -0.3417 0.0311 0.0043, -0.3417 0.0311 0.0039, -0.3116 0.0815 0.0039, -0.3109 0.082 0.0043, -0.3237 0.0733 0.0043, -0.3109 0.082 0.0039, -0.297 0.0868 0.0039, -0.297 0.0868 0.0043, -0.2934 -0.0282 0.0039, -0.2934 -0.0282 0.0043, -0.307 -0.0241 0.0039, -0.307 -0.0241 0.0043, -0.3116 -0.0215 0.0039, -0.3193 -0.017 0.0043, -0.3193 -0.017 0.0039, -0.329 -0.0077 0.0039, -0.329 -0.0077 0.0043, -0.3358 0.0029 0.0039, -0.3358 0.0029 0.0043, -0.3401 0.0153 0.0039, -0.3401 0.0153 0.0043, -0.318 0.0591 0.0043, -0.3123 0.0652 0.0043, -0.3036 0.0708 0.0043, -0.2939 0.0742 0.0043, -0.2799 0.0757 0.0043, -0.2625 0.0757 0.0043, -0.2625 -0.0165 0.0043, -0.2793 -0.0165 0.0043, -0.2917 -0.0154 0.0043, -0.3017 -0.0122 0.0043, -0.3097 -0.0075 0.0043, -0.3163 -0.0009 0.0043, -0.3213 0.0072 0.0043, -0.3248 0.0183 0.0043, -0.3259 0.0307 0.0043, -0.3249 0.0425 0.0043, -0.3221 0.0518 0.0043, -0.2799 0.0757 0.0039, -0.2625 0.0757 0.0039, -0.2939 0.0742 0.0039, -0.3036 0.0708 0.0039, -0.3123 0.0652 0.0039, -0.318 0.0591 0.0039, -0.3221 0.0518 0.0039, -0.3249 0.0425 0.0039, -0.3259 0.0307 0.0039, -0.3248 0.0183 0.0039, -0.3213 0.0072 0.0039, -0.3163 -0.0009 0.0039, -0.3097 -0.0075 0.0039, -0.3017 -0.0122 0.0039, -0.2917 -0.0154 0.0039, -0.2793 -0.0165 0.0039, -0.2625 -0.0165 0.0039, -0.2236 -0.0165 0.0043, -0.2236 -0.0295 0.0043, -0.2236 -0.0165 0.0039, -0.2236 -0.0295 0.0039, -0.1602 -0.0295 0.0043, -0.1602 -0.0295 0.0039, -0.1602 0.0886 0.0043, -0.1602 0.0886 0.0039, -0.2207 0.0886 0.0043, -0.2207 0.0886 0.0039, -0.2207 0.0757 0.0043, -0.2207 0.0757 0.0039, -0.1761 0.0757 0.0043, -0.1761 0.0757 0.0039, -0.1761 0.0368 0.0043, -0.1761 0.0368 0.0039, -0.2178 0.0368 0.0043, -0.2178 0.0368 0.0039, -0.2178 0.0238 0.0043, -0.2178 0.0238 0.0039, -0.1761 0.0238 0.0043, -0.1761 0.0238 0.0039, -0.1761 -0.0165 0.0043, -0.1761 -0.0165 0.0039, -0.1372 -0.0104 0.0043, -0.1372 -0.0234 0.0043, -0.1372 -0.0104 0.0039, -0.1372 -0.0234 0.0039, -0.1246 -0.0285 0.0043, -0.1047 -0.0309 0.0043, -0.1047 -0.0309 0.0039, -0.1079 -0.0309 0.0039, -0.1079 -0.0309 0.0043, -0.1127 -0.0302 0.0039, -0.1246 -0.0285 0.0039, -0.0977 -0.0302 0.0039, -0.0901 -0.0294 0.0043, -0.0901 -0.0294 0.0039, -0.0787 -0.0255 0.0043, -0.0787 -0.0255 0.0039, -0.0692 -0.0194 0.0043, -0.0692 -0.0194 0.0039, -0.0603 -0.0101 0.0043, -0.0603 -0.0101 0.0039, -0.054 0.0012 0.0043, -0.054 0.0012 0.0039, -0.0505 0.0137 0.0043, -0.0505 0.0137 0.0039, -0.0493 0.0274 0.0043, -0.0493 0.0274 0.0039, -0.1094 0.0901 0.0043, -0.1094 0.0901 0.0039, -0.0975 0.0891 0.0039, -0.0975 0.0891 0.0043, -0.0844 0.0853 0.0039, -0.0844 0.0853 0.0043, -0.0731 0.0788 0.0039, -0.0731 0.0788 0.0043, -0.0625 0.0686 0.0039, -0.0625 0.0686 0.0043, -0.0556 0.0575 0.0039, -0.0556 0.0575 0.0043, -0.051 0.0441 0.0039, -0.051 0.0441 0.0043, -0.1372 0.0854 0.0043, -0.1372 0.0854 0.0039, -0.1235 0.0891 0.0039, -0.1235 0.0891 0.0043, -0.1372 0.0696 0.0043, -0.1372 0.0696 0.0039, -0.1095 0.0771 0.0043, -0.1095 0.0771 0.0039, -0.1239 0.0752 0.0039, -0.1239 0.0752 0.0043, -0.0652 0.0283 0.0043, -0.0652 0.0283 0.0039, -0.0657 0.0375 0.0039, -0.0657 0.0375 0.0043, -0.0689 0.0502 0.0039, -0.0689 0.0502 0.0043, -0.0737 0.0593 0.0039, -0.0737 0.0593 0.0043, -0.0809 0.0671 0.0039, -0.0809 0.0671 0.0043, -0.0891 0.0726 0.0039, -0.0891 0.0726 0.0043, -0.0979 0.0758 0.0039, -0.0979 0.0758 0.0043, -0.1069 -0.018 0.0043, -0.1069 -0.018 0.0039, -0.0959 -0.0167 0.0039, -0.0959 -0.0167 0.0043, -0.0872 -0.0135 0.0039, -0.0872 -0.0135 0.0043, -0.08 -0.0087 0.0039, -0.08 -0.0087 0.0043, -0.0745 -0.0028 0.0039, -0.0745 -0.0028 0.0043, -0.0696 0.0054 0.0039, -0.0696 0.0054 0.0043, -0.0664 0.0155 0.0039, -0.0664 0.0155 0.0043, -0.1351 -0.0116 0.0039, -0.1351 -0.0116 0.0043, -0.1225 -0.0162 0.0039, -0.1225 -0.0162 0.0043, -0.0392 -0.0165 0.0043, -0.0392 -0.0295 0.0043, -0.0392 -0.0165 0.0039, -0.0392 -0.0295 0.0039, 0.0213 -0.0295 0.0043, 0.0213 -0.0295 0.0039, 0.0213 0.0886 0.0043, 0.0213 0.0886 0.0039, 0.0054 0.0886 0.0043, 0.0054 0.0886 0.0039, 0.0054 -0.0165 0.0043, 0.0054 -0.0165 0.0039
            ]
        }
        coordIndex [
            0,1,2,-1,2,1,3,-1,1,4,3,-1,3,4,5,-1,4,6,5,-1,5,6,7,-1,6,8,7,-1,7,8,9,-1,8,10,9,-1,9,10,11,-1,10,12,11,-1,11,12,13,-1,12,14,13,-1,13,14,15,-1,14,0,15,-1,15,0,2,-1,16,8,17,-1,17,8,6,-1,18,14,16,-1,16,14,12,-1,16,12,8,-1,8,12,10,-1,18,19,14,-1,14,19,20,-1,14,20,0,-1,0,20,21,-1,0,21,22,-1,22,23,0,-1,0,23,17,-1,0,17,1,-1,1,17,6,-1,1,6,4,-1,16,17,24,-1,24,17,25,-1,18,16,26,-1,26,16,24,-1,18,26,27,-1,18,27,19,-1,19,27,28,-1,19,28,20,-1,21,20,29,-1,29,20,28,-1,21,29,30,-1,21,30,22,-1,22,30,31,-1,22,31,23,-1,17,23,25,-1,25,23,31,-1,32,33,34,-1,34,33,35,-1,33,36,35,-1,35,36,37,-1,36,38,37,-1,37,38,39,-1,40,41,42,-1,42,41,43,-1,42,43,44,-1,44,43,45,-1,44,45,46,-1,46,45,47,-1,46,47,48,-1,48,47,49,-1,48,49,50,-1,51,52,40,-1,40,52,53,-1,40,53,41,-1,51,54,52,-1,52,54,55,-1,52,55,56,-1,56,55,39,-1,56,39,38,-1,32,34,57,-1,32,57,58,-1,58,57,59,-1,58,59,60,-1,60,59,61,-1,60,61,62,-1,61,63,62,-1,62,63,64,-1,62,64,65,-1,65,64,66,-1,65,66,67,-1,67,66,68,-1,67,68,69,-1,69,68,50,-1,69,50,49,-1,45,43,70,-1,70,43,41,-1,70,41,71,-1,71,41,53,-1,71,53,72,-1,72,53,52,-1,72,52,73,-1,73,52,56,-1,73,56,74,-1,74,56,38,-1,74,38,75,-1,75,38,36,-1,75,36,76,-1,76,36,33,-1,76,33,77,-1,77,33,32,-1,77,32,78,-1,78,32,58,-1,78,58,79,-1,79,58,60,-1,79,60,80,-1,80,60,62,-1,80,62,81,-1,81,62,65,-1,81,65,82,-1,82,65,67,-1,82,67,83,-1,83,67,69,-1,83,69,84,-1,84,69,49,-1,84,49,85,-1,85,49,47,-1,85,47,86,-1,86,47,45,-1,86,45,70,-1,74,75,87,-1,87,75,88,-1,74,87,89,-1,74,89,73,-1,73,89,90,-1,73,90,72,-1,72,90,91,-1,72,91,71,-1,71,91,92,-1,71,92,70,-1,70,92,93,-1,70,93,86,-1,86,93,94,-1,86,94,85,-1,85,94,95,-1,85,95,84,-1,84,95,96,-1,84,96,83,-1,83,96,97,-1,83,97,82,-1,82,97,98,-1,82,98,81,-1,81,98,99,-1,81,99,80,-1,80,99,100,-1,80,100,79,-1,79,100,101,-1,79,101,78,-1,78,101,102,-1,78,102,77,-1,76,77,103,-1,103,77,102,-1,75,76,88,-1,88,76,103,-1,104,105,106,-1,106,105,107,-1,105,108,107,-1,107,108,109,-1,108,110,109,-1,109,110,111,-1,110,112,111,-1,111,112,113,-1,112,114,113,-1,113,114,115,-1,114,116,115,-1,115,116,117,-1,116,118,117,-1,117,118,119,-1,118,120,119,-1,119,120,121,-1,120,122,121,-1,121,122,123,-1,122,124,123,-1,123,124,125,-1,124,126,125,-1,125,126,127,-1,126,104,127,-1,127,104,106,-1,108,105,104,-1,104,126,108,-1,108,126,124,-1,108,124,110,-1,114,112,116,-1,116,112,110,-1,116,110,118,-1,118,110,124,-1,118,124,120,-1,120,124,122,-1,128,129,130,-1,130,129,131,-1,131,129,132,-1,133,134,135,-1,133,135,136,-1,136,135,137,-1,136,137,132,-1,132,137,138,-1,132,138,131,-1,134,133,139,-1,139,133,140,-1,139,140,141,-1,141,140,142,-1,141,142,143,-1,143,142,144,-1,143,144,145,-1,145,144,146,-1,145,146,147,-1,147,146,148,-1,147,148,149,-1,149,148,150,-1,149,150,151,-1,151,150,152,-1,151,152,153,-1,154,155,156,-1,154,156,157,-1,157,156,158,-1,157,158,159,-1,159,158,160,-1,159,160,161,-1,161,160,162,-1,161,162,163,-1,163,162,164,-1,163,164,165,-1,165,164,166,-1,165,166,167,-1,167,166,153,-1,167,153,152,-1,168,169,170,-1,168,170,171,-1,171,170,155,-1,171,155,154,-1,168,172,169,-1,169,172,173,-1,174,175,176,-1,174,176,177,-1,177,176,173,-1,177,173,172,-1,178,179,180,-1,178,180,181,-1,181,180,182,-1,181,182,183,-1,183,182,184,-1,183,184,185,-1,185,184,186,-1,185,186,187,-1,187,186,188,-1,187,188,189,-1,189,188,190,-1,189,190,191,-1,191,190,175,-1,191,175,174,-1,192,193,194,-1,192,194,195,-1,195,194,196,-1,195,196,197,-1,197,196,198,-1,197,198,199,-1,199,198,200,-1,199,200,201,-1,201,200,202,-1,201,202,203,-1,203,202,204,-1,203,204,205,-1,205,204,179,-1,205,179,178,-1,128,130,206,-1,128,206,207,-1,207,206,208,-1,207,208,209,-1,209,208,193,-1,209,193,192,-1,195,133,192,-1,192,133,136,-1,192,136,209,-1,209,136,132,-1,209,132,207,-1,207,132,129,-1,207,129,128,-1,172,168,177,-1,177,168,171,-1,177,171,174,-1,174,171,154,-1,174,154,191,-1,191,154,157,-1,191,157,189,-1,189,157,159,-1,189,159,187,-1,187,159,161,-1,187,161,185,-1,185,161,163,-1,185,163,183,-1,183,163,165,-1,183,165,181,-1,181,165,167,-1,181,167,178,-1,178,167,152,-1,178,152,205,-1,205,152,150,-1,205,150,203,-1,203,150,148,-1,203,148,201,-1,201,148,146,-1,201,146,199,-1,199,146,144,-1,199,144,197,-1,197,144,142,-1,197,142,195,-1,195,142,140,-1,195,140,133,-1,210,211,212,-1,212,211,213,-1,211,214,213,-1,213,214,215,-1,214,216,215,-1,215,216,217,-1,216,218,217,-1,217,218,219,-1,218,220,219,-1,219,220,221,-1,220,210,221,-1,221,210,212,-1,218,216,220,-1,220,216,214,-1,220,214,210,-1,210,214,211,-1,
        ]
    }
}
Shape{
    appearance Appearance {
        material  Material 	{
            diffuseColor 0.2 0.4627450980392157 0.23137254901960785
            specularColor 0.01568627450980392 0.03137254901960784 0.01568627450980392
            ambientIntensity 0.5122
            transparency 0.0
            shininess 0.5
        }
    }
    geometry IndexedFaceSet {
        ccw TRUE
        solid FALSE
        coord DEF co Coordinate {
            point [
                -0.3829 0.0166 0.0039, -0.4224 0.0166 0.0039, -0.4005 0.0659 0.0039, -0.4046 0.0659 0.0039, -0.4017 0.07 0.0039, -0.4036 0.0701 0.0039, -0.4024 0.0742 0.0039, -0.4028 0.0742 0.0039, -0.2625 0.0757 0.0039, -0.2625 -0.0165 0.0039, -0.2799 0.0757 0.0039, -0.2793 -0.0165 0.0039, -0.2917 -0.0154 0.0039, -0.3259 0.0307 0.0039, -0.3249 0.0425 0.0039, -0.3221 0.0518 0.0039, -0.2939 0.0742 0.0039, -0.3017 -0.0122 0.0039, -0.3097 -0.0075 0.0039, -0.3163 -0.0009 0.0039, -0.3213 0.0072 0.0039, -0.3248 0.0183 0.0039, -0.318 0.0591 0.0039, -0.3123 0.0652 0.0039, -0.3036 0.0708 0.0039
            ]
        }
        coordIndex [
            0,1,2,-1,2,1,3,-1,2,3,4,-1,4,3,5,-1,4,5,6,-1,6,5,7,-1,8,9,10,-1,10,9,11,-1,10,11,12,-1,13,14,10,-1,10,14,15,-1,10,15,16,-1,12,17,10,-1,10,17,18,-1,10,18,19,-1,19,20,10,-1,10,20,21,-1,10,21,13,-1,22,23,15,-1,15,23,24,-1,15,24,16,-1,
        ]
    }
}
Shape{
    appearance Appearance {
        material  Material 	{
            diffuseColor 0.0 0.0 0.0
            specularColor 0.0 0.0 0.0
            ambientIntensity 0.0
            transparency 0.0
            shininess 0.5
        }
    }
    geometry IndexedFaceSet {
        ccw TRUE
        solid FALSE
        coord DEF co Coordinate {
            point [
                -0.3473 -0.2858 0.3854, -0.3473 -0.2858 0.3858, -0.3485 -0.2765 0.3854, -0.3485 -0.2765 0.3858, -0.3521 -0.2678 0.3854, -0.3521 -0.2678 0.3858, -0.3578 -0.2604 0.3854, -0.3578 -0.2604 0.3858, -0.3653 -0.2547 0.3854, -0.3653 -0.2547 0.3858, -0.3739 -0.2511 0.3854, -0.3739 -0.2511 0.3858, -0.3832 -0.2499 0.3854, -0.3832 -0.2499 0.3858, -0.3925 -0.2511 0.3854, -0.3925 -0.2511 0.3858, -0.4012 -0.2547 0.3854, -0.4012 -0.2547 0.3858, -0.4086 -0.2604 0.3854, -0.4086 -0.2604 0.3858, -0.4143 -0.2678 0.3854, -0.4143 -0.2678 0.3858, -0.4179 -0.2765 0.3854, -0.4179 -0.2765 0.3858, -0.4191 -0.2858 0.3854, -0.4191 -0.2858 0.3858, -0.4179 -0.2951 0.3854, -0.4179 -0.2951 0.3858, -0.4143 -0.3037 0.3854, -0.4143 -0.3037 0.3858, -0.4086 -0.3112 0.3854, -0.4086 -0.3112 0.3858, -0.4012 -0.3169 0.3854, -0.4012 -0.3169 0.3858, -0.3925 -0.3205 0.3854, -0.3925 -0.3205 0.3858, -0.3832 -0.3217 0.3854, -0.3832 -0.3217 0.3858, -0.3739 -0.3205 0.3854, -0.3739 -0.3205 0.3858, -0.3653 -0.3169 0.3854, -0.3653 -0.3169 0.3858, -0.3578 -0.3112 0.3854, -0.3578 -0.3112 0.3858, -0.3521 -0.3037 0.3854, -0.3521 -0.3037 0.3858, -0.3485 -0.2951 0.3854, -0.3485 -0.2951 0.3858, -0.3832 -0.2858 0.3854
            ]
        }
        coordIndex [
            0,1,2,-1,2,1,3,-1,2,3,4,-1,4,3,5,-1,4,5,6,-1,6,5,7,-1,6,7,8,-1,8,7,9,-1,8,9,10,-1,10,9,11,-1,10,11,12,-1,12,11,13,-1,12,13,14,-1,14,13,15,-1,14,15,16,-1,16,15,17,-1,16,17,18,-1,18,17,19,-1,18,19,20,-1,20,19,21,-1,20,21,22,-1,22,21,23,-1,22,23,24,-1,24,23,25,-1,24,25,26,-1,26,25,27,-1,26,27,28,-1,28,27,29,-1,28,29,30,-1,30,29,31,-1,30,31,32,-1,32,31,33,-1,32,33,34,-1,34,33,35,-1,34,35,36,-1,36,35,37,-1,36,37,38,-1,38,37,39,-1,38,39,40,-1,40,39,41,-1,40,41,42,-1,42,41,43,-1,42,43,44,-1,44,43,45,-1,44,45,46,-1,46,45,47,-1,46,47,0,-1,0,47,1,-1,44,46,48,-1,48,46,0,-1,48,0,2,-1,38,40,48,-1,48,40,42,-1,48,42,44,-1,32,34,48,-1,48,34,36,-1,48,36,38,-1,26,28,48,-1,48,28,30,-1,48,30,32,-1,20,22,48,-1,48,22,24,-1,48,24,26,-1,14,16,48,-1,48,16,18,-1,48,18,20,-1,8,10,48,-1,48,10,12,-1,48,12,14,-1,2,4,48,-1,48,4,6,-1,48,6,8,-1,
        ]
    }
}
Shape{
    appearance Appearance {
        material  Material 	{
            diffuseColor 0.2 0.4627450980392157 0.23137254901960785
            specularColor 0.01568627450980392 0.03137254901960784 0.01568627450980392
            ambientIntensity 0.5122
            transparency 0.0
            shininess 0.5
        }
    }
    geometry IndexedFaceSet {
        ccw TRUE
        solid FALSE
        coord DEF co Coordinate {
            point [
                0.565 -0.0 0.0984, 0.565 -0.0 0.0039, 0.5666 0.0127 0.0984, 0.5666 0.0127 0.0039, 0.5716 0.0246 0.0984, 0.5716 0.0246 0.0039, 0.5794 0.0348 0.0984, 0.5794 0.0348 0.0039, 0.5896 0.0426 0.0984, 0.5896 0.0426 0.0039, 0.6014 0.0475 0.0984, 0.6014 0.0475 0.0039, 0.6142 0.0492 0.0984, 0.6142 0.0492 0.0039, 0.6269 0.0475 0.0984, 0.6269 0.0475 0.0039, 0.6388 0.0426 0.0984, 0.6388 0.0426 0.0039, 0.649 0.0348 0.0984, 0.649 0.0348 0.0039, 0.6568 0.0246 0.0984, 0.6568 0.0246 0.0039, 0.6617 0.0127 0.0984, 0.6617 0.0127 0.0039, 0.6634 -0.0 0.0984, 0.6634 -0.0 0.0039, 0.6617 -0.0127 0.0984, 0.6617 -0.0127 0.0039, 0.6568 -0.0246 0.0984, 0.6568 -0.0246 0.0039, 0.649 -0.0348 0.0984, 0.649 -0.0348 0.0039, 0.6388 -0.0426 0.0984, 0.6388 -0.0426 0.0039, 0.6269 -0.0475 0.0984, 0.6269 -0.0475 0.0039, 0.6142 -0.0492 0.0984, 0.6142 -0.0492 0.0039, 0.6014 -0.0475 0.0984, 0.6014 -0.0475 0.0039, 0.5896 -0.0426 0.0984, 0.5896 -0.0426 0.0039, 0.5794 -0.0348 0.0984, 0.5794 -0.0348 0.0039, 0.5716 -0.0246 0.0984, 0.5716 -0.0246 0.0039, 0.5666 -0.0127 0.0984, 0.5666 -0.0127 0.0039, 0.6142 -0.0 0.0984
            ]
        }
        coordIndex [
            0,1,2,-1,2,1,3,-1,2,3,4,-1,4,3,5,-1,4,5,6,-1,6,5,7,-1,6,7,8,-1,8,7,9,-1,8,9,10,-1,10,9,11,-1,10,11,12,-1,12,11,13,-1,12,13,14,-1,14,13,15,-1,14,15,16,-1,16,15,17,-1,16,17,18,-1,18,17,19,-1,18,19,20,-1,20,19,21,-1,20,21,22,-1,22,21,23,-1,22,23,24,-1,24,23,25,-1,24,25,26,-1,26,25,27,-1,26,27,28,-1,28,27,29,-1,28,29,30,-1,30,29,31,-1,30,31,32,-1,32,31,33,-1,32,33,34,-1,34,33,35,-1,34,35,36,-1,36,35,37,-1,36,37,38,-1,38,37,39,-1,38,39,40,-1,40,39,41,-1,40,41,42,-1,42,41,43,-1,42,43,44,-1,44,43,45,-1,44,45,46,-1,46,45,47,-1,46,47,0,-1,0,47,1,-1,44,46,48,-1,48,46,0,-1,48,0,2,-1,38,40,48,-1,48,40,42,-1,48,42,44,-1,32,34,48,-1,48,34,36,-1,48,36,38,-1,26,28,48,-1,48,28,30,-1,48,30,32,-1,20,22,48,-1,48,22,24,-1,48,24,26,-1,14,16,48,-1,48,16,18,-1,48,18,20,-1,8,10,48,-1,48,10,12,-1,48,12,14,-1,2,4,48,-1,48,4,6,-1,48,6,8,-1,
        ]
    }
}