%TF.GenerationSoftware,KiCad,Pcbnew,10.0.4*%
%TF.CreationDate,2026-07-25T17:27:03-04:00*%
%TF.ProjectId,WalkieTalkie,57616c6b-6965-4546-916c-6b69652e6b69,rev?*%
%TF.SameCoordinates,Original*%
%TF.FileFunction,Copper,L1,Top*%
%TF.FilePolarity,Positive*%
%FSLAX46Y46*%
G04 Gerber Fmt 4.6, Leading zero omitted, Abs format (unit mm)*
G04 Created by KiCad (PCBNEW 10.0.4) date 2026-07-25 17:27:03*
%MOMM*%
%LPD*%
G01*
G04 APERTURE LIST*
G04 Aperture macros list*
%AMRoundRect*
0 Rectangle with rounded corners*
0 $1 Rounding radius*
0 $2 $3 $4 $5 $6 $7 $8 $9 X,Y pos of 4 corners*
0 Add a 4 corners polygon primitive as box body*
4,1,4,$2,$3,$4,$5,$6,$7,$8,$9,$2,$3,0*
0 Add four circle primitives for the rounded corners*
1,1,$1+$1,$2,$3*
1,1,$1+$1,$4,$5*
1,1,$1+$1,$6,$7*
1,1,$1+$1,$8,$9*
0 Add four rect primitives between the rounded corners*
20,1,$1+$1,$2,$3,$4,$5,0*
20,1,$1+$1,$4,$5,$6,$7,0*
20,1,$1+$1,$6,$7,$8,$9,0*
20,1,$1+$1,$8,$9,$2,$3,0*%
%AMFreePoly0*
4,1,17,0.335278,0.685443,0.349923,0.650088,0.349923,-0.649935,0.335278,-0.685290,0.299923,-0.699935,0.000318,-0.699935,-0.000051,-0.700088,-0.300050,-0.700088,-0.335405,-0.685443,-0.350050,-0.650088,-0.350050,0.649935,-0.335405,0.685290,-0.300050,0.699935,-0.000445,0.699935,-0.000076,0.700088,0.299923,0.700088,0.335278,0.685443,0.335278,0.685443,$1*%
%AMFreePoly1*
4,1,17,0.335431,0.685290,0.350076,0.649935,0.350076,-0.650037,0.335431,-0.685392,0.300076,-0.700037,0.000187,-0.700037,0.000127,-0.700062,-0.299898,-0.700062,-0.335253,-0.685417,-0.349898,-0.650062,-0.349898,0.649910,-0.335253,0.685265,-0.299898,0.699910,-0.000009,0.699910,0.000051,0.699935,0.300076,0.699935,0.335431,0.685290,0.335431,0.685290,$1*%
%AMFreePoly2*
4,1,13,0.335227,0.685443,0.349872,0.650088,0.349872,-0.649884,0.335227,-0.685239,0.299872,-0.699884,-0.300152,-0.699884,-0.335507,-0.685239,-0.350152,-0.649884,-0.350152,0.650088,-0.335507,0.685443,-0.300152,0.700088,0.299872,0.700088,0.335227,0.685443,0.335227,0.685443,$1*%
G04 Aperture macros list end*
%TA.AperFunction,SMDPad,CuDef*%
%ADD10RoundRect,0.250000X-0.250000X-0.475000X0.250000X-0.475000X0.250000X0.475000X-0.250000X0.475000X0*%
%TD*%
%TA.AperFunction,SMDPad,CuDef*%
%ADD11R,0.300000X1.300000*%
%TD*%
%TA.AperFunction,SMDPad,CuDef*%
%ADD12R,2.000000X1.600000*%
%TD*%
%TA.AperFunction,SMDPad,CuDef*%
%ADD13RoundRect,0.200000X-0.200000X-0.275000X0.200000X-0.275000X0.200000X0.275000X-0.200000X0.275000X0*%
%TD*%
%TA.AperFunction,ComponentPad*%
%ADD14RoundRect,0.250000X-0.675000X-0.675000X0.675000X-0.675000X0.675000X0.675000X-0.675000X0.675000X0*%
%TD*%
%TA.AperFunction,ComponentPad*%
%ADD15C,1.850000*%
%TD*%
%TA.AperFunction,SMDPad,CuDef*%
%ADD16R,0.250000X0.600000*%
%TD*%
%TA.AperFunction,SMDPad,CuDef*%
%ADD17R,0.600000X0.250000*%
%TD*%
%TA.AperFunction,SMDPad,CuDef*%
%ADD18R,1.500000X1.500000*%
%TD*%
%TA.AperFunction,SMDPad,CuDef*%
%ADD19R,0.665000X0.280000*%
%TD*%
%TA.AperFunction,SMDPad,CuDef*%
%ADD20R,1.200000X2.000000*%
%TD*%
%TA.AperFunction,SMDPad,CuDef*%
%ADD21RoundRect,0.150000X-0.587500X-0.150000X0.587500X-0.150000X0.587500X0.150000X-0.587500X0.150000X0*%
%TD*%
%TA.AperFunction,SMDPad,CuDef*%
%ADD22RoundRect,0.218750X-0.218750X-0.256250X0.218750X-0.256250X0.218750X0.256250X-0.218750X0.256250X0*%
%TD*%
%TA.AperFunction,SMDPad,CuDef*%
%ADD23RoundRect,0.225000X-0.225000X-0.250000X0.225000X-0.250000X0.225000X0.250000X-0.225000X0.250000X0*%
%TD*%
%TA.AperFunction,SMDPad,CuDef*%
%ADD24R,1.230000X1.860000*%
%TD*%
%TA.AperFunction,SMDPad,CuDef*%
%ADD25R,1.100000X0.600000*%
%TD*%
%TA.AperFunction,SMDPad,CuDef*%
%ADD26RoundRect,0.218750X-0.218750X-0.381250X0.218750X-0.381250X0.218750X0.381250X-0.218750X0.381250X0*%
%TD*%
%TA.AperFunction,SMDPad,CuDef*%
%ADD27O,0.560000X1.745000*%
%TD*%
%TA.AperFunction,SMDPad,CuDef*%
%ADD28R,2.100000X0.950000*%
%TD*%
%TA.AperFunction,SMDPad,CuDef*%
%ADD29R,0.950000X2.100000*%
%TD*%
%TA.AperFunction,SMDPad,CuDef*%
%ADD30R,3.800000X3.800000*%
%TD*%
%TA.AperFunction,ComponentPad*%
%ADD31C,0.750000*%
%TD*%
%TA.AperFunction,ComponentPad*%
%ADD32O,1.200000X2.000000*%
%TD*%
%TA.AperFunction,ComponentPad*%
%ADD33O,1.200000X1.800000*%
%TD*%
%TA.AperFunction,SMDPad,CuDef*%
%ADD34FreePoly0,0.000000*%
%TD*%
%TA.AperFunction,SMDPad,CuDef*%
%ADD35FreePoly1,0.000000*%
%TD*%
%TA.AperFunction,SMDPad,CuDef*%
%ADD36FreePoly2,0.000000*%
%TD*%
%TA.AperFunction,SMDPad,CuDef*%
%ADD37R,0.532000X1.072000*%
%TD*%
%TA.AperFunction,SMDPad,CuDef*%
%ADD38RoundRect,0.150000X-0.512500X-0.150000X0.512500X-0.150000X0.512500X0.150000X-0.512500X0.150000X0*%
%TD*%
%TA.AperFunction,SMDPad,CuDef*%
%ADD39RoundRect,0.250000X0.650000X-1.000000X0.650000X1.000000X-0.650000X1.000000X-0.650000X-1.000000X0*%
%TD*%
%TA.AperFunction,SMDPad,CuDef*%
%ADD40R,0.490000X1.157000*%
%TD*%
%TA.AperFunction,SMDPad,CuDef*%
%ADD41R,0.490000X1.175000*%
%TD*%
%TA.AperFunction,SMDPad,CuDef*%
%ADD42R,3.800000X1.000000*%
%TD*%
%TA.AperFunction,SMDPad,CuDef*%
%ADD43R,3.400000X1.500000*%
%TD*%
%TA.AperFunction,ComponentPad*%
%ADD44RoundRect,0.250000X-0.600000X-0.600000X0.600000X-0.600000X0.600000X0.600000X-0.600000X0.600000X0*%
%TD*%
%TA.AperFunction,ComponentPad*%
%ADD45C,1.700000*%
%TD*%
%TA.AperFunction,SMDPad,CuDef*%
%ADD46O,0.630000X1.865000*%
%TD*%
%TA.AperFunction,SMDPad,CuDef*%
%ADD47R,3.200000X2.300000*%
%TD*%
G04 APERTURE END LIST*
D10*
%TO.P,C9,1*%
%TO.N,/GND*%
X129650000Y-143190000D03*
%TO.P,C9,2*%
%TO.N,/+3V3*%
X131550000Y-143190000D03*
%TD*%
D11*
%TO.P,J3,1,1_1*%
%TO.N,/GND*%
X120450000Y-59907500D03*
%TO.P,J3,2,2_2*%
%TO.N,/+3V3*%
X120950000Y-59907500D03*
%TO.P,J3,3,3_3*%
%TO.N,/GND*%
X121450000Y-59907500D03*
%TO.P,J3,4,4_4*%
%TO.N,/GPIO18_OLED_SCL*%
X121950000Y-59907500D03*
%TO.P,J3,5,5_5*%
%TO.N,/GPIO19_OLED_SDA*%
X122450000Y-59907500D03*
%TO.P,J3,6,6_6*%
%TO.N,/GPIO16_MIC_BCLK*%
X122950000Y-59907500D03*
%TO.P,J3,7,7_7*%
%TO.N,/GPIO17_MIC_WS*%
X123450000Y-59907500D03*
%TO.P,J3,8,8_8*%
%TO.N,/GPIO4_MIC_SD*%
X123950000Y-59907500D03*
%TO.P,J3,9,9_9*%
%TO.N,/GPIO0_BTN_OK*%
X124450000Y-59907500D03*
%TO.P,J3,10,10_10*%
%TO.N,/BTN_TOP_LEFT*%
X124950000Y-59907500D03*
%TO.P,J3,11,11_11*%
%TO.N,/BTN_TOP_RIGHT*%
X125450000Y-59907500D03*
%TO.P,J3,12,12_12*%
%TO.N,/GPIO14_BTN_BOTTOM_LEFT*%
X125950000Y-59907500D03*
%TO.P,J3,13,13_13*%
%TO.N,/GPIO15_BTN_BOTTOM_RIGHT*%
X126450000Y-59907500D03*
%TO.P,J3,14,14_14*%
%TO.N,/GND*%
X126950000Y-59907500D03*
%TO.P,J3,15,15_15*%
%TO.N,/+3V3*%
X127450000Y-59907500D03*
%TO.P,J3,16,16_16*%
%TO.N,/GND*%
X127950000Y-59907500D03*
D12*
%TO.P,J3,17,17_17*%
X118750000Y-57227500D03*
%TO.P,J3,18,18_18*%
X129650000Y-57227500D03*
%TD*%
D13*
%TO.P,R8,1*%
%TO.N,/LOAD_GATE*%
X133175000Y-136490000D03*
%TO.P,R8,2*%
%TO.N,/USB_VBUS*%
X134825000Y-136490000D03*
%TD*%
D10*
%TO.P,C15,1*%
%TO.N,/GND*%
X111850000Y-100200000D03*
%TO.P,C15,2*%
%TO.N,/VSYS*%
X113750000Y-100200000D03*
%TD*%
D13*
%TO.P,R20,1*%
%TO.N,/PTT*%
X130775000Y-90200000D03*
%TO.P,R20,2*%
%TO.N,/GPIO22*%
X132425000Y-90200000D03*
%TD*%
%TO.P,R29,1*%
%TO.N,/GND*%
X131175000Y-121800000D03*
%TO.P,R29,2*%
%TO.N,/GPIO35_BATTERY*%
X132825000Y-121800000D03*
%TD*%
D14*
%TO.P,J8,1,Pin_1_1*%
%TO.N,/+3V3*%
X128900000Y-67785000D03*
D15*
%TO.P,J8,2,Pin_2_2*%
%TO.N,/LASER_NEG*%
X133100000Y-67785000D03*
%TD*%
D13*
%TO.P,R6,1*%
%TO.N,/DW_VCC*%
X116775000Y-138000000D03*
%TO.P,R6,2*%
%TO.N,/BAT_POS*%
X118425000Y-138000000D03*
%TD*%
D16*
%TO.P,U8,1,DIN_1*%
%TO.N,/GPIO25_SPK_DIN*%
X103850000Y-147300000D03*
%TO.P,U8,2,GAIN_SLOT_2*%
%TO.N,/AMP_GAIN*%
X104350000Y-147300000D03*
%TO.P,U8,3,GND_3*%
%TO.N,/GND*%
X104850000Y-147300000D03*
%TO.P,U8,4,~{SD_MODE}_4*%
%TO.N,/AMP_SD_MODE*%
X105350000Y-147300000D03*
D17*
%TO.P,U8,5,N.C._5*%
%TO.N,/NC_U8_5*%
X106100000Y-146550000D03*
%TO.P,U8,6,N.C._6*%
%TO.N,/NC_U8_6*%
X106100000Y-146050000D03*
%TO.P,U8,7,VDD_7*%
%TO.N,/VSYS*%
X106100000Y-145550000D03*
%TO.P,U8,8,VDD_8*%
X106100000Y-145050000D03*
D16*
%TO.P,U8,9,OUTP_9*%
%TO.N,/SPK_PLUS*%
X105350000Y-144300000D03*
%TO.P,U8,10,OUTN_10*%
%TO.N,/SPK_MINUS*%
X104850000Y-144300000D03*
%TO.P,U8,11,GND_11*%
%TO.N,/GND*%
X104350000Y-144300000D03*
%TO.P,U8,12,N.C._12*%
%TO.N,/NC_U8_12*%
X103850000Y-144300000D03*
D17*
%TO.P,U8,13,N.C._13*%
%TO.N,/NC_U8_13*%
X103100000Y-145050000D03*
%TO.P,U8,14,LRCLK_14*%
%TO.N,/GPIO33_SPK_LRC*%
X103100000Y-145550000D03*
%TO.P,U8,15,GND_15*%
%TO.N,/GND*%
X103100000Y-146050000D03*
%TO.P,U8,16,BCLK_16*%
%TO.N,/GPIO32_SPK_BCLK*%
X103100000Y-146550000D03*
D18*
%TO.P,U8,17,EP_17*%
%TO.N,/GND*%
X104600000Y-145800000D03*
%TD*%
D19*
%TO.P,U7,1,VOUT_1*%
%TO.N,/+3V3*%
X111640000Y-137000000D03*
%TO.P,U7,2,L2_2*%
%TO.N,/BB_L2*%
X111640000Y-137500000D03*
%TO.P,U7,3,PGND_3*%
%TO.N,/GND*%
X111640000Y-138000000D03*
%TO.P,U7,4,L1_4*%
%TO.N,/BB_L1*%
X111640000Y-138500000D03*
%TO.P,U7,5,VIN_5*%
%TO.N,/VSYS*%
X111640000Y-139000000D03*
%TO.P,U7,6,EN_6*%
X113960000Y-139000000D03*
%TO.P,U7,7,PS/SYNC_7*%
%TO.N,/GND*%
X113960000Y-138500000D03*
%TO.P,U7,8,VINA_8*%
%TO.N,/VSYS*%
X113960000Y-138000000D03*
%TO.P,U7,9,GND_9*%
%TO.N,/GND*%
X113960000Y-137500000D03*
%TO.P,U7,10,FB_10*%
%TO.N,/+3V3*%
X113960000Y-137000000D03*
D20*
%TO.P,U7,11,EP_11*%
%TO.N,/GND*%
X112800000Y-138000000D03*
%TD*%
D13*
%TO.P,R5,1*%
%TO.N,/LED_DONE_A*%
X116775000Y-135490000D03*
%TO.P,R5,2*%
%TO.N,/USB_VBUS*%
X118425000Y-135490000D03*
%TD*%
D21*
%TO.P,Q3,1,G_1*%
%TO.N,/GPIO21_LASER*%
X114062500Y-86450000D03*
%TO.P,Q3,2,S_2*%
%TO.N,/GND*%
X114062500Y-88350000D03*
%TO.P,Q3,3,D_3*%
%TO.N,/LASER_NEG*%
X115937500Y-87400000D03*
%TD*%
D13*
%TO.P,R25,1*%
%TO.N,/LED_CTRL*%
X124175000Y-94200000D03*
%TO.P,R25,2*%
%TO.N,/GPIO22*%
X125825000Y-94200000D03*
%TD*%
%TO.P,R1,1*%
%TO.N,/GND*%
X119175000Y-109800000D03*
%TO.P,R1,2*%
%TO.N,/USB_CC1*%
X120825000Y-109800000D03*
%TD*%
%TO.P,R9,1*%
%TO.N,/GND*%
X133175000Y-139000000D03*
%TO.P,R9,2*%
%TO.N,/LOAD_GATE*%
X134825000Y-139000000D03*
%TD*%
D22*
%TO.P,D3,1,K_1*%
%TO.N,/LED_DONE_A*%
X103012500Y-125800000D03*
%TO.P,D3,2,A_2*%
%TO.N,/TP_STDBY*%
X104587500Y-125800000D03*
%TD*%
D13*
%TO.P,R14,1*%
%TO.N,/LED_EXT_ANODE*%
X130775000Y-85180000D03*
%TO.P,R14,2*%
%TO.N,/LED_CTRL*%
X132425000Y-85180000D03*
%TD*%
%TO.P,R4,1*%
%TO.N,/LED_CHRG_A*%
X125175000Y-88420000D03*
%TO.P,R4,2*%
%TO.N,/USB_VBUS*%
X126825000Y-88420000D03*
%TD*%
D23*
%TO.P,C14,1*%
%TO.N,/GND*%
X131225000Y-112490000D03*
%TO.P,C14,2*%
%TO.N,/VSYS*%
X132775000Y-112490000D03*
%TD*%
%TO.P,C6,1*%
%TO.N,/BAT_RAW_N*%
X114225000Y-107470000D03*
%TO.P,C6,2*%
%TO.N,/DW_VCC*%
X115775000Y-107470000D03*
%TD*%
D13*
%TO.P,R2,1*%
%TO.N,/GND*%
X125175000Y-83400000D03*
%TO.P,R2,2*%
%TO.N,/USB_CC2*%
X126825000Y-83400000D03*
%TD*%
%TO.P,R11,1*%
%TO.N,/GPIO0_BTN_OK*%
X101775000Y-89200000D03*
%TO.P,R11,2*%
%TO.N,/+3V3*%
X103425000Y-89200000D03*
%TD*%
D24*
%TO.P,SW2,1,1_1*%
%TO.N,/GPIO0_BTN_OK*%
X101820000Y-120200000D03*
%TO.P,SW2,2,2_2*%
%TO.N,/GND*%
X106180000Y-120200000D03*
%TD*%
D10*
%TO.P,C8,1*%
%TO.N,/GND*%
X119250000Y-94000000D03*
%TO.P,C8,2*%
%TO.N,/VSYS*%
X121150000Y-94000000D03*
%TD*%
D25*
%TO.P,Q1,1,S1_1*%
%TO.N,/BAT_RAW_N*%
X126350000Y-145750000D03*
%TO.P,Q1,2,D1/D2_2*%
%TO.N,/MOS_MID*%
X126350000Y-144800000D03*
%TO.P,Q1,3,S2_3*%
%TO.N,/GND*%
X126350000Y-143850000D03*
%TO.P,Q1,4,G2_4*%
%TO.N,/PROTECT_OC*%
X123650000Y-143850000D03*
%TO.P,Q1,5,D1/D2_5*%
%TO.N,/MOS_MID*%
X123650000Y-144800000D03*
%TO.P,Q1,6,G1_6*%
%TO.N,/PROTECT_OD*%
X123650000Y-145750000D03*
%TD*%
D13*
%TO.P,R7,1*%
%TO.N,/GND*%
X116775000Y-140510000D03*
%TO.P,R7,2*%
%TO.N,/DW_VM*%
X118425000Y-140510000D03*
%TD*%
D22*
%TO.P,D2,1,K_1*%
%TO.N,/LED_CHRG_A*%
X102812500Y-128800000D03*
%TO.P,D2,2,A_2*%
%TO.N,/TP_CHRG*%
X104387500Y-128800000D03*
%TD*%
D23*
%TO.P,C16,1*%
%TO.N,/GND*%
X126425000Y-112200000D03*
%TO.P,C16,2*%
%TO.N,/GPIO35_BATTERY*%
X127975000Y-112200000D03*
%TD*%
%TO.P,C3,1*%
%TO.N,/GND*%
X114225000Y-104960000D03*
%TO.P,C3,2*%
%TO.N,/+3V3_USB*%
X115775000Y-104960000D03*
%TD*%
D13*
%TO.P,R21,1*%
%TO.N,/LED_CTRL*%
X130775000Y-92710000D03*
%TO.P,R21,2*%
%TO.N,/GPIO23*%
X132425000Y-92710000D03*
%TD*%
D26*
%TO.P,L1,1,1_1*%
%TO.N,/BB_L2*%
X129137500Y-116200000D03*
%TO.P,L1,2,2_2*%
%TO.N,/BB_L1*%
X131262500Y-116200000D03*
%TD*%
D24*
%TO.P,SW1,1,1_1*%
%TO.N,/ESP_EN*%
X101820000Y-115970000D03*
%TO.P,SW1,2,2_2*%
%TO.N,/GND*%
X106180000Y-115970000D03*
%TD*%
D10*
%TO.P,C2,1*%
%TO.N,/GND*%
X102050000Y-137800000D03*
%TO.P,C2,2*%
%TO.N,/+3V3_USB*%
X103950000Y-137800000D03*
%TD*%
D13*
%TO.P,R23,1*%
%TO.N,/BTN_TOP_RIGHT*%
X130775000Y-97730000D03*
%TO.P,R23,2*%
%TO.N,/GPIO2*%
X132425000Y-97730000D03*
%TD*%
D10*
%TO.P,C11,1*%
%TO.N,/GND*%
X129050000Y-138200000D03*
%TO.P,C11,2*%
%TO.N,/ESP_EN*%
X130950000Y-138200000D03*
%TD*%
D13*
%TO.P,R13,1*%
%TO.N,/VSYS*%
X101975000Y-98800000D03*
%TO.P,R13,2*%
%TO.N,/AMP_SD_MODE*%
X103625000Y-98800000D03*
%TD*%
D10*
%TO.P,C4,1*%
%TO.N,/GND*%
X108250000Y-142000000D03*
%TO.P,C4,2*%
%TO.N,/USB_VBUS*%
X110150000Y-142000000D03*
%TD*%
D13*
%TO.P,R27,1*%
%TO.N,/BTN_TOP_RIGHT*%
X124175000Y-99220000D03*
%TO.P,R27,2*%
%TO.N,/GPIO26*%
X125825000Y-99220000D03*
%TD*%
D14*
%TO.P,J6,1,Pin_1_1*%
%TO.N,/PTT*%
X111800000Y-67795000D03*
D15*
%TO.P,J6,2,Pin_2_2*%
%TO.N,/GND*%
X116000000Y-67795000D03*
%TD*%
D27*
%TO.P,U4,1,GND_1*%
%TO.N,/GND*%
X102950000Y-109470000D03*
%TO.P,U4,2,TXD_2*%
%TO.N,/UART_RX0*%
X104230000Y-109470000D03*
%TO.P,U4,3,RXD_3*%
%TO.N,/UART_TX0*%
X105500000Y-109470000D03*
%TO.P,U4,4,V3_4*%
%TO.N,/+3V3_USB*%
X106770000Y-109470000D03*
%TO.P,U4,5,D+_5*%
%TO.N,/USB_DP*%
X108030000Y-109470000D03*
%TO.P,U4,6,D-_6*%
%TO.N,/USB_DN*%
X109300000Y-109470000D03*
%TO.P,U4,7,NC._7*%
%TO.N,/NC_U4_7*%
X110570000Y-109470000D03*
%TO.P,U4,8,~{OUT}_8*%
%TO.N,/NC_U4_8*%
X111850000Y-109470000D03*
%TO.P,U4,9,~{CTS}_9*%
%TO.N,/NC_U4_9*%
X111850000Y-103730000D03*
%TO.P,U4,10,~{DSR}_10*%
%TO.N,/NC_U4_10*%
X110570000Y-103730000D03*
%TO.P,U4,11,~{RI}_11*%
%TO.N,/NC_U4_11*%
X109300000Y-103730000D03*
%TO.P,U4,12,~{DCD}_12*%
%TO.N,/NC_U4_12*%
X108030000Y-103730000D03*
%TO.P,U4,13,~{DTR}_13*%
%TO.N,/CH340_DTR_TEST*%
X106770000Y-103730000D03*
%TO.P,U4,14,~{RTS}_14*%
%TO.N,/CH340_RTS_TEST*%
X105500000Y-103730000D03*
%TO.P,U4,15,R232_15*%
%TO.N,/GND*%
X104230000Y-103730000D03*
%TO.P,U4,16,VCC_16*%
%TO.N,/+3V3_USB*%
X102950000Y-103730000D03*
%TD*%
D13*
%TO.P,R12,1*%
%TO.N,/GND*%
X101775000Y-93890000D03*
%TO.P,R12,2*%
%TO.N,/AMP_GAIN*%
X103425000Y-93890000D03*
%TD*%
D28*
%TO.P,U1,1,GND_1*%
%TO.N,/GND*%
X127000000Y-132540000D03*
%TO.P,U1,2,3V3_2*%
%TO.N,/+3V3*%
X127000000Y-131270000D03*
%TO.P,U1,3,EN_3*%
%TO.N,/ESP_EN*%
X127000000Y-130000000D03*
%TO.P,U1,4,SENSOR_VP_4*%
%TO.N,/NC_SENSOR_VP*%
X127000000Y-128730000D03*
%TO.P,U1,5,SENSOR_VN_5*%
%TO.N,/NC_SENSOR_VN*%
X127000000Y-127460000D03*
%TO.P,U1,6,IO34_6*%
%TO.N,/GPIO34_VOLUME*%
X127000000Y-126190000D03*
%TO.P,U1,7,IO35_7*%
%TO.N,/GPIO35_BATTERY*%
X127000000Y-124920000D03*
%TO.P,U1,8,IO32_8*%
%TO.N,/GPIO32_SPK_BCLK*%
X127000000Y-123650000D03*
%TO.P,U1,9,IO33_9*%
%TO.N,/GPIO33_SPK_LRC*%
X127000000Y-122380000D03*
%TO.P,U1,10,IO25_10*%
%TO.N,/GPIO25_SPK_DIN*%
X127000000Y-121110000D03*
%TO.P,U1,11,IO26_11*%
%TO.N,/GPIO26*%
X127000000Y-119840000D03*
%TO.P,U1,12,IO27_12*%
%TO.N,/GPIO27_TEST*%
X127000000Y-118570000D03*
%TO.P,U1,13,IO14_13*%
%TO.N,/GPIO14_BTN_BOTTOM_LEFT*%
X127000000Y-117300000D03*
%TO.P,U1,14,IO12_14*%
%TO.N,/GPIO12_TEST*%
X127000000Y-116030000D03*
D29*
%TO.P,U1,15,GND_15*%
%TO.N,/GND*%
X123710000Y-114460000D03*
%TO.P,U1,16,IO13_16*%
%TO.N,/GPIO13_TEST*%
X122440000Y-114460000D03*
%TO.P,U1,17,SD2_17*%
%TO.N,/NC_FLASH_SD2*%
X121170000Y-114460000D03*
%TO.P,U1,18,SD3_18*%
%TO.N,/NC_FLASH_SD3*%
X119900000Y-114460000D03*
%TO.P,U1,19,CMD_19*%
%TO.N,/NC_FLASH_CMD*%
X118630000Y-114460000D03*
%TO.P,U1,20,CLK_20*%
%TO.N,/NC_FLASH_CLK*%
X117360000Y-114460000D03*
%TO.P,U1,21,SD0_21*%
%TO.N,/NC_FLASH_SD0*%
X116090000Y-114460000D03*
%TO.P,U1,22,SD1_22*%
%TO.N,/NC_FLASH_SD1*%
X114820000Y-114460000D03*
%TO.P,U1,23,IO15_23*%
%TO.N,/GPIO15_BTN_BOTTOM_RIGHT*%
X113550000Y-114460000D03*
%TO.P,U1,24,IO2_24*%
%TO.N,/GPIO2*%
X112280000Y-114460000D03*
D28*
%TO.P,U1,25,IO0_25*%
%TO.N,/GPIO0_BTN_OK*%
X109000000Y-116030000D03*
%TO.P,U1,26,IO4_26*%
%TO.N,/GPIO4_MIC_SD*%
X109000000Y-117300000D03*
%TO.P,U1,27,IO16_27*%
%TO.N,/GPIO16_MIC_BCLK*%
X109000000Y-118570000D03*
%TO.P,U1,28,IO17_28*%
%TO.N,/GPIO17_MIC_WS*%
X109000000Y-119840000D03*
%TO.P,U1,29,IO5_29*%
%TO.N,/GPIO5_TEST*%
X109000000Y-121110000D03*
%TO.P,U1,30,IO18_30*%
%TO.N,/GPIO18_OLED_SCL*%
X109000000Y-122380000D03*
%TO.P,U1,31,IO19_31*%
%TO.N,/GPIO19_OLED_SDA*%
X109000000Y-123650000D03*
%TO.P,U1,32,NC_32*%
%TO.N,/NC_U1_32*%
X109000000Y-124920000D03*
%TO.P,U1,33,IO21_33*%
%TO.N,/GPIO21_LASER*%
X109000000Y-126190000D03*
%TO.P,U1,34,RXD0_34*%
%TO.N,/UART_RX0*%
X109000000Y-127460000D03*
%TO.P,U1,35,TXD0_35*%
%TO.N,/UART_TX0*%
X109000000Y-128730000D03*
%TO.P,U1,36,IO22_36*%
%TO.N,/GPIO22*%
X109000000Y-130000000D03*
%TO.P,U1,37,IO23_37*%
%TO.N,/GPIO23*%
X109000000Y-131270000D03*
%TO.P,U1,38,GND_38*%
%TO.N,/GND*%
X109000000Y-132540000D03*
D30*
%TO.P,U1,39,GND_39*%
X119510000Y-124820000D03*
%TD*%
D13*
%TO.P,R28,1*%
%TO.N,/GPIO35_BATTERY*%
X119375000Y-105200000D03*
%TO.P,R28,2*%
%TO.N,/BAT_POS*%
X121025000Y-105200000D03*
%TD*%
D31*
%TO.P,J1,*%
%TO.N,*%
X115100000Y-148790000D03*
X120900000Y-148790000D03*
D32*
%TO.P,J1,1,EH_1*%
%TO.N,/GND*%
X122330000Y-148290000D03*
D33*
%TO.P,J1,2,EH_2*%
X122330000Y-152470000D03*
%TO.P,J1,3,EH_3*%
X113670000Y-152470000D03*
D32*
%TO.P,J1,4,EH_4*%
X113670000Y-148290000D03*
D34*
%TO.P,J1,A1B12,GND_A1B12*%
X114800000Y-147530000D03*
D35*
%TO.P,J1,A4B9,VBUS_A4B9*%
%TO.N,/USB_VBUS*%
X115600000Y-147530000D03*
D11*
%TO.P,J1,A5,CC1_A5*%
%TO.N,/USB_CC1*%
X116750000Y-147530000D03*
%TO.P,J1,A6,DP1_A6*%
%TO.N,/USB_DP_CONN*%
X117750000Y-147530000D03*
%TO.P,J1,A7,DN1_A7*%
%TO.N,/USB_DN_CONN*%
X118250000Y-147530000D03*
%TO.P,J1,A8,SBU1_A8*%
%TO.N,/NC_USB_SBU1*%
X119250000Y-147530000D03*
D36*
%TO.P,J1,B1A12,GND_B1A12*%
%TO.N,/GND*%
X121200000Y-147530000D03*
%TO.P,J1,B4A9,VBUS_B4A9*%
%TO.N,/USB_VBUS*%
X120400000Y-147530000D03*
D11*
%TO.P,J1,B5,CC2_B5*%
%TO.N,/USB_CC2*%
X119750000Y-147530000D03*
%TO.P,J1,B6,DP2_B6*%
%TO.N,/USB_DP_CONN*%
X118750000Y-147530000D03*
%TO.P,J1,B7,DN2_B7*%
%TO.N,/USB_DN_CONN*%
X117250000Y-147530000D03*
%TO.P,J1,B8,SBU2_B8*%
%TO.N,/NC_USB_SBU2*%
X116250000Y-147530000D03*
%TD*%
D13*
%TO.P,R3,1*%
%TO.N,/GND*%
X125175000Y-85910000D03*
%TO.P,R3,2*%
%TO.N,/TP_PROG*%
X126825000Y-85910000D03*
%TD*%
%TO.P,R24,1*%
%TO.N,/PTT*%
X124175000Y-91690000D03*
%TO.P,R24,2*%
%TO.N,/GPIO23*%
X125825000Y-91690000D03*
%TD*%
D37*
%TO.P,U6,1,OD_1*%
%TO.N,/PROTECT_OD*%
X130850000Y-129550000D03*
%TO.P,U6,2,VM_2*%
%TO.N,/DW_VM*%
X131800000Y-129550000D03*
%TO.P,U6,3,OC_3*%
%TO.N,/PROTECT_OC*%
X132750000Y-129550000D03*
%TO.P,U6,4,TD_4*%
%TO.N,/GND*%
X132750000Y-127250000D03*
%TO.P,U6,5,VCC_5*%
%TO.N,/DW_VCC*%
X131800000Y-127250000D03*
%TO.P,U6,6,GND_6*%
%TO.N,/BAT_RAW_N*%
X130850000Y-127250000D03*
%TD*%
D13*
%TO.P,R10,1*%
%TO.N,/ESP_EN*%
X133175000Y-141510000D03*
%TO.P,R10,2*%
%TO.N,/+3V3*%
X134825000Y-141510000D03*
%TD*%
D14*
%TO.P,J7,1,Pin_1_1*%
%TO.N,/LED_EXT_ANODE*%
X120300000Y-67785000D03*
D15*
%TO.P,J7,2,Pin_2_2*%
%TO.N,/GND*%
X124500000Y-67785000D03*
%TD*%
D38*
%TO.P,U2,1,I/O1_1*%
%TO.N,/USB_DN_CONN*%
X121062500Y-137050000D03*
%TO.P,U2,2,GND_2*%
%TO.N,/GND*%
X121062500Y-138000000D03*
%TO.P,U2,3,I/O2_3*%
%TO.N,/USB_DP_CONN*%
X121062500Y-138950000D03*
%TO.P,U2,4,I/O2_4*%
%TO.N,/USB_DP*%
X123337500Y-138950000D03*
%TO.P,U2,5,VBUS_5*%
%TO.N,/USB_VBUS*%
X123337500Y-138000000D03*
%TO.P,U2,6,I/O1_6*%
%TO.N,/USB_DN*%
X123337500Y-137050000D03*
%TD*%
D10*
%TO.P,C7,1*%
%TO.N,/GND*%
X117050000Y-100000000D03*
%TO.P,C7,2*%
%TO.N,/VSYS*%
X118950000Y-100000000D03*
%TD*%
%TO.P,C10,1*%
%TO.N,/GND*%
X129650000Y-146200000D03*
%TO.P,C10,2*%
%TO.N,/+3V3*%
X131550000Y-146200000D03*
%TD*%
D13*
%TO.P,R26,1*%
%TO.N,/BTN_TOP_LEFT*%
X124175000Y-96710000D03*
%TO.P,R26,2*%
%TO.N,/GPIO2*%
X125825000Y-96710000D03*
%TD*%
D39*
%TO.P,D1,1,K_1*%
%TO.N,/VSYS*%
X107200000Y-88200000D03*
%TO.P,D1,2,A_2*%
%TO.N,/USB_VBUS*%
X107200000Y-84200000D03*
%TD*%
D10*
%TO.P,C1,1*%
%TO.N,/GND*%
X102050000Y-133600000D03*
%TO.P,C1,2*%
%TO.N,/USB_VBUS*%
X103950000Y-133600000D03*
%TD*%
D40*
%TO.P,U3,1,VIN_1*%
%TO.N,/USB_VBUS*%
X107450000Y-138750000D03*
%TO.P,U3,2,VSS_2*%
%TO.N,/GND*%
X108400000Y-138750000D03*
%TO.P,U3,3,CE_3*%
%TO.N,/USB_VBUS*%
X109350000Y-138750000D03*
D41*
%TO.P,U3,4,NC_4*%
%TO.N,/NC_U3_4*%
X109350000Y-136450000D03*
%TO.P,U3,5,VOUT_5*%
%TO.N,/+3V3_USB*%
X107450000Y-136450000D03*
%TD*%
D10*
%TO.P,C5,1*%
%TO.N,/GND*%
X108050000Y-146400000D03*
%TO.P,C5,2*%
%TO.N,/BAT_POS*%
X109950000Y-146400000D03*
%TD*%
%TO.P,C13,1*%
%TO.N,/GND*%
X113450000Y-94000000D03*
%TO.P,C13,2*%
%TO.N,/+3V3*%
X115350000Y-94000000D03*
%TD*%
D23*
%TO.P,C12,1*%
%TO.N,/GND*%
X114225000Y-109980000D03*
%TO.P,C12,2*%
%TO.N,/+3V3*%
X115775000Y-109980000D03*
%TD*%
D42*
%TO.P,J2,1,1_1*%
%TO.N,/BAT_POS*%
X132130000Y-104800000D03*
%TO.P,J2,2,2_2*%
%TO.N,/BAT_RAW_N*%
X132130000Y-106800000D03*
D43*
%TO.P,J2,3,3_3*%
%TO.N,/GND*%
X126270000Y-109150000D03*
%TO.P,J2,4,4_4*%
X126270000Y-102450000D03*
%TD*%
D13*
%TO.P,R22,1*%
%TO.N,/BTN_TOP_LEFT*%
X130775000Y-95220000D03*
%TO.P,R22,2*%
%TO.N,/GPIO26*%
X132425000Y-95220000D03*
%TD*%
D14*
%TO.P,J4,1,Pin_1_1*%
%TO.N,/SPK_PLUS*%
X103400000Y-67795000D03*
D15*
%TO.P,J4,2,Pin_2_2*%
%TO.N,/SPK_MINUS*%
X107600000Y-67795000D03*
%TD*%
D44*
%TO.P,J5,1,Pin_1_1*%
%TO.N,/+3V3*%
X103200000Y-52800000D03*
D45*
%TO.P,J5,2,Pin_2_2*%
%TO.N,/GPIO34_VOLUME*%
X107200000Y-52800000D03*
%TO.P,J5,3,Pin_3_3*%
%TO.N,/GND*%
X111200000Y-52800000D03*
%TD*%
D13*
%TO.P,R15,1*%
%TO.N,/GND*%
X130775000Y-87690000D03*
%TO.P,R15,2*%
%TO.N,/GPIO21_LASER*%
X132425000Y-87690000D03*
%TD*%
D46*
%TO.P,U5,1,TEMP_1*%
%TO.N,/GND*%
X105500000Y-97280000D03*
%TO.P,U5,2,PROG_2*%
%TO.N,/TP_PROG*%
X106770000Y-97280000D03*
%TO.P,U5,3,GND_3*%
%TO.N,/GND*%
X108030000Y-97280000D03*
%TO.P,U5,4,VCC_4*%
%TO.N,/USB_VBUS*%
X109310000Y-97280000D03*
%TO.P,U5,5,BAT_5*%
%TO.N,/BAT_POS*%
X109310000Y-91920000D03*
%TO.P,U5,6,STDBY_6*%
%TO.N,/TP_STDBY*%
X108030000Y-91920000D03*
%TO.P,U5,7,CHRG_7*%
%TO.N,/TP_CHRG*%
X106770000Y-91920000D03*
%TO.P,U5,8,CE_8*%
%TO.N,/USB_VBUS*%
X105500000Y-91920000D03*
D47*
%TO.P,U5,9,PAD_9*%
%TO.N,/GND*%
X107400000Y-94600000D03*
%TD*%
D21*
%TO.P,Q2,1,G_1*%
%TO.N,/LOAD_GATE*%
X120062500Y-86450000D03*
%TO.P,Q2,2,S_2*%
%TO.N,/BAT_POS*%
X120062500Y-88350000D03*
%TO.P,Q2,3,D_3*%
%TO.N,/VSYS*%
X121937500Y-87400000D03*
%TD*%
M02*
