%TF.GenerationSoftware,KiCad,Pcbnew,10.0.4*%
%TF.CreationDate,2026-07-25T17:27:03-04:00*%
%TF.ProjectId,WalkieTalkie,57616c6b-6965-4546-916c-6b69652e6b69,rev?*%
%TF.SameCoordinates,Original*%
%TF.FileFunction,Soldermask,Top*%
%TF.FilePolarity,Negative*%
%FSLAX46Y46*%
G04 Gerber Fmt 4.6, Leading zero omitted, Abs format (unit mm)*
G04 Created by KiCad (PCBNEW 10.0.4) date 2026-07-25 17:27:03*
%MOMM*%
%LPD*%
G01*
G04 APERTURE LIST*
G04 Aperture macros list*
%AMRoundRect*
0 Rectangle with rounded corners*
0 $1 Rounding radius*
0 $2 $3 $4 $5 $6 $7 $8 $9 X,Y pos of 4 corners*
0 Add a 4 corners polygon primitive as box body*
4,1,4,$2,$3,$4,$5,$6,$7,$8,$9,$2,$3,0*
0 Add four circle primitives for the rounded corners*
1,1,$1+$1,$2,$3*
1,1,$1+$1,$4,$5*
1,1,$1+$1,$6,$7*
1,1,$1+$1,$8,$9*
0 Add four rect primitives between the rounded corners*
20,1,$1+$1,$2,$3,$4,$5,0*
20,1,$1+$1,$4,$5,$6,$7,0*
20,1,$1+$1,$6,$7,$8,$9,0*
20,1,$1+$1,$8,$9,$2,$3,0*%
%AMFreePoly0*
4,1,17,0.335278,0.685443,0.349923,0.650088,0.349923,-0.649935,0.335278,-0.685290,0.299923,-0.699935,0.000318,-0.699935,-0.000051,-0.700088,-0.300050,-0.700088,-0.335405,-0.685443,-0.350050,-0.650088,-0.350050,0.649935,-0.335405,0.685290,-0.300050,0.699935,-0.000445,0.699935,-0.000076,0.700088,0.299923,0.700088,0.335278,0.685443,0.335278,0.685443,$1*%
%AMFreePoly1*
4,1,17,0.335431,0.685290,0.350076,0.649935,0.350076,-0.650037,0.335431,-0.685392,0.300076,-0.700037,0.000187,-0.700037,0.000127,-0.700062,-0.299898,-0.700062,-0.335253,-0.685417,-0.349898,-0.650062,-0.349898,0.649910,-0.335253,0.685265,-0.299898,0.699910,-0.000009,0.699910,0.000051,0.699935,0.300076,0.699935,0.335431,0.685290,0.335431,0.685290,$1*%
%AMFreePoly2*
4,1,13,0.335227,0.685443,0.349872,0.650088,0.349872,-0.649884,0.335227,-0.685239,0.299872,-0.699884,-0.300152,-0.699884,-0.335507,-0.685239,-0.350152,-0.649884,-0.350152,0.650088,-0.335507,0.685443,-0.300152,0.700088,0.299872,0.700088,0.335227,0.685443,0.335227,0.685443,$1*%
G04 Aperture macros list end*
%ADD10RoundRect,0.250000X-0.250000X-0.475000X0.250000X-0.475000X0.250000X0.475000X-0.250000X0.475000X0*%
%ADD11R,0.300000X1.300000*%
%ADD12R,2.000000X1.600000*%
%ADD13RoundRect,0.200000X-0.200000X-0.275000X0.200000X-0.275000X0.200000X0.275000X-0.200000X0.275000X0*%
%ADD14C,2.200000*%
%ADD15RoundRect,0.250000X-0.675000X-0.675000X0.675000X-0.675000X0.675000X0.675000X-0.675000X0.675000X0*%
%ADD16C,1.850000*%
%ADD17R,0.250000X0.600000*%
%ADD18R,0.600000X0.250000*%
%ADD19R,1.500000X1.500000*%
%ADD20R,0.665000X0.280000*%
%ADD21R,1.200000X2.000000*%
%ADD22RoundRect,0.150000X-0.587500X-0.150000X0.587500X-0.150000X0.587500X0.150000X-0.587500X0.150000X0*%
%ADD23RoundRect,0.218750X-0.218750X-0.256250X0.218750X-0.256250X0.218750X0.256250X-0.218750X0.256250X0*%
%ADD24RoundRect,0.225000X-0.225000X-0.250000X0.225000X-0.250000X0.225000X0.250000X-0.225000X0.250000X0*%
%ADD25R,1.230000X1.860000*%
%ADD26R,1.100000X0.600000*%
%ADD27RoundRect,0.218750X-0.218750X-0.381250X0.218750X-0.381250X0.218750X0.381250X-0.218750X0.381250X0*%
%ADD28O,0.560000X1.745000*%
%ADD29R,2.100000X0.950000*%
%ADD30R,0.950000X2.100000*%
%ADD31R,3.800000X3.800000*%
%ADD32C,0.750000*%
%ADD33O,1.200000X2.000000*%
%ADD34O,1.200000X1.800000*%
%ADD35FreePoly0,0.000000*%
%ADD36FreePoly1,0.000000*%
%ADD37FreePoly2,0.000000*%
%ADD38R,0.532000X1.072000*%
%ADD39RoundRect,0.150000X-0.512500X-0.150000X0.512500X-0.150000X0.512500X0.150000X-0.512500X0.150000X0*%
%ADD40RoundRect,0.250000X0.650000X-1.000000X0.650000X1.000000X-0.650000X1.000000X-0.650000X-1.000000X0*%
%ADD41R,0.490000X1.157000*%
%ADD42R,0.490000X1.175000*%
%ADD43R,3.800000X1.000000*%
%ADD44R,3.400000X1.500000*%
%ADD45C,2.000000*%
%ADD46RoundRect,0.250000X-0.600000X-0.600000X0.600000X-0.600000X0.600000X0.600000X-0.600000X0.600000X0*%
%ADD47C,1.700000*%
%ADD48O,0.630000X1.865000*%
%ADD49R,3.200000X2.300000*%
G04 APERTURE END LIST*
D10*
%TO.C,C9*%
X129650000Y-143190000D03*
X131550000Y-143190000D03*
%TD*%
D11*
%TO.C,J3*%
X120450000Y-59907500D03*
X120950000Y-59907500D03*
X121450000Y-59907500D03*
X121950000Y-59907500D03*
X122450000Y-59907500D03*
X122950000Y-59907500D03*
X123450000Y-59907500D03*
X123950000Y-59907500D03*
X124450000Y-59907500D03*
X124950000Y-59907500D03*
X125450000Y-59907500D03*
X125950000Y-59907500D03*
X126450000Y-59907500D03*
X126950000Y-59907500D03*
X127450000Y-59907500D03*
X127950000Y-59907500D03*
D12*
X118750000Y-57227500D03*
X129650000Y-57227500D03*
%TD*%
D13*
%TO.C,R8*%
X133175000Y-136490000D03*
X134825000Y-136490000D03*
%TD*%
D10*
%TO.C,C15*%
X111850000Y-100200000D03*
X113750000Y-100200000D03*
%TD*%
D13*
%TO.C,R20*%
X130775000Y-90200000D03*
X132425000Y-90200000D03*
%TD*%
%TO.C,R29*%
X131175000Y-121800000D03*
X132825000Y-121800000D03*
%TD*%
D14*
%TO.C,J8*%
X128900000Y-77985000D03*
X133100000Y-77985000D03*
D15*
X128900000Y-67785000D03*
D16*
X133100000Y-67785000D03*
%TD*%
D13*
%TO.C,R6*%
X116775000Y-138000000D03*
X118425000Y-138000000D03*
%TD*%
D17*
%TO.C,U8*%
X103850000Y-147300000D03*
X104350000Y-147300000D03*
X104850000Y-147300000D03*
X105350000Y-147300000D03*
D18*
X106100000Y-146550000D03*
X106100000Y-146050000D03*
X106100000Y-145550000D03*
X106100000Y-145050000D03*
D17*
X105350000Y-144300000D03*
X104850000Y-144300000D03*
X104350000Y-144300000D03*
X103850000Y-144300000D03*
D18*
X103100000Y-145050000D03*
X103100000Y-145550000D03*
X103100000Y-146050000D03*
X103100000Y-146550000D03*
D19*
X104600000Y-145800000D03*
%TD*%
D20*
%TO.C,U7*%
X111640000Y-137000000D03*
X111640000Y-137500000D03*
X111640000Y-138000000D03*
X111640000Y-138500000D03*
X111640000Y-139000000D03*
X113960000Y-139000000D03*
X113960000Y-138500000D03*
X113960000Y-138000000D03*
X113960000Y-137500000D03*
X113960000Y-137000000D03*
D21*
X112800000Y-138000000D03*
%TD*%
D13*
%TO.C,R5*%
X116775000Y-135490000D03*
X118425000Y-135490000D03*
%TD*%
D22*
%TO.C,Q3*%
X114062500Y-86450000D03*
X114062500Y-88350000D03*
X115937500Y-87400000D03*
%TD*%
D13*
%TO.C,R25*%
X124175000Y-94200000D03*
X125825000Y-94200000D03*
%TD*%
%TO.C,R1*%
X119175000Y-109800000D03*
X120825000Y-109800000D03*
%TD*%
%TO.C,R9*%
X133175000Y-139000000D03*
X134825000Y-139000000D03*
%TD*%
D23*
%TO.C,D3*%
X103012500Y-125800000D03*
X104587500Y-125800000D03*
%TD*%
D13*
%TO.C,R14*%
X130775000Y-85180000D03*
X132425000Y-85180000D03*
%TD*%
%TO.C,R4*%
X125175000Y-88420000D03*
X126825000Y-88420000D03*
%TD*%
D24*
%TO.C,C14*%
X131225000Y-112490000D03*
X132775000Y-112490000D03*
%TD*%
%TO.C,C6*%
X114225000Y-107470000D03*
X115775000Y-107470000D03*
%TD*%
D13*
%TO.C,R2*%
X125175000Y-83400000D03*
X126825000Y-83400000D03*
%TD*%
%TO.C,R11*%
X101775000Y-89200000D03*
X103425000Y-89200000D03*
%TD*%
D25*
%TO.C,SW2*%
X101820000Y-120200000D03*
X106180000Y-120200000D03*
%TD*%
D10*
%TO.C,C8*%
X119250000Y-94000000D03*
X121150000Y-94000000D03*
%TD*%
D26*
%TO.C,Q1*%
X126350000Y-145750000D03*
X126350000Y-144800000D03*
X126350000Y-143850000D03*
X123650000Y-143850000D03*
X123650000Y-144800000D03*
X123650000Y-145750000D03*
%TD*%
D13*
%TO.C,R7*%
X116775000Y-140510000D03*
X118425000Y-140510000D03*
%TD*%
D23*
%TO.C,D2*%
X102812500Y-128800000D03*
X104387500Y-128800000D03*
%TD*%
D24*
%TO.C,C16*%
X126425000Y-112200000D03*
X127975000Y-112200000D03*
%TD*%
%TO.C,C3*%
X114225000Y-104960000D03*
X115775000Y-104960000D03*
%TD*%
D13*
%TO.C,R21*%
X130775000Y-92710000D03*
X132425000Y-92710000D03*
%TD*%
D27*
%TO.C,L1*%
X129137500Y-116200000D03*
X131262500Y-116200000D03*
%TD*%
D25*
%TO.C,SW1*%
X101820000Y-115970000D03*
X106180000Y-115970000D03*
%TD*%
D10*
%TO.C,C2*%
X102050000Y-137800000D03*
X103950000Y-137800000D03*
%TD*%
D13*
%TO.C,R23*%
X130775000Y-97730000D03*
X132425000Y-97730000D03*
%TD*%
D10*
%TO.C,C11*%
X129050000Y-138200000D03*
X130950000Y-138200000D03*
%TD*%
D13*
%TO.C,R13*%
X101975000Y-98800000D03*
X103625000Y-98800000D03*
%TD*%
D10*
%TO.C,C4*%
X108250000Y-142000000D03*
X110150000Y-142000000D03*
%TD*%
D13*
%TO.C,R27*%
X124175000Y-99220000D03*
X125825000Y-99220000D03*
%TD*%
D14*
%TO.C,J6*%
X111800000Y-77995000D03*
X116000000Y-77995000D03*
D15*
X111800000Y-67795000D03*
D16*
X116000000Y-67795000D03*
%TD*%
D28*
%TO.C,U4*%
X102950000Y-109470000D03*
X104230000Y-109470000D03*
X105500000Y-109470000D03*
X106770000Y-109470000D03*
X108030000Y-109470000D03*
X109300000Y-109470000D03*
X110570000Y-109470000D03*
X111850000Y-109470000D03*
X111850000Y-103730000D03*
X110570000Y-103730000D03*
X109300000Y-103730000D03*
X108030000Y-103730000D03*
X106770000Y-103730000D03*
X105500000Y-103730000D03*
X104230000Y-103730000D03*
X102950000Y-103730000D03*
%TD*%
D13*
%TO.C,R12*%
X101775000Y-93890000D03*
X103425000Y-93890000D03*
%TD*%
D29*
%TO.C,U1*%
X127000000Y-132540000D03*
X127000000Y-131270000D03*
X127000000Y-130000000D03*
X127000000Y-128730000D03*
X127000000Y-127460000D03*
X127000000Y-126190000D03*
X127000000Y-124920000D03*
X127000000Y-123650000D03*
X127000000Y-122380000D03*
X127000000Y-121110000D03*
X127000000Y-119840000D03*
X127000000Y-118570000D03*
X127000000Y-117300000D03*
X127000000Y-116030000D03*
D30*
X123710000Y-114460000D03*
X122440000Y-114460000D03*
X121170000Y-114460000D03*
X119900000Y-114460000D03*
X118630000Y-114460000D03*
X117360000Y-114460000D03*
X116090000Y-114460000D03*
X114820000Y-114460000D03*
X113550000Y-114460000D03*
X112280000Y-114460000D03*
D29*
X109000000Y-116030000D03*
X109000000Y-117300000D03*
X109000000Y-118570000D03*
X109000000Y-119840000D03*
X109000000Y-121110000D03*
X109000000Y-122380000D03*
X109000000Y-123650000D03*
X109000000Y-124920000D03*
X109000000Y-126190000D03*
X109000000Y-127460000D03*
X109000000Y-128730000D03*
X109000000Y-130000000D03*
X109000000Y-131270000D03*
X109000000Y-132540000D03*
D31*
X119510000Y-124820000D03*
%TD*%
D13*
%TO.C,R28*%
X119375000Y-105200000D03*
X121025000Y-105200000D03*
%TD*%
D32*
%TO.C,J1*%
X115100000Y-148790000D03*
X120900000Y-148790000D03*
D33*
X122330000Y-148290000D03*
D34*
X122330000Y-152470000D03*
X113670000Y-152470000D03*
D33*
X113670000Y-148290000D03*
D35*
X114800000Y-147530000D03*
D36*
X115600000Y-147530000D03*
D11*
X116750000Y-147530000D03*
X117750000Y-147530000D03*
X118250000Y-147530000D03*
X119250000Y-147530000D03*
D37*
X121200000Y-147530000D03*
X120400000Y-147530000D03*
D11*
X119750000Y-147530000D03*
X118750000Y-147530000D03*
X117250000Y-147530000D03*
X116250000Y-147530000D03*
%TD*%
D13*
%TO.C,R3*%
X125175000Y-85910000D03*
X126825000Y-85910000D03*
%TD*%
%TO.C,R24*%
X124175000Y-91690000D03*
X125825000Y-91690000D03*
%TD*%
D38*
%TO.C,U6*%
X130850000Y-129550000D03*
X131800000Y-129550000D03*
X132750000Y-129550000D03*
X132750000Y-127250000D03*
X131800000Y-127250000D03*
X130850000Y-127250000D03*
%TD*%
D13*
%TO.C,R10*%
X133175000Y-141510000D03*
X134825000Y-141510000D03*
%TD*%
D14*
%TO.C,J7*%
X120300000Y-77985000D03*
X124500000Y-77985000D03*
D15*
X120300000Y-67785000D03*
D16*
X124500000Y-67785000D03*
%TD*%
D39*
%TO.C,U2*%
X121062500Y-137050000D03*
X121062500Y-138000000D03*
X121062500Y-138950000D03*
X123337500Y-138950000D03*
X123337500Y-138000000D03*
X123337500Y-137050000D03*
%TD*%
D10*
%TO.C,C7*%
X117050000Y-100000000D03*
X118950000Y-100000000D03*
%TD*%
%TO.C,C10*%
X129650000Y-146200000D03*
X131550000Y-146200000D03*
%TD*%
D13*
%TO.C,R26*%
X124175000Y-96710000D03*
X125825000Y-96710000D03*
%TD*%
D40*
%TO.C,D1*%
X107200000Y-88200000D03*
X107200000Y-84200000D03*
%TD*%
D10*
%TO.C,C1*%
X102050000Y-133600000D03*
X103950000Y-133600000D03*
%TD*%
D41*
%TO.C,U3*%
X107450000Y-138750000D03*
X108400000Y-138750000D03*
X109350000Y-138750000D03*
D42*
X109350000Y-136450000D03*
X107450000Y-136450000D03*
%TD*%
D10*
%TO.C,C5*%
X108050000Y-146400000D03*
X109950000Y-146400000D03*
%TD*%
%TO.C,C13*%
X113450000Y-94000000D03*
X115350000Y-94000000D03*
%TD*%
D24*
%TO.C,C12*%
X114225000Y-109980000D03*
X115775000Y-109980000D03*
%TD*%
D43*
%TO.C,J2*%
X132130000Y-104800000D03*
X132130000Y-106800000D03*
D44*
X126270000Y-109150000D03*
X126270000Y-102450000D03*
%TD*%
D13*
%TO.C,R22*%
X130775000Y-95220000D03*
X132425000Y-95220000D03*
%TD*%
D14*
%TO.C,J4*%
X103400000Y-77995000D03*
X107600000Y-77995000D03*
D15*
X103400000Y-67795000D03*
D16*
X107600000Y-67795000D03*
%TD*%
D45*
%TO.C,J5*%
X103200000Y-61800000D03*
X107200000Y-61800000D03*
X111200000Y-61800000D03*
D46*
X103200000Y-52800000D03*
D47*
X107200000Y-52800000D03*
X111200000Y-52800000D03*
%TD*%
D13*
%TO.C,R15*%
X130775000Y-87690000D03*
X132425000Y-87690000D03*
%TD*%
D48*
%TO.C,U5*%
X105500000Y-97280000D03*
X106770000Y-97280000D03*
X108030000Y-97280000D03*
X109310000Y-97280000D03*
X109310000Y-91920000D03*
X108030000Y-91920000D03*
X106770000Y-91920000D03*
X105500000Y-91920000D03*
D49*
X107400000Y-94600000D03*
%TD*%
D22*
%TO.C,Q2*%
X120062500Y-86450000D03*
X120062500Y-88350000D03*
X121937500Y-87400000D03*
%TD*%
M02*
